<?xml version="1.0" encoding="utf-8"?>
<svg xmlns="http://www.w3.org/2000/svg" xmlns:xlink="http://www.w3.org/1999/xlink" width="600" height="400" viewBox="0 0 2400 1600">
<defs>
  <clipPath id="clip450">
    <rect x="0" y="0" width="2400" height="1600"/>
  </clipPath>
</defs>
<path clip-path="url(#clip450)" d="
M0 1600 L2400 1600 L2400 0 L0 0  Z
  " fill="#ffffff" fill-rule="evenodd" fill-opacity="1"/>
<defs>
  <clipPath id="clip451">
    <rect x="480" y="0" width="1681" height="1600"/>
  </clipPath>
</defs>
<path clip-path="url(#clip450)" d="
M172.015 1486.45 L2352.76 1486.45 L2352.76 47.2441 L172.015 47.2441  Z
  " fill="#ffffff" fill-rule="evenodd" fill-opacity="1"/>
<defs>
  <clipPath id="clip452">
    <rect x="172" y="47" width="2182" height="1440"/>
  </clipPath>
</defs>
<polyline clip-path="url(#clip452)" style="stroke:#000000; stroke-linecap:butt; stroke-linejoin:round; stroke-width:2; stroke-opacity:0.1; fill:none" points="
  291.959,1486.45 291.959,47.2441 
  "/>
<polyline clip-path="url(#clip452)" style="stroke:#000000; stroke-linecap:butt; stroke-linejoin:round; stroke-width:2; stroke-opacity:0.1; fill:none" points="
  696.304,1486.45 696.304,47.2441 
  "/>
<polyline clip-path="url(#clip452)" style="stroke:#000000; stroke-linecap:butt; stroke-linejoin:round; stroke-width:2; stroke-opacity:0.1; fill:none" points="
  1100.65,1486.45 1100.65,47.2441 
  "/>
<polyline clip-path="url(#clip452)" style="stroke:#000000; stroke-linecap:butt; stroke-linejoin:round; stroke-width:2; stroke-opacity:0.1; fill:none" points="
  1504.99,1486.45 1504.99,47.2441 
  "/>
<polyline clip-path="url(#clip452)" style="stroke:#000000; stroke-linecap:butt; stroke-linejoin:round; stroke-width:2; stroke-opacity:0.1; fill:none" points="
  1909.34,1486.45 1909.34,47.2441 
  "/>
<polyline clip-path="url(#clip452)" style="stroke:#000000; stroke-linecap:butt; stroke-linejoin:round; stroke-width:2; stroke-opacity:0.1; fill:none" points="
  2313.68,1486.45 2313.68,47.2441 
  "/>
<polyline clip-path="url(#clip450)" style="stroke:#000000; stroke-linecap:butt; stroke-linejoin:round; stroke-width:4; stroke-opacity:1; fill:none" points="
  172.015,1486.45 2352.76,1486.45 
  "/>
<polyline clip-path="url(#clip450)" style="stroke:#000000; stroke-linecap:butt; stroke-linejoin:round; stroke-width:4; stroke-opacity:1; fill:none" points="
  291.959,1486.45 291.959,1467.55 
  "/>
<polyline clip-path="url(#clip450)" style="stroke:#000000; stroke-linecap:butt; stroke-linejoin:round; stroke-width:4; stroke-opacity:1; fill:none" points="
  696.304,1486.45 696.304,1467.55 
  "/>
<polyline clip-path="url(#clip450)" style="stroke:#000000; stroke-linecap:butt; stroke-linejoin:round; stroke-width:4; stroke-opacity:1; fill:none" points="
  1100.65,1486.45 1100.65,1467.55 
  "/>
<polyline clip-path="url(#clip450)" style="stroke:#000000; stroke-linecap:butt; stroke-linejoin:round; stroke-width:4; stroke-opacity:1; fill:none" points="
  1504.99,1486.45 1504.99,1467.55 
  "/>
<polyline clip-path="url(#clip450)" style="stroke:#000000; stroke-linecap:butt; stroke-linejoin:round; stroke-width:4; stroke-opacity:1; fill:none" points="
  1909.34,1486.45 1909.34,1467.55 
  "/>
<polyline clip-path="url(#clip450)" style="stroke:#000000; stroke-linecap:butt; stroke-linejoin:round; stroke-width:4; stroke-opacity:1; fill:none" points="
  2313.68,1486.45 2313.68,1467.55 
  "/>
<path clip-path="url(#clip450)" d="M277.862 1529.7 Q274.714 1529.7 272.862 1531.86 Q271.034 1534.01 271.034 1537.76 Q271.034 1541.49 272.862 1543.66 Q274.714 1545.82 277.862 1545.82 Q281.01 1545.82 282.839 1543.66 Q284.691 1541.49 284.691 1537.76 Q284.691 1534.01 282.839 1531.86 Q281.01 1529.7 277.862 1529.7 M287.145 1515.05 L287.145 1519.31 Q285.385 1518.48 283.58 1518.04 Q281.797 1517.6 280.038 1517.6 Q275.409 1517.6 272.955 1520.72 Q270.524 1523.85 270.177 1530.17 Q271.543 1528.15 273.603 1527.09 Q275.663 1526 278.14 1526 Q283.348 1526 286.358 1529.17 Q289.39 1532.32 289.39 1537.76 Q289.39 1543.08 286.242 1546.3 Q283.094 1549.52 277.862 1549.52 Q271.867 1549.52 268.696 1544.94 Q265.524 1540.33 265.524 1531.6 Q265.524 1523.41 269.413 1518.55 Q273.302 1513.66 279.853 1513.66 Q281.612 1513.66 283.395 1514.01 Q285.2 1514.36 287.145 1515.05 Z" fill="#000000" fill-rule="evenodd" fill-opacity="1" /><path clip-path="url(#clip450)" d="M297.492 1514.29 L315.848 1514.29 L315.848 1518.22 L301.774 1518.22 L301.774 1526.7 Q302.793 1526.35 303.811 1526.19 Q304.83 1526 305.848 1526 Q311.635 1526 315.015 1529.17 Q318.395 1532.34 318.395 1537.76 Q318.395 1543.34 314.922 1546.44 Q311.45 1549.52 305.131 1549.52 Q302.955 1549.52 300.686 1549.15 Q298.441 1548.78 296.034 1548.04 L296.034 1543.34 Q298.117 1544.47 300.339 1545.03 Q302.561 1545.58 305.038 1545.58 Q309.043 1545.58 311.381 1543.48 Q313.719 1541.37 313.719 1537.76 Q313.719 1534.15 311.381 1532.04 Q309.043 1529.94 305.038 1529.94 Q303.163 1529.94 301.288 1530.35 Q299.436 1530.77 297.492 1531.65 L297.492 1514.29 Z" fill="#000000" fill-rule="evenodd" fill-opacity="1" /><path clip-path="url(#clip450)" d="M669.66 1514.29 L691.882 1514.29 L691.882 1516.28 L679.336 1548.85 L674.452 1548.85 L686.257 1518.22 L669.66 1518.22 L669.66 1514.29 Z" fill="#000000" fill-rule="evenodd" fill-opacity="1" /><path clip-path="url(#clip450)" d="M711.003 1517.37 Q707.391 1517.37 705.563 1520.93 Q703.757 1524.47 703.757 1531.6 Q703.757 1538.71 705.563 1542.27 Q707.391 1545.82 711.003 1545.82 Q714.637 1545.82 716.442 1542.27 Q718.271 1538.71 718.271 1531.6 Q718.271 1524.47 716.442 1520.93 Q714.637 1517.37 711.003 1517.37 M711.003 1513.66 Q716.813 1513.66 719.868 1518.27 Q722.947 1522.85 722.947 1531.6 Q722.947 1540.33 719.868 1544.94 Q716.813 1549.52 711.003 1549.52 Q705.192 1549.52 702.114 1544.94 Q699.058 1540.33 699.058 1531.6 Q699.058 1522.85 702.114 1518.27 Q705.192 1513.66 711.003 1513.66 Z" fill="#000000" fill-rule="evenodd" fill-opacity="1" /><path clip-path="url(#clip450)" d="M1074.5 1514.29 L1096.72 1514.29 L1096.72 1516.28 L1084.18 1548.85 L1079.29 1548.85 L1091.1 1518.22 L1074.5 1518.22 L1074.5 1514.29 Z" fill="#000000" fill-rule="evenodd" fill-opacity="1" /><path clip-path="url(#clip450)" d="M1105.89 1514.29 L1124.25 1514.29 L1124.25 1518.22 L1110.17 1518.22 L1110.17 1526.7 Q1111.19 1526.35 1112.21 1526.19 Q1113.23 1526 1114.25 1526 Q1120.03 1526 1123.41 1529.17 Q1126.79 1532.34 1126.79 1537.76 Q1126.79 1543.34 1123.32 1546.44 Q1119.85 1549.52 1113.53 1549.52 Q1111.35 1549.52 1109.09 1549.15 Q1106.84 1548.78 1104.43 1548.04 L1104.43 1543.34 Q1106.52 1544.47 1108.74 1545.03 Q1110.96 1545.58 1113.44 1545.58 Q1117.44 1545.58 1119.78 1543.48 Q1122.12 1541.37 1122.12 1537.76 Q1122.12 1534.15 1119.78 1532.04 Q1117.44 1529.94 1113.44 1529.94 Q1111.56 1529.94 1109.69 1530.35 Q1107.84 1530.77 1105.89 1531.65 L1105.89 1514.29 Z" fill="#000000" fill-rule="evenodd" fill-opacity="1" /><path clip-path="url(#clip450)" d="M1489.86 1532.44 Q1486.53 1532.44 1484.61 1534.22 Q1482.71 1536 1482.71 1539.13 Q1482.71 1542.25 1484.61 1544.03 Q1486.53 1545.82 1489.86 1545.82 Q1493.2 1545.82 1495.12 1544.03 Q1497.04 1542.23 1497.04 1539.13 Q1497.04 1536 1495.12 1534.22 Q1493.22 1532.44 1489.86 1532.44 M1485.19 1530.45 Q1482.18 1529.7 1480.49 1527.64 Q1478.82 1525.58 1478.82 1522.62 Q1478.82 1518.48 1481.76 1516.07 Q1484.73 1513.66 1489.86 1513.66 Q1495.03 1513.66 1497.97 1516.07 Q1500.91 1518.48 1500.91 1522.62 Q1500.91 1525.58 1499.22 1527.64 Q1497.55 1529.7 1494.56 1530.45 Q1497.94 1531.23 1499.82 1533.52 Q1501.72 1535.82 1501.72 1539.13 Q1501.72 1544.15 1498.64 1546.83 Q1495.58 1549.52 1489.86 1549.52 Q1484.15 1549.52 1481.07 1546.83 Q1478.01 1544.15 1478.01 1539.13 Q1478.01 1535.82 1479.91 1533.52 Q1481.81 1531.23 1485.19 1530.45 M1483.48 1523.06 Q1483.48 1525.75 1485.14 1527.25 Q1486.83 1528.76 1489.86 1528.76 Q1492.87 1528.76 1494.56 1527.25 Q1496.28 1525.75 1496.28 1523.06 Q1496.28 1520.38 1494.56 1518.87 Q1492.87 1517.37 1489.86 1517.37 Q1486.83 1517.37 1485.14 1518.87 Q1483.48 1520.38 1483.48 1523.06 Z" fill="#000000" fill-rule="evenodd" fill-opacity="1" /><path clip-path="url(#clip450)" d="M1520.03 1517.37 Q1516.42 1517.37 1514.59 1520.93 Q1512.78 1524.47 1512.78 1531.6 Q1512.78 1538.71 1514.59 1542.27 Q1516.42 1545.82 1520.03 1545.82 Q1523.66 1545.82 1525.47 1542.27 Q1527.29 1538.71 1527.29 1531.6 Q1527.29 1524.47 1525.47 1520.93 Q1523.66 1517.37 1520.03 1517.37 M1520.03 1513.66 Q1525.84 1513.66 1528.89 1518.27 Q1531.97 1522.85 1531.97 1531.6 Q1531.97 1540.33 1528.89 1544.94 Q1525.84 1549.52 1520.03 1549.52 Q1514.22 1549.52 1511.14 1544.94 Q1508.08 1540.33 1508.08 1531.6 Q1508.08 1522.85 1511.14 1518.27 Q1514.22 1513.66 1520.03 1513.66 Z" fill="#000000" fill-rule="evenodd" fill-opacity="1" /><path clip-path="url(#clip450)" d="M1894.71 1532.44 Q1891.37 1532.44 1889.45 1534.22 Q1887.55 1536 1887.55 1539.13 Q1887.55 1542.25 1889.45 1544.03 Q1891.37 1545.82 1894.71 1545.82 Q1898.04 1545.82 1899.96 1544.03 Q1901.88 1542.23 1901.88 1539.13 Q1901.88 1536 1899.96 1534.22 Q1898.06 1532.44 1894.71 1532.44 M1890.03 1530.45 Q1887.02 1529.7 1885.33 1527.64 Q1883.66 1525.58 1883.66 1522.62 Q1883.66 1518.48 1886.6 1516.07 Q1889.57 1513.66 1894.71 1513.66 Q1899.87 1513.66 1902.81 1516.07 Q1905.75 1518.48 1905.75 1522.62 Q1905.75 1525.58 1904.06 1527.64 Q1902.39 1529.7 1899.41 1530.45 Q1902.79 1531.23 1904.66 1533.52 Q1906.56 1535.82 1906.56 1539.13 Q1906.56 1544.15 1903.48 1546.83 Q1900.42 1549.52 1894.71 1549.52 Q1888.99 1549.52 1885.91 1546.83 Q1882.85 1544.15 1882.85 1539.13 Q1882.85 1535.82 1884.75 1533.52 Q1886.65 1531.23 1890.03 1530.45 M1888.32 1523.06 Q1888.32 1525.75 1889.98 1527.25 Q1891.67 1528.76 1894.71 1528.76 Q1897.72 1528.76 1899.41 1527.25 Q1901.12 1525.75 1901.12 1523.06 Q1901.12 1520.38 1899.41 1518.87 Q1897.72 1517.37 1894.71 1517.37 Q1891.67 1517.37 1889.98 1518.87 Q1888.32 1520.38 1888.32 1523.06 Z" fill="#000000" fill-rule="evenodd" fill-opacity="1" /><path clip-path="url(#clip450)" d="M1914.91 1514.29 L1933.27 1514.29 L1933.27 1518.22 L1919.2 1518.22 L1919.2 1526.7 Q1920.22 1526.35 1921.23 1526.19 Q1922.25 1526 1923.27 1526 Q1929.06 1526 1932.44 1529.17 Q1935.82 1532.34 1935.82 1537.76 Q1935.82 1543.34 1932.35 1546.44 Q1928.87 1549.52 1922.55 1549.52 Q1920.38 1549.52 1918.11 1549.15 Q1915.86 1548.78 1913.46 1548.04 L1913.46 1543.34 Q1915.54 1544.47 1917.76 1545.03 Q1919.98 1545.58 1922.46 1545.58 Q1926.47 1545.58 1928.8 1543.48 Q1931.14 1541.37 1931.14 1537.76 Q1931.14 1534.15 1928.8 1532.04 Q1926.47 1529.94 1922.46 1529.94 Q1920.59 1529.94 1918.71 1530.35 Q1916.86 1530.77 1914.91 1531.65 L1914.91 1514.29 Z" fill="#000000" fill-rule="evenodd" fill-opacity="1" /><path clip-path="url(#clip450)" d="M2288.81 1548.13 L2288.81 1543.87 Q2290.57 1544.7 2292.37 1545.14 Q2294.18 1545.58 2295.91 1545.58 Q2300.54 1545.58 2302.97 1542.48 Q2305.43 1539.36 2305.78 1533.01 Q2304.43 1535.01 2302.37 1536.07 Q2300.31 1537.13 2297.81 1537.13 Q2292.63 1537.13 2289.59 1534.01 Q2286.59 1530.86 2286.59 1525.42 Q2286.59 1520.1 2289.73 1516.88 Q2292.88 1513.66 2298.11 1513.66 Q2304.11 1513.66 2307.26 1518.27 Q2310.43 1522.85 2310.43 1531.6 Q2310.43 1539.77 2306.54 1544.66 Q2302.67 1549.52 2296.12 1549.52 Q2294.36 1549.52 2292.56 1549.17 Q2290.75 1548.82 2288.81 1548.13 M2298.11 1533.48 Q2301.26 1533.48 2303.09 1531.32 Q2304.94 1529.17 2304.94 1525.42 Q2304.94 1521.7 2303.09 1519.54 Q2301.26 1517.37 2298.11 1517.37 Q2294.96 1517.37 2293.11 1519.54 Q2291.28 1521.7 2291.28 1525.42 Q2291.28 1529.17 2293.11 1531.32 Q2294.96 1533.48 2298.11 1533.48 Z" fill="#000000" fill-rule="evenodd" fill-opacity="1" /><path clip-path="url(#clip450)" d="M2328.83 1517.37 Q2325.22 1517.37 2323.39 1520.93 Q2321.59 1524.47 2321.59 1531.6 Q2321.59 1538.71 2323.39 1542.27 Q2325.22 1545.82 2328.83 1545.82 Q2332.46 1545.82 2334.27 1542.27 Q2336.1 1538.71 2336.1 1531.6 Q2336.1 1524.47 2334.27 1520.93 Q2332.46 1517.37 2328.83 1517.37 M2328.83 1513.66 Q2334.64 1513.66 2337.7 1518.27 Q2340.77 1522.85 2340.77 1531.6 Q2340.77 1540.33 2337.7 1544.94 Q2334.64 1549.52 2328.83 1549.52 Q2323.02 1549.52 2319.94 1544.94 Q2316.89 1540.33 2316.89 1531.6 Q2316.89 1522.85 2319.94 1518.27 Q2323.02 1513.66 2328.83 1513.66 Z" fill="#000000" fill-rule="evenodd" fill-opacity="1" /><polyline clip-path="url(#clip452)" style="stroke:#000000; stroke-linecap:butt; stroke-linejoin:round; stroke-width:2; stroke-opacity:0.1; fill:none" points="
  172.015,1445.72 2352.76,1445.72 
  "/>
<polyline clip-path="url(#clip452)" style="stroke:#000000; stroke-linecap:butt; stroke-linejoin:round; stroke-width:2; stroke-opacity:0.1; fill:none" points="
  172.015,1101.11 2352.76,1101.11 
  "/>
<polyline clip-path="url(#clip452)" style="stroke:#000000; stroke-linecap:butt; stroke-linejoin:round; stroke-width:2; stroke-opacity:0.1; fill:none" points="
  172.015,756.508 2352.76,756.508 
  "/>
<polyline clip-path="url(#clip452)" style="stroke:#000000; stroke-linecap:butt; stroke-linejoin:round; stroke-width:2; stroke-opacity:0.1; fill:none" points="
  172.015,411.904 2352.76,411.904 
  "/>
<polyline clip-path="url(#clip452)" style="stroke:#000000; stroke-linecap:butt; stroke-linejoin:round; stroke-width:2; stroke-opacity:0.1; fill:none" points="
  172.015,67.3 2352.76,67.3 
  "/>
<polyline clip-path="url(#clip450)" style="stroke:#000000; stroke-linecap:butt; stroke-linejoin:round; stroke-width:4; stroke-opacity:1; fill:none" points="
  172.015,1486.45 172.015,47.2441 
  "/>
<polyline clip-path="url(#clip450)" style="stroke:#000000; stroke-linecap:butt; stroke-linejoin:round; stroke-width:4; stroke-opacity:1; fill:none" points="
  172.015,1445.72 190.912,1445.72 
  "/>
<polyline clip-path="url(#clip450)" style="stroke:#000000; stroke-linecap:butt; stroke-linejoin:round; stroke-width:4; stroke-opacity:1; fill:none" points="
  172.015,1101.11 190.912,1101.11 
  "/>
<polyline clip-path="url(#clip450)" style="stroke:#000000; stroke-linecap:butt; stroke-linejoin:round; stroke-width:4; stroke-opacity:1; fill:none" points="
  172.015,756.508 190.912,756.508 
  "/>
<polyline clip-path="url(#clip450)" style="stroke:#000000; stroke-linecap:butt; stroke-linejoin:round; stroke-width:4; stroke-opacity:1; fill:none" points="
  172.015,411.904 190.912,411.904 
  "/>
<polyline clip-path="url(#clip450)" style="stroke:#000000; stroke-linecap:butt; stroke-linejoin:round; stroke-width:4; stroke-opacity:1; fill:none" points="
  172.015,67.3 190.912,67.3 
  "/>
<path clip-path="url(#clip450)" d="M124.07 1431.51 Q120.459 1431.51 118.631 1435.08 Q116.825 1438.62 116.825 1445.75 Q116.825 1452.86 118.631 1456.42 Q120.459 1459.96 124.07 1459.96 Q127.705 1459.96 129.51 1456.42 Q131.339 1452.86 131.339 1445.75 Q131.339 1438.62 129.51 1435.08 Q127.705 1431.51 124.07 1431.51 M124.07 1427.81 Q129.881 1427.81 132.936 1432.42 Q136.015 1437 136.015 1445.75 Q136.015 1454.48 132.936 1459.08 Q129.881 1463.67 124.07 1463.67 Q118.26 1463.67 115.182 1459.08 Q112.126 1454.48 112.126 1445.75 Q112.126 1437 115.182 1432.42 Q118.26 1427.81 124.07 1427.81 Z" fill="#000000" fill-rule="evenodd" fill-opacity="1" /><path clip-path="url(#clip450)" d="M57.7745 1114.46 L74.0939 1114.46 L74.0939 1118.39 L52.1495 1118.39 L52.1495 1114.46 Q54.8115 1111.7 59.3949 1107.07 Q64.0013 1102.42 65.1819 1101.08 Q67.4272 1098.55 68.3068 1096.82 Q69.2096 1095.06 69.2096 1093.37 Q69.2096 1090.61 67.2652 1088.88 Q65.3439 1087.14 62.2421 1087.14 Q60.043 1087.14 57.5893 1087.91 Q55.1588 1088.67 52.381 1090.22 L52.381 1085.5 Q55.2051 1084.36 57.6588 1083.79 Q60.1124 1083.21 62.1495 1083.21 Q67.5198 1083.21 70.7142 1085.89 Q73.9087 1088.58 73.9087 1093.07 Q73.9087 1095.2 73.0985 1097.12 Q72.3115 1099.02 70.205 1101.61 Q69.6263 1102.28 66.5245 1105.5 Q63.4226 1108.69 57.7745 1114.46 Z" fill="#000000" fill-rule="evenodd" fill-opacity="1" /><path clip-path="url(#clip450)" d="M93.9086 1086.91 Q90.2975 1086.91 88.4688 1090.48 Q86.6632 1094.02 86.6632 1101.15 Q86.6632 1108.25 88.4688 1111.82 Q90.2975 1115.36 93.9086 1115.36 Q97.5428 1115.36 99.3483 1111.82 Q101.177 1108.25 101.177 1101.15 Q101.177 1094.02 99.3483 1090.48 Q97.5428 1086.91 93.9086 1086.91 M93.9086 1083.21 Q99.7187 1083.21 102.774 1087.81 Q105.853 1092.4 105.853 1101.15 Q105.853 1109.87 102.774 1114.48 Q99.7187 1119.06 93.9086 1119.06 Q88.0984 1119.06 85.0197 1114.48 Q81.9642 1109.87 81.9642 1101.15 Q81.9642 1092.4 85.0197 1087.81 Q88.0984 1083.21 93.9086 1083.21 Z" fill="#000000" fill-rule="evenodd" fill-opacity="1" /><path clip-path="url(#clip450)" d="M124.07 1086.91 Q120.459 1086.91 118.631 1090.48 Q116.825 1094.02 116.825 1101.15 Q116.825 1108.25 118.631 1111.82 Q120.459 1115.36 124.07 1115.36 Q127.705 1115.36 129.51 1111.82 Q131.339 1108.25 131.339 1101.15 Q131.339 1094.02 129.51 1090.48 Q127.705 1086.91 124.07 1086.91 M124.07 1083.21 Q129.881 1083.21 132.936 1087.81 Q136.015 1092.4 136.015 1101.15 Q136.015 1109.87 132.936 1114.48 Q129.881 1119.06 124.07 1119.06 Q118.26 1119.06 115.182 1114.48 Q112.126 1109.87 112.126 1101.15 Q112.126 1092.4 115.182 1087.81 Q118.26 1083.21 124.07 1083.21 Z" fill="#000000" fill-rule="evenodd" fill-opacity="1" /><path clip-path="url(#clip450)" d="M66.5939 743.302 L54.7884 761.751 L66.5939 761.751 L66.5939 743.302 M65.367 739.228 L71.2466 739.228 L71.2466 761.751 L76.1772 761.751 L76.1772 765.64 L71.2466 765.64 L71.2466 773.788 L66.5939 773.788 L66.5939 765.64 L50.9921 765.64 L50.9921 761.126 L65.367 739.228 Z" fill="#000000" fill-rule="evenodd" fill-opacity="1" /><path clip-path="url(#clip450)" d="M93.9086 742.307 Q90.2975 742.307 88.4688 745.871 Q86.6632 749.413 86.6632 756.543 Q86.6632 763.649 88.4688 767.214 Q90.2975 770.755 93.9086 770.755 Q97.5428 770.755 99.3483 767.214 Q101.177 763.649 101.177 756.543 Q101.177 749.413 99.3483 745.871 Q97.5428 742.307 93.9086 742.307 M93.9086 738.603 Q99.7187 738.603 102.774 743.209 Q105.853 747.793 105.853 756.543 Q105.853 765.269 102.774 769.876 Q99.7187 774.459 93.9086 774.459 Q88.0984 774.459 85.0197 769.876 Q81.9642 765.269 81.9642 756.543 Q81.9642 747.793 85.0197 743.209 Q88.0984 738.603 93.9086 738.603 Z" fill="#000000" fill-rule="evenodd" fill-opacity="1" /><path clip-path="url(#clip450)" d="M124.07 742.307 Q120.459 742.307 118.631 745.871 Q116.825 749.413 116.825 756.543 Q116.825 763.649 118.631 767.214 Q120.459 770.755 124.07 770.755 Q127.705 770.755 129.51 767.214 Q131.339 763.649 131.339 756.543 Q131.339 749.413 129.51 745.871 Q127.705 742.307 124.07 742.307 M124.07 738.603 Q129.881 738.603 132.936 743.209 Q136.015 747.793 136.015 756.543 Q136.015 765.269 132.936 769.876 Q129.881 774.459 124.07 774.459 Q118.26 774.459 115.182 769.876 Q112.126 765.269 112.126 756.543 Q112.126 747.793 115.182 743.209 Q118.26 738.603 124.07 738.603 Z" fill="#000000" fill-rule="evenodd" fill-opacity="1" /><path clip-path="url(#clip450)" d="M64.3254 410.041 Q61.1773 410.041 59.3254 412.193 Q57.4967 414.346 57.4967 418.096 Q57.4967 421.823 59.3254 423.999 Q61.1773 426.152 64.3254 426.152 Q67.4735 426.152 69.3022 423.999 Q71.1541 421.823 71.1541 418.096 Q71.1541 414.346 69.3022 412.193 Q67.4735 410.041 64.3254 410.041 M73.6077 395.388 L73.6077 399.647 Q71.8485 398.814 70.0429 398.374 Q68.2606 397.934 66.5013 397.934 Q61.8717 397.934 59.418 401.059 Q56.9875 404.184 56.6402 410.503 Q58.006 408.49 60.0662 407.425 Q62.1263 406.337 64.6032 406.337 Q69.8115 406.337 72.8207 409.508 Q75.8531 412.656 75.8531 418.096 Q75.8531 423.42 72.705 426.638 Q69.5568 429.855 64.3254 429.855 Q58.33 429.855 55.1588 425.272 Q51.9875 420.665 51.9875 411.939 Q51.9875 403.744 55.8764 398.883 Q59.7652 393.999 66.3161 393.999 Q68.0754 393.999 69.8578 394.346 Q71.6633 394.693 73.6077 395.388 Z" fill="#000000" fill-rule="evenodd" fill-opacity="1" /><path clip-path="url(#clip450)" d="M93.9086 397.703 Q90.2975 397.703 88.4688 401.267 Q86.6632 404.809 86.6632 411.939 Q86.6632 419.045 88.4688 422.61 Q90.2975 426.152 93.9086 426.152 Q97.5428 426.152 99.3483 422.61 Q101.177 419.045 101.177 411.939 Q101.177 404.809 99.3483 401.267 Q97.5428 397.703 93.9086 397.703 M93.9086 393.999 Q99.7187 393.999 102.774 398.605 Q105.853 403.189 105.853 411.939 Q105.853 420.665 102.774 425.272 Q99.7187 429.855 93.9086 429.855 Q88.0984 429.855 85.0197 425.272 Q81.9642 420.665 81.9642 411.939 Q81.9642 403.189 85.0197 398.605 Q88.0984 393.999 93.9086 393.999 Z" fill="#000000" fill-rule="evenodd" fill-opacity="1" /><path clip-path="url(#clip450)" d="M124.07 397.703 Q120.459 397.703 118.631 401.267 Q116.825 404.809 116.825 411.939 Q116.825 419.045 118.631 422.61 Q120.459 426.152 124.07 426.152 Q127.705 426.152 129.51 422.61 Q131.339 419.045 131.339 411.939 Q131.339 404.809 129.51 401.267 Q127.705 397.703 124.07 397.703 M124.07 393.999 Q129.881 393.999 132.936 398.605 Q136.015 403.189 136.015 411.939 Q136.015 420.665 132.936 425.272 Q129.881 429.855 124.07 429.855 Q118.26 429.855 115.182 425.272 Q112.126 420.665 112.126 411.939 Q112.126 403.189 115.182 398.605 Q118.26 393.999 124.07 393.999 Z" fill="#000000" fill-rule="evenodd" fill-opacity="1" /><path clip-path="url(#clip450)" d="M63.7467 68.1681 Q60.4134 68.1681 58.4921 69.9505 Q56.5939 71.7329 56.5939 74.8579 Q56.5939 77.9829 58.4921 79.7653 Q60.4134 81.5477 63.7467 81.5477 Q67.08 81.5477 69.0013 79.7653 Q70.9226 77.9597 70.9226 74.8579 Q70.9226 71.7329 69.0013 69.9505 Q67.1032 68.1681 63.7467 68.1681 M59.0708 66.1774 Q56.0615 65.4366 54.3717 63.3765 Q52.7051 61.3163 52.7051 58.3533 Q52.7051 54.2098 55.6449 51.8024 Q58.6078 49.395 63.7467 49.395 Q68.9087 49.395 71.8485 51.8024 Q74.7883 54.2098 74.7883 58.3533 Q74.7883 61.3163 73.0985 63.3765 Q71.4318 65.4366 68.4457 66.1774 Q71.8253 66.9644 73.7003 69.2561 Q75.5985 71.5477 75.5985 74.8579 Q75.5985 79.881 72.5198 82.5662 Q69.4642 85.2513 63.7467 85.2513 Q58.0291 85.2513 54.9504 82.5662 Q51.8949 79.881 51.8949 74.8579 Q51.8949 71.5477 53.793 69.2561 Q55.6912 66.9644 59.0708 66.1774 M57.3578 58.7931 Q57.3578 61.4783 59.0245 62.9829 Q60.7143 64.4876 63.7467 64.4876 Q66.7559 64.4876 68.4457 62.9829 Q70.1587 61.4783 70.1587 58.7931 Q70.1587 56.108 68.4457 54.6034 Q66.7559 53.0987 63.7467 53.0987 Q60.7143 53.0987 59.0245 54.6034 Q57.3578 56.108 57.3578 58.7931 Z" fill="#000000" fill-rule="evenodd" fill-opacity="1" /><path clip-path="url(#clip450)" d="M93.9086 53.0987 Q90.2975 53.0987 88.4688 56.6635 Q86.6632 60.2052 86.6632 67.3348 Q86.6632 74.4412 88.4688 78.006 Q90.2975 81.5477 93.9086 81.5477 Q97.5428 81.5477 99.3483 78.006 Q101.177 74.4412 101.177 67.3348 Q101.177 60.2052 99.3483 56.6635 Q97.5428 53.0987 93.9086 53.0987 M93.9086 49.395 Q99.7187 49.395 102.774 54.0015 Q105.853 58.5848 105.853 67.3348 Q105.853 76.0616 102.774 80.668 Q99.7187 85.2513 93.9086 85.2513 Q88.0984 85.2513 85.0197 80.668 Q81.9642 76.0616 81.9642 67.3348 Q81.9642 58.5848 85.0197 54.0015 Q88.0984 49.395 93.9086 49.395 Z" fill="#000000" fill-rule="evenodd" fill-opacity="1" /><path clip-path="url(#clip450)" d="M124.07 53.0987 Q120.459 53.0987 118.631 56.6635 Q116.825 60.2052 116.825 67.3348 Q116.825 74.4412 118.631 78.006 Q120.459 81.5477 124.07 81.5477 Q127.705 81.5477 129.51 78.006 Q131.339 74.4412 131.339 67.3348 Q131.339 60.2052 129.51 56.6635 Q127.705 53.0987 124.07 53.0987 M124.07 49.395 Q129.881 49.395 132.936 54.0015 Q136.015 58.5848 136.015 67.3348 Q136.015 76.0616 132.936 80.668 Q129.881 85.2513 124.07 85.2513 Q118.26 85.2513 115.182 80.668 Q112.126 76.0616 112.126 67.3348 Q112.126 58.5848 115.182 54.0015 Q118.26 49.395 124.07 49.395 Z" fill="#000000" fill-rule="evenodd" fill-opacity="1" /><path clip-path="url(#clip452)" d="
M291.959 1443.99 L291.959 1445.72 L332.394 1445.72 L332.394 1443.99 L291.959 1443.99 L291.959 1443.99  Z
  " fill="#009af9" fill-rule="evenodd" fill-opacity="1"/>
<polyline clip-path="url(#clip452)" style="stroke:#000000; stroke-linecap:butt; stroke-linejoin:round; stroke-width:4; stroke-opacity:1; fill:none" points="
  291.959,1443.99 291.959,1445.72 332.394,1445.72 332.394,1443.99 291.959,1443.99 
  "/>
<path clip-path="url(#clip452)" d="
M332.394 1445.72 L332.394 1445.72 L372.828 1445.72 L372.828 1445.72 L332.394 1445.72 L332.394 1445.72  Z
  " fill="#009af9" fill-rule="evenodd" fill-opacity="1"/>
<polyline clip-path="url(#clip452)" style="stroke:#000000; stroke-linecap:butt; stroke-linejoin:round; stroke-width:4; stroke-opacity:1; fill:none" points="
  332.394,1445.72 332.394,1445.72 372.828,1445.72 332.394,1445.72 
  "/>
<path clip-path="url(#clip452)" d="
M372.828 1435.38 L372.828 1445.72 L413.263 1445.72 L413.263 1435.38 L372.828 1435.38 L372.828 1435.38  Z
  " fill="#009af9" fill-rule="evenodd" fill-opacity="1"/>
<polyline clip-path="url(#clip452)" style="stroke:#000000; stroke-linecap:butt; stroke-linejoin:round; stroke-width:4; stroke-opacity:1; fill:none" points="
  372.828,1435.38 372.828,1445.72 413.263,1445.72 413.263,1435.38 372.828,1435.38 
  "/>
<path clip-path="url(#clip452)" d="
M413.263 1423.32 L413.263 1445.72 L453.697 1445.72 L453.697 1423.32 L413.263 1423.32 L413.263 1423.32  Z
  " fill="#009af9" fill-rule="evenodd" fill-opacity="1"/>
<polyline clip-path="url(#clip452)" style="stroke:#000000; stroke-linecap:butt; stroke-linejoin:round; stroke-width:4; stroke-opacity:1; fill:none" points="
  413.263,1423.32 413.263,1445.72 453.697,1445.72 453.697,1423.32 413.263,1423.32 
  "/>
<path clip-path="url(#clip452)" d="
M453.697 1416.42 L453.697 1445.72 L494.132 1445.72 L494.132 1416.42 L453.697 1416.42 L453.697 1416.42  Z
  " fill="#009af9" fill-rule="evenodd" fill-opacity="1"/>
<polyline clip-path="url(#clip452)" style="stroke:#000000; stroke-linecap:butt; stroke-linejoin:round; stroke-width:4; stroke-opacity:1; fill:none" points="
  453.697,1416.42 453.697,1445.72 494.132,1445.72 494.132,1416.42 453.697,1416.42 
  "/>
<path clip-path="url(#clip452)" d="
M494.132 1375.07 L494.132 1445.72 L534.566 1445.72 L534.566 1375.07 L494.132 1375.07 L494.132 1375.07  Z
  " fill="#009af9" fill-rule="evenodd" fill-opacity="1"/>
<polyline clip-path="url(#clip452)" style="stroke:#000000; stroke-linecap:butt; stroke-linejoin:round; stroke-width:4; stroke-opacity:1; fill:none" points="
  494.132,1375.07 494.132,1445.72 534.566,1445.72 534.566,1375.07 494.132,1375.07 
  "/>
<path clip-path="url(#clip452)" d="
M534.566 1304.43 L534.566 1445.72 L575 1445.72 L575 1304.43 L534.566 1304.43 L534.566 1304.43  Z
  " fill="#009af9" fill-rule="evenodd" fill-opacity="1"/>
<polyline clip-path="url(#clip452)" style="stroke:#000000; stroke-linecap:butt; stroke-linejoin:round; stroke-width:4; stroke-opacity:1; fill:none" points="
  534.566,1304.43 534.566,1445.72 575,1445.72 575,1304.43 534.566,1304.43 
  "/>
<path clip-path="url(#clip452)" d="
M575 1213.11 L575 1445.72 L615.435 1445.72 L615.435 1213.11 L575 1213.11 L575 1213.11  Z
  " fill="#009af9" fill-rule="evenodd" fill-opacity="1"/>
<polyline clip-path="url(#clip452)" style="stroke:#000000; stroke-linecap:butt; stroke-linejoin:round; stroke-width:4; stroke-opacity:1; fill:none" points="
  575,1213.11 575,1445.72 615.435,1445.72 615.435,1213.11 575,1213.11 
  "/>
<path clip-path="url(#clip452)" d="
M615.435 1114.9 L615.435 1445.72 L655.869 1445.72 L655.869 1114.9 L615.435 1114.9 L615.435 1114.9  Z
  " fill="#009af9" fill-rule="evenodd" fill-opacity="1"/>
<polyline clip-path="url(#clip452)" style="stroke:#000000; stroke-linecap:butt; stroke-linejoin:round; stroke-width:4; stroke-opacity:1; fill:none" points="
  615.435,1114.9 615.435,1445.72 655.869,1445.72 655.869,1114.9 615.435,1114.9 
  "/>
<path clip-path="url(#clip452)" d="
M655.869 959.824 L655.869 1445.72 L696.304 1445.72 L696.304 959.824 L655.869 959.824 L655.869 959.824  Z
  " fill="#009af9" fill-rule="evenodd" fill-opacity="1"/>
<polyline clip-path="url(#clip452)" style="stroke:#000000; stroke-linecap:butt; stroke-linejoin:round; stroke-width:4; stroke-opacity:1; fill:none" points="
  655.869,959.824 655.869,1445.72 696.304,1445.72 696.304,959.824 655.869,959.824 
  "/>
<path clip-path="url(#clip452)" d="
M696.304 796.137 L696.304 1445.72 L736.738 1445.72 L736.738 796.137 L696.304 796.137 L696.304 796.137  Z
  " fill="#009af9" fill-rule="evenodd" fill-opacity="1"/>
<polyline clip-path="url(#clip452)" style="stroke:#000000; stroke-linecap:butt; stroke-linejoin:round; stroke-width:4; stroke-opacity:1; fill:none" points="
  696.304,796.137 696.304,1445.72 736.738,1445.72 736.738,796.137 696.304,796.137 
  "/>
<path clip-path="url(#clip452)" d="
M736.738 658.296 L736.738 1445.72 L777.172 1445.72 L777.172 658.296 L736.738 658.296 L736.738 658.296  Z
  " fill="#009af9" fill-rule="evenodd" fill-opacity="1"/>
<polyline clip-path="url(#clip452)" style="stroke:#000000; stroke-linecap:butt; stroke-linejoin:round; stroke-width:4; stroke-opacity:1; fill:none" points="
  736.738,658.296 736.738,1445.72 777.172,1445.72 777.172,658.296 736.738,658.296 
  "/>
<path clip-path="url(#clip452)" d="
M777.172 484.271 L777.172 1445.72 L817.607 1445.72 L817.607 484.271 L777.172 484.271 L777.172 484.271  Z
  " fill="#009af9" fill-rule="evenodd" fill-opacity="1"/>
<polyline clip-path="url(#clip452)" style="stroke:#000000; stroke-linecap:butt; stroke-linejoin:round; stroke-width:4; stroke-opacity:1; fill:none" points="
  777.172,484.271 777.172,1445.72 817.607,1445.72 817.607,484.271 777.172,484.271 
  "/>
<path clip-path="url(#clip452)" d="
M817.607 325.753 L817.607 1445.72 L858.041 1445.72 L858.041 325.753 L817.607 325.753 L817.607 325.753  Z
  " fill="#009af9" fill-rule="evenodd" fill-opacity="1"/>
<polyline clip-path="url(#clip452)" style="stroke:#000000; stroke-linecap:butt; stroke-linejoin:round; stroke-width:4; stroke-opacity:1; fill:none" points="
  817.607,325.753 817.607,1445.72 858.041,1445.72 858.041,325.753 817.607,325.753 
  "/>
<path clip-path="url(#clip452)" d="
M858.041 239.602 L858.041 1445.72 L898.476 1445.72 L898.476 239.602 L858.041 239.602 L858.041 239.602  Z
  " fill="#009af9" fill-rule="evenodd" fill-opacity="1"/>
<polyline clip-path="url(#clip452)" style="stroke:#000000; stroke-linecap:butt; stroke-linejoin:round; stroke-width:4; stroke-opacity:1; fill:none" points="
  858.041,239.602 858.041,1445.72 898.476,1445.72 898.476,239.602 858.041,239.602 
  "/>
<path clip-path="url(#clip452)" d="
M898.476 158.62 L898.476 1445.72 L938.91 1445.72 L938.91 158.62 L898.476 158.62 L898.476 158.62  Z
  " fill="#009af9" fill-rule="evenodd" fill-opacity="1"/>
<polyline clip-path="url(#clip452)" style="stroke:#000000; stroke-linecap:butt; stroke-linejoin:round; stroke-width:4; stroke-opacity:1; fill:none" points="
  898.476,158.62 898.476,1445.72 938.91,1445.72 938.91,158.62 898.476,158.62 
  "/>
<path clip-path="url(#clip452)" d="
M938.91 175.85 L938.91 1445.72 L979.344 1445.72 L979.344 175.85 L938.91 175.85 L938.91 175.85  Z
  " fill="#009af9" fill-rule="evenodd" fill-opacity="1"/>
<polyline clip-path="url(#clip452)" style="stroke:#000000; stroke-linecap:butt; stroke-linejoin:round; stroke-width:4; stroke-opacity:1; fill:none" points="
  938.91,175.85 938.91,1445.72 979.344,1445.72 979.344,175.85 938.91,175.85 
  "/>
<path clip-path="url(#clip452)" d="
M979.344 87.9763 L979.344 1445.72 L1019.78 1445.72 L1019.78 87.9763 L979.344 87.9763 L979.344 87.9763  Z
  " fill="#009af9" fill-rule="evenodd" fill-opacity="1"/>
<polyline clip-path="url(#clip452)" style="stroke:#000000; stroke-linecap:butt; stroke-linejoin:round; stroke-width:4; stroke-opacity:1; fill:none" points="
  979.344,87.9763 979.344,1445.72 1019.78,1445.72 1019.78,87.9763 979.344,87.9763 
  "/>
<path clip-path="url(#clip452)" d="
M1019.78 301.631 L1019.78 1445.72 L1060.21 1445.72 L1060.21 301.631 L1019.78 301.631 L1019.78 301.631  Z
  " fill="#009af9" fill-rule="evenodd" fill-opacity="1"/>
<polyline clip-path="url(#clip452)" style="stroke:#000000; stroke-linecap:butt; stroke-linejoin:round; stroke-width:4; stroke-opacity:1; fill:none" points="
  1019.78,301.631 1019.78,1445.72 1060.21,1445.72 1060.21,301.631 1019.78,301.631 
  "/>
<path clip-path="url(#clip452)" d="
M1060.21 389.505 L1060.21 1445.72 L1100.65 1445.72 L1100.65 389.505 L1060.21 389.505 L1060.21 389.505  Z
  " fill="#009af9" fill-rule="evenodd" fill-opacity="1"/>
<polyline clip-path="url(#clip452)" style="stroke:#000000; stroke-linecap:butt; stroke-linejoin:round; stroke-width:4; stroke-opacity:1; fill:none" points="
  1060.21,389.505 1060.21,1445.72 1100.65,1445.72 1100.65,389.505 1060.21,389.505 
  "/>
<path clip-path="url(#clip452)" d="
M1100.65 529.069 L1100.65 1445.72 L1141.08 1445.72 L1141.08 529.069 L1100.65 529.069 L1100.65 529.069  Z
  " fill="#009af9" fill-rule="evenodd" fill-opacity="1"/>
<polyline clip-path="url(#clip452)" style="stroke:#000000; stroke-linecap:butt; stroke-linejoin:round; stroke-width:4; stroke-opacity:1; fill:none" points="
  1100.65,529.069 1100.65,1445.72 1141.08,1445.72 1141.08,529.069 1100.65,529.069 
  "/>
<path clip-path="url(#clip452)" d="
M1141.08 549.746 L1141.08 1445.72 L1181.52 1445.72 L1181.52 549.746 L1141.08 549.746 L1141.08 549.746  Z
  " fill="#009af9" fill-rule="evenodd" fill-opacity="1"/>
<polyline clip-path="url(#clip452)" style="stroke:#000000; stroke-linecap:butt; stroke-linejoin:round; stroke-width:4; stroke-opacity:1; fill:none" points="
  1141.08,549.746 1141.08,1445.72 1181.52,1445.72 1181.52,549.746 1141.08,549.746 
  "/>
<path clip-path="url(#clip452)" d="
M1181.52 803.029 L1181.52 1445.72 L1221.95 1445.72 L1221.95 803.029 L1181.52 803.029 L1181.52 803.029  Z
  " fill="#009af9" fill-rule="evenodd" fill-opacity="1"/>
<polyline clip-path="url(#clip452)" style="stroke:#000000; stroke-linecap:butt; stroke-linejoin:round; stroke-width:4; stroke-opacity:1; fill:none" points="
  1181.52,803.029 1181.52,1445.72 1221.95,1445.72 1221.95,803.029 1181.52,803.029 
  "/>
<path clip-path="url(#clip452)" d="
M1221.95 908.134 L1221.95 1445.72 L1262.39 1445.72 L1262.39 908.134 L1221.95 908.134 L1221.95 908.134  Z
  " fill="#009af9" fill-rule="evenodd" fill-opacity="1"/>
<polyline clip-path="url(#clip452)" style="stroke:#000000; stroke-linecap:butt; stroke-linejoin:round; stroke-width:4; stroke-opacity:1; fill:none" points="
  1221.95,908.134 1221.95,1445.72 1262.39,1445.72 1262.39,908.134 1221.95,908.134 
  "/>
<path clip-path="url(#clip452)" d="
M1262.39 983.946 L1262.39 1445.72 L1302.82 1445.72 L1302.82 983.946 L1262.39 983.946 L1262.39 983.946  Z
  " fill="#009af9" fill-rule="evenodd" fill-opacity="1"/>
<polyline clip-path="url(#clip452)" style="stroke:#000000; stroke-linecap:butt; stroke-linejoin:round; stroke-width:4; stroke-opacity:1; fill:none" points="
  1262.39,983.946 1262.39,1445.72 1302.82,1445.72 1302.82,983.946 1262.39,983.946 
  "/>
<path clip-path="url(#clip452)" d="
M1302.82 1076.99 L1302.82 1445.72 L1343.25 1445.72 L1343.25 1076.99 L1302.82 1076.99 L1302.82 1076.99  Z
  " fill="#009af9" fill-rule="evenodd" fill-opacity="1"/>
<polyline clip-path="url(#clip452)" style="stroke:#000000; stroke-linecap:butt; stroke-linejoin:round; stroke-width:4; stroke-opacity:1; fill:none" points="
  1302.82,1076.99 1302.82,1445.72 1343.25,1445.72 1343.25,1076.99 1302.82,1076.99 
  "/>
<path clip-path="url(#clip452)" d="
M1343.25 1170.03 L1343.25 1445.72 L1383.69 1445.72 L1383.69 1170.03 L1343.25 1170.03 L1343.25 1170.03  Z
  " fill="#009af9" fill-rule="evenodd" fill-opacity="1"/>
<polyline clip-path="url(#clip452)" style="stroke:#000000; stroke-linecap:butt; stroke-linejoin:round; stroke-width:4; stroke-opacity:1; fill:none" points="
  1343.25,1170.03 1343.25,1445.72 1383.69,1445.72 1383.69,1170.03 1343.25,1170.03 
  "/>
<path clip-path="url(#clip452)" d="
M1383.69 1199.32 L1383.69 1445.72 L1424.12 1445.72 L1424.12 1199.32 L1383.69 1199.32 L1383.69 1199.32  Z
  " fill="#009af9" fill-rule="evenodd" fill-opacity="1"/>
<polyline clip-path="url(#clip452)" style="stroke:#000000; stroke-linecap:butt; stroke-linejoin:round; stroke-width:4; stroke-opacity:1; fill:none" points="
  1383.69,1199.32 1383.69,1445.72 1424.12,1445.72 1424.12,1199.32 1383.69,1199.32 
  "/>
<path clip-path="url(#clip452)" d="
M1424.12 1256.18 L1424.12 1445.72 L1464.56 1445.72 L1464.56 1256.18 L1424.12 1256.18 L1424.12 1256.18  Z
  " fill="#009af9" fill-rule="evenodd" fill-opacity="1"/>
<polyline clip-path="url(#clip452)" style="stroke:#000000; stroke-linecap:butt; stroke-linejoin:round; stroke-width:4; stroke-opacity:1; fill:none" points="
  1424.12,1256.18 1424.12,1445.72 1464.56,1445.72 1464.56,1256.18 1424.12,1256.18 
  "/>
<path clip-path="url(#clip452)" d="
M1464.56 1306.15 L1464.56 1445.72 L1504.99 1445.72 L1504.99 1306.15 L1464.56 1306.15 L1464.56 1306.15  Z
  " fill="#009af9" fill-rule="evenodd" fill-opacity="1"/>
<polyline clip-path="url(#clip452)" style="stroke:#000000; stroke-linecap:butt; stroke-linejoin:round; stroke-width:4; stroke-opacity:1; fill:none" points="
  1464.56,1306.15 1464.56,1445.72 1504.99,1445.72 1504.99,1306.15 1464.56,1306.15 
  "/>
<path clip-path="url(#clip452)" d="
M1504.99 1373.35 L1504.99 1445.72 L1545.43 1445.72 L1545.43 1373.35 L1504.99 1373.35 L1504.99 1373.35  Z
  " fill="#009af9" fill-rule="evenodd" fill-opacity="1"/>
<polyline clip-path="url(#clip452)" style="stroke:#000000; stroke-linecap:butt; stroke-linejoin:round; stroke-width:4; stroke-opacity:1; fill:none" points="
  1504.99,1373.35 1504.99,1445.72 1545.43,1445.72 1545.43,1373.35 1504.99,1373.35 
  "/>
<path clip-path="url(#clip452)" d="
M1545.43 1364.73 L1545.43 1445.72 L1585.86 1445.72 L1585.86 1364.73 L1545.43 1364.73 L1545.43 1364.73  Z
  " fill="#009af9" fill-rule="evenodd" fill-opacity="1"/>
<polyline clip-path="url(#clip452)" style="stroke:#000000; stroke-linecap:butt; stroke-linejoin:round; stroke-width:4; stroke-opacity:1; fill:none" points="
  1545.43,1364.73 1545.43,1445.72 1585.86,1445.72 1585.86,1364.73 1545.43,1364.73 
  "/>
<path clip-path="url(#clip452)" d="
M1585.86 1380.24 L1585.86 1445.72 L1626.3 1445.72 L1626.3 1380.24 L1585.86 1380.24 L1585.86 1380.24  Z
  " fill="#009af9" fill-rule="evenodd" fill-opacity="1"/>
<polyline clip-path="url(#clip452)" style="stroke:#000000; stroke-linecap:butt; stroke-linejoin:round; stroke-width:4; stroke-opacity:1; fill:none" points="
  1585.86,1380.24 1585.86,1445.72 1626.3,1445.72 1626.3,1380.24 1585.86,1380.24 
  "/>
<path clip-path="url(#clip452)" d="
M1626.3 1402.64 L1626.3 1445.72 L1666.73 1445.72 L1666.73 1402.64 L1626.3 1402.64 L1626.3 1402.64  Z
  " fill="#009af9" fill-rule="evenodd" fill-opacity="1"/>
<polyline clip-path="url(#clip452)" style="stroke:#000000; stroke-linecap:butt; stroke-linejoin:round; stroke-width:4; stroke-opacity:1; fill:none" points="
  1626.3,1402.64 1626.3,1445.72 1666.73,1445.72 1666.73,1402.64 1626.3,1402.64 
  "/>
<path clip-path="url(#clip452)" d="
M1666.73 1416.42 L1666.73 1445.72 L1707.16 1445.72 L1707.16 1416.42 L1666.73 1416.42 L1666.73 1416.42  Z
  " fill="#009af9" fill-rule="evenodd" fill-opacity="1"/>
<polyline clip-path="url(#clip452)" style="stroke:#000000; stroke-linecap:butt; stroke-linejoin:round; stroke-width:4; stroke-opacity:1; fill:none" points="
  1666.73,1416.42 1666.73,1445.72 1707.16,1445.72 1707.16,1416.42 1666.73,1416.42 
  "/>
<path clip-path="url(#clip452)" d="
M1707.16 1421.59 L1707.16 1445.72 L1747.6 1445.72 L1747.6 1421.59 L1707.16 1421.59 L1707.16 1421.59  Z
  " fill="#009af9" fill-rule="evenodd" fill-opacity="1"/>
<polyline clip-path="url(#clip452)" style="stroke:#000000; stroke-linecap:butt; stroke-linejoin:round; stroke-width:4; stroke-opacity:1; fill:none" points="
  1707.16,1421.59 1707.16,1445.72 1747.6,1445.72 1747.6,1421.59 1707.16,1421.59 
  "/>
<path clip-path="url(#clip452)" d="
M1747.6 1421.59 L1747.6 1445.72 L1788.03 1445.72 L1788.03 1421.59 L1747.6 1421.59 L1747.6 1421.59  Z
  " fill="#009af9" fill-rule="evenodd" fill-opacity="1"/>
<polyline clip-path="url(#clip452)" style="stroke:#000000; stroke-linecap:butt; stroke-linejoin:round; stroke-width:4; stroke-opacity:1; fill:none" points="
  1747.6,1421.59 1747.6,1445.72 1788.03,1445.72 1788.03,1421.59 1747.6,1421.59 
  "/>
<path clip-path="url(#clip452)" d="
M1788.03 1437.1 L1788.03 1445.72 L1828.47 1445.72 L1828.47 1437.1 L1788.03 1437.1 L1788.03 1437.1  Z
  " fill="#009af9" fill-rule="evenodd" fill-opacity="1"/>
<polyline clip-path="url(#clip452)" style="stroke:#000000; stroke-linecap:butt; stroke-linejoin:round; stroke-width:4; stroke-opacity:1; fill:none" points="
  1788.03,1437.1 1788.03,1445.72 1828.47,1445.72 1828.47,1437.1 1788.03,1437.1 
  "/>
<path clip-path="url(#clip452)" d="
M1828.47 1430.21 L1828.47 1445.72 L1868.9 1445.72 L1868.9 1430.21 L1828.47 1430.21 L1828.47 1430.21  Z
  " fill="#009af9" fill-rule="evenodd" fill-opacity="1"/>
<polyline clip-path="url(#clip452)" style="stroke:#000000; stroke-linecap:butt; stroke-linejoin:round; stroke-width:4; stroke-opacity:1; fill:none" points="
  1828.47,1430.21 1828.47,1445.72 1868.9,1445.72 1868.9,1430.21 1828.47,1430.21 
  "/>
<path clip-path="url(#clip452)" d="
M1868.9 1437.1 L1868.9 1445.72 L1909.34 1445.72 L1909.34 1437.1 L1868.9 1437.1 L1868.9 1437.1  Z
  " fill="#009af9" fill-rule="evenodd" fill-opacity="1"/>
<polyline clip-path="url(#clip452)" style="stroke:#000000; stroke-linecap:butt; stroke-linejoin:round; stroke-width:4; stroke-opacity:1; fill:none" points="
  1868.9,1437.1 1868.9,1445.72 1909.34,1445.72 1909.34,1437.1 1868.9,1437.1 
  "/>
<path clip-path="url(#clip452)" d="
M1909.34 1437.1 L1909.34 1445.72 L1949.77 1445.72 L1949.77 1437.1 L1909.34 1437.1 L1909.34 1437.1  Z
  " fill="#009af9" fill-rule="evenodd" fill-opacity="1"/>
<polyline clip-path="url(#clip452)" style="stroke:#000000; stroke-linecap:butt; stroke-linejoin:round; stroke-width:4; stroke-opacity:1; fill:none" points="
  1909.34,1437.1 1909.34,1445.72 1949.77,1445.72 1949.77,1437.1 1909.34,1437.1 
  "/>
<path clip-path="url(#clip452)" d="
M1949.77 1440.55 L1949.77 1445.72 L1990.2 1445.72 L1990.2 1440.55 L1949.77 1440.55 L1949.77 1440.55  Z
  " fill="#009af9" fill-rule="evenodd" fill-opacity="1"/>
<polyline clip-path="url(#clip452)" style="stroke:#000000; stroke-linecap:butt; stroke-linejoin:round; stroke-width:4; stroke-opacity:1; fill:none" points="
  1949.77,1440.55 1949.77,1445.72 1990.2,1445.72 1990.2,1440.55 1949.77,1440.55 
  "/>
<path clip-path="url(#clip452)" d="
M1990.2 1443.99 L1990.2 1445.72 L2030.64 1445.72 L2030.64 1443.99 L1990.2 1443.99 L1990.2 1443.99  Z
  " fill="#009af9" fill-rule="evenodd" fill-opacity="1"/>
<polyline clip-path="url(#clip452)" style="stroke:#000000; stroke-linecap:butt; stroke-linejoin:round; stroke-width:4; stroke-opacity:1; fill:none" points="
  1990.2,1443.99 1990.2,1445.72 2030.64,1445.72 2030.64,1443.99 1990.2,1443.99 
  "/>
<path clip-path="url(#clip452)" d="
M2030.64 1443.99 L2030.64 1445.72 L2071.07 1445.72 L2071.07 1443.99 L2030.64 1443.99 L2030.64 1443.99  Z
  " fill="#009af9" fill-rule="evenodd" fill-opacity="1"/>
<polyline clip-path="url(#clip452)" style="stroke:#000000; stroke-linecap:butt; stroke-linejoin:round; stroke-width:4; stroke-opacity:1; fill:none" points="
  2030.64,1443.99 2030.64,1445.72 2071.07,1445.72 2071.07,1443.99 2030.64,1443.99 
  "/>
<path clip-path="url(#clip452)" d="
M2071.07 1445.72 L2071.07 1445.72 L2111.51 1445.72 L2111.51 1445.72 L2071.07 1445.72 L2071.07 1445.72  Z
  " fill="#009af9" fill-rule="evenodd" fill-opacity="1"/>
<polyline clip-path="url(#clip452)" style="stroke:#000000; stroke-linecap:butt; stroke-linejoin:round; stroke-width:4; stroke-opacity:1; fill:none" points="
  2071.07,1445.72 2071.07,1445.72 2111.51,1445.72 2071.07,1445.72 
  "/>
<path clip-path="url(#clip452)" d="
M2111.51 1445.72 L2111.51 1445.72 L2151.94 1445.72 L2151.94 1445.72 L2111.51 1445.72 L2111.51 1445.72  Z
  " fill="#009af9" fill-rule="evenodd" fill-opacity="1"/>
<polyline clip-path="url(#clip452)" style="stroke:#000000; stroke-linecap:butt; stroke-linejoin:round; stroke-width:4; stroke-opacity:1; fill:none" points="
  2111.51,1445.72 2111.51,1445.72 2151.94,1445.72 2111.51,1445.72 
  "/>
<path clip-path="url(#clip452)" d="
M2151.94 1445.72 L2151.94 1445.72 L2192.38 1445.72 L2192.38 1445.72 L2151.94 1445.72 L2151.94 1445.72  Z
  " fill="#009af9" fill-rule="evenodd" fill-opacity="1"/>
<polyline clip-path="url(#clip452)" style="stroke:#000000; stroke-linecap:butt; stroke-linejoin:round; stroke-width:4; stroke-opacity:1; fill:none" points="
  2151.94,1445.72 2151.94,1445.72 2192.38,1445.72 2151.94,1445.72 
  "/>
<path clip-path="url(#clip452)" d="
M2192.38 1443.99 L2192.38 1445.72 L2232.81 1445.72 L2232.81 1443.99 L2192.38 1443.99 L2192.38 1443.99  Z
  " fill="#009af9" fill-rule="evenodd" fill-opacity="1"/>
<polyline clip-path="url(#clip452)" style="stroke:#000000; stroke-linecap:butt; stroke-linejoin:round; stroke-width:4; stroke-opacity:1; fill:none" points="
  2192.38,1443.99 2192.38,1445.72 2232.81,1445.72 2232.81,1443.99 2192.38,1443.99 
  "/>
<circle clip-path="url(#clip452)" style="fill:#009af9; stroke:none; fill-opacity:0" cx="312.177" cy="1443.99" r="2"/>
<circle clip-path="url(#clip452)" style="fill:#009af9; stroke:none; fill-opacity:0" cx="352.611" cy="1445.72" r="2"/>
<circle clip-path="url(#clip452)" style="fill:#009af9; stroke:none; fill-opacity:0" cx="393.045" cy="1435.38" r="2"/>
<circle clip-path="url(#clip452)" style="fill:#009af9; stroke:none; fill-opacity:0" cx="433.48" cy="1423.32" r="2"/>
<circle clip-path="url(#clip452)" style="fill:#009af9; stroke:none; fill-opacity:0" cx="473.914" cy="1416.42" r="2"/>
<circle clip-path="url(#clip452)" style="fill:#009af9; stroke:none; fill-opacity:0" cx="514.349" cy="1375.07" r="2"/>
<circle clip-path="url(#clip452)" style="fill:#009af9; stroke:none; fill-opacity:0" cx="554.783" cy="1304.43" r="2"/>
<circle clip-path="url(#clip452)" style="fill:#009af9; stroke:none; fill-opacity:0" cx="595.218" cy="1213.11" r="2"/>
<circle clip-path="url(#clip452)" style="fill:#009af9; stroke:none; fill-opacity:0" cx="635.652" cy="1114.9" r="2"/>
<circle clip-path="url(#clip452)" style="fill:#009af9; stroke:none; fill-opacity:0" cx="676.086" cy="959.824" r="2"/>
<circle clip-path="url(#clip452)" style="fill:#009af9; stroke:none; fill-opacity:0" cx="716.521" cy="796.137" r="2"/>
<circle clip-path="url(#clip452)" style="fill:#009af9; stroke:none; fill-opacity:0" cx="756.955" cy="658.296" r="2"/>
<circle clip-path="url(#clip452)" style="fill:#009af9; stroke:none; fill-opacity:0" cx="797.39" cy="484.271" r="2"/>
<circle clip-path="url(#clip452)" style="fill:#009af9; stroke:none; fill-opacity:0" cx="837.824" cy="325.753" r="2"/>
<circle clip-path="url(#clip452)" style="fill:#009af9; stroke:none; fill-opacity:0" cx="878.258" cy="239.602" r="2"/>
<circle clip-path="url(#clip452)" style="fill:#009af9; stroke:none; fill-opacity:0" cx="918.693" cy="158.62" r="2"/>
<circle clip-path="url(#clip452)" style="fill:#009af9; stroke:none; fill-opacity:0" cx="959.127" cy="175.85" r="2"/>
<circle clip-path="url(#clip452)" style="fill:#009af9; stroke:none; fill-opacity:0" cx="999.562" cy="87.9763" r="2"/>
<circle clip-path="url(#clip452)" style="fill:#009af9; stroke:none; fill-opacity:0" cx="1040" cy="301.631" r="2"/>
<circle clip-path="url(#clip452)" style="fill:#009af9; stroke:none; fill-opacity:0" cx="1080.43" cy="389.505" r="2"/>
<circle clip-path="url(#clip452)" style="fill:#009af9; stroke:none; fill-opacity:0" cx="1120.86" cy="529.069" r="2"/>
<circle clip-path="url(#clip452)" style="fill:#009af9; stroke:none; fill-opacity:0" cx="1161.3" cy="549.746" r="2"/>
<circle clip-path="url(#clip452)" style="fill:#009af9; stroke:none; fill-opacity:0" cx="1201.73" cy="803.029" r="2"/>
<circle clip-path="url(#clip452)" style="fill:#009af9; stroke:none; fill-opacity:0" cx="1242.17" cy="908.134" r="2"/>
<circle clip-path="url(#clip452)" style="fill:#009af9; stroke:none; fill-opacity:0" cx="1282.6" cy="983.946" r="2"/>
<circle clip-path="url(#clip452)" style="fill:#009af9; stroke:none; fill-opacity:0" cx="1323.04" cy="1076.99" r="2"/>
<circle clip-path="url(#clip452)" style="fill:#009af9; stroke:none; fill-opacity:0" cx="1363.47" cy="1170.03" r="2"/>
<circle clip-path="url(#clip452)" style="fill:#009af9; stroke:none; fill-opacity:0" cx="1403.91" cy="1199.32" r="2"/>
<circle clip-path="url(#clip452)" style="fill:#009af9; stroke:none; fill-opacity:0" cx="1444.34" cy="1256.18" r="2"/>
<circle clip-path="url(#clip452)" style="fill:#009af9; stroke:none; fill-opacity:0" cx="1484.77" cy="1306.15" r="2"/>
<circle clip-path="url(#clip452)" style="fill:#009af9; stroke:none; fill-opacity:0" cx="1525.21" cy="1373.35" r="2"/>
<circle clip-path="url(#clip452)" style="fill:#009af9; stroke:none; fill-opacity:0" cx="1565.64" cy="1364.73" r="2"/>
<circle clip-path="url(#clip452)" style="fill:#009af9; stroke:none; fill-opacity:0" cx="1606.08" cy="1380.24" r="2"/>
<circle clip-path="url(#clip452)" style="fill:#009af9; stroke:none; fill-opacity:0" cx="1646.51" cy="1402.64" r="2"/>
<circle clip-path="url(#clip452)" style="fill:#009af9; stroke:none; fill-opacity:0" cx="1686.95" cy="1416.42" r="2"/>
<circle clip-path="url(#clip452)" style="fill:#009af9; stroke:none; fill-opacity:0" cx="1727.38" cy="1421.59" r="2"/>
<circle clip-path="url(#clip452)" style="fill:#009af9; stroke:none; fill-opacity:0" cx="1767.82" cy="1421.59" r="2"/>
<circle clip-path="url(#clip452)" style="fill:#009af9; stroke:none; fill-opacity:0" cx="1808.25" cy="1437.1" r="2"/>
<circle clip-path="url(#clip452)" style="fill:#009af9; stroke:none; fill-opacity:0" cx="1848.68" cy="1430.21" r="2"/>
<circle clip-path="url(#clip452)" style="fill:#009af9; stroke:none; fill-opacity:0" cx="1889.12" cy="1437.1" r="2"/>
<circle clip-path="url(#clip452)" style="fill:#009af9; stroke:none; fill-opacity:0" cx="1929.55" cy="1437.1" r="2"/>
<circle clip-path="url(#clip452)" style="fill:#009af9; stroke:none; fill-opacity:0" cx="1969.99" cy="1440.55" r="2"/>
<circle clip-path="url(#clip452)" style="fill:#009af9; stroke:none; fill-opacity:0" cx="2010.42" cy="1443.99" r="2"/>
<circle clip-path="url(#clip452)" style="fill:#009af9; stroke:none; fill-opacity:0" cx="2050.86" cy="1443.99" r="2"/>
<circle clip-path="url(#clip452)" style="fill:#009af9; stroke:none; fill-opacity:0" cx="2091.29" cy="1445.72" r="2"/>
<circle clip-path="url(#clip452)" style="fill:#009af9; stroke:none; fill-opacity:0" cx="2131.73" cy="1445.72" r="2"/>
<circle clip-path="url(#clip452)" style="fill:#009af9; stroke:none; fill-opacity:0" cx="2172.16" cy="1445.72" r="2"/>
<circle clip-path="url(#clip452)" style="fill:#009af9; stroke:none; fill-opacity:0" cx="2212.59" cy="1443.99" r="2"/>
<path clip-path="url(#clip450)" d="
M1985.33 198.898 L2280.06 198.898 L2280.06 95.2176 L1985.33 95.2176  Z
  " fill="#ffffff" fill-rule="evenodd" fill-opacity="1"/>
<polyline clip-path="url(#clip450)" style="stroke:#000000; stroke-linecap:butt; stroke-linejoin:round; stroke-width:4; stroke-opacity:1; fill:none" points="
  1985.33,198.898 2280.06,198.898 2280.06,95.2176 1985.33,95.2176 1985.33,198.898 
  "/>
<path clip-path="url(#clip450)" d="
M2009.56 167.794 L2154.94 167.794 L2154.94 126.322 L2009.56 126.322 L2009.56 167.794  Z
  " fill="#009af9" fill-rule="evenodd" fill-opacity="1"/>
<polyline clip-path="url(#clip450)" style="stroke:#000000; stroke-linecap:butt; stroke-linejoin:round; stroke-width:4; stroke-opacity:1; fill:none" points="
  2009.56,167.794 2154.94,167.794 2154.94,126.322 2009.56,126.322 2009.56,167.794 
  "/>
<path clip-path="url(#clip450)" d="M2193.02 166.745 Q2191.21 171.375 2189.5 172.787 Q2187.78 174.199 2184.91 174.199 L2181.51 174.199 L2181.51 170.634 L2184.01 170.634 Q2185.77 170.634 2186.74 169.8 Q2187.71 168.967 2188.9 165.865 L2189.66 163.921 L2179.17 138.412 L2183.69 138.412 L2191.79 158.689 L2199.89 138.412 L2204.4 138.412 L2193.02 166.745 Z" fill="#000000" fill-rule="evenodd" fill-opacity="1" /><path clip-path="url(#clip450)" d="M2211.7 160.402 L2219.34 160.402 L2219.34 134.037 L2211.03 135.703 L2211.03 131.444 L2219.29 129.778 L2223.96 129.778 L2223.96 160.402 L2231.6 160.402 L2231.6 164.338 L2211.7 164.338 L2211.7 160.402 Z" fill="#000000" fill-rule="evenodd" fill-opacity="1" /></svg>
