<?xml version="1.0" encoding="utf-8"?>
<svg xmlns="http://www.w3.org/2000/svg" xmlns:xlink="http://www.w3.org/1999/xlink" width="600" height="400" viewBox="0 0 2400 1600">
<defs>
  <clipPath id="clip290">
    <rect x="0" y="0" width="2400" height="1600"/>
  </clipPath>
</defs>
<path clip-path="url(#clip290)" d="
M0 1600 L2400 1600 L2400 0 L0 0  Z
  " fill="#ffffff" fill-rule="evenodd" fill-opacity="1"/>
<defs>
  <clipPath id="clip291">
    <rect x="480" y="0" width="1681" height="1600"/>
  </clipPath>
</defs>
<path clip-path="url(#clip290)" d="
M172.015 1486.45 L2352.76 1486.45 L2352.76 47.2441 L172.015 47.2441  Z
  " fill="#ffffff" fill-rule="evenodd" fill-opacity="1"/>
<defs>
  <clipPath id="clip292">
    <rect x="172" y="47" width="2182" height="1440"/>
  </clipPath>
</defs>
<polyline clip-path="url(#clip292)" style="stroke:#000000; stroke-linecap:butt; stroke-linejoin:round; stroke-width:2; stroke-opacity:0.1; fill:none" points="
  494.132,1486.45 494.132,47.2441 
  "/>
<polyline clip-path="url(#clip292)" style="stroke:#000000; stroke-linecap:butt; stroke-linejoin:round; stroke-width:2; stroke-opacity:0.1; fill:none" points="
  898.476,1486.45 898.476,47.2441 
  "/>
<polyline clip-path="url(#clip292)" style="stroke:#000000; stroke-linecap:butt; stroke-linejoin:round; stroke-width:2; stroke-opacity:0.1; fill:none" points="
  1302.82,1486.45 1302.82,47.2441 
  "/>
<polyline clip-path="url(#clip292)" style="stroke:#000000; stroke-linecap:butt; stroke-linejoin:round; stroke-width:2; stroke-opacity:0.1; fill:none" points="
  1707.16,1486.45 1707.16,47.2441 
  "/>
<polyline clip-path="url(#clip292)" style="stroke:#000000; stroke-linecap:butt; stroke-linejoin:round; stroke-width:2; stroke-opacity:0.1; fill:none" points="
  2111.51,1486.45 2111.51,47.2441 
  "/>
<polyline clip-path="url(#clip290)" style="stroke:#000000; stroke-linecap:butt; stroke-linejoin:round; stroke-width:4; stroke-opacity:1; fill:none" points="
  172.015,1486.45 2352.76,1486.45 
  "/>
<polyline clip-path="url(#clip290)" style="stroke:#000000; stroke-linecap:butt; stroke-linejoin:round; stroke-width:4; stroke-opacity:1; fill:none" points="
  494.132,1486.45 494.132,1467.55 
  "/>
<polyline clip-path="url(#clip290)" style="stroke:#000000; stroke-linecap:butt; stroke-linejoin:round; stroke-width:4; stroke-opacity:1; fill:none" points="
  898.476,1486.45 898.476,1467.55 
  "/>
<polyline clip-path="url(#clip290)" style="stroke:#000000; stroke-linecap:butt; stroke-linejoin:round; stroke-width:4; stroke-opacity:1; fill:none" points="
  1302.82,1486.45 1302.82,1467.55 
  "/>
<polyline clip-path="url(#clip290)" style="stroke:#000000; stroke-linecap:butt; stroke-linejoin:round; stroke-width:4; stroke-opacity:1; fill:none" points="
  1707.16,1486.45 1707.16,1467.55 
  "/>
<polyline clip-path="url(#clip290)" style="stroke:#000000; stroke-linecap:butt; stroke-linejoin:round; stroke-width:4; stroke-opacity:1; fill:none" points="
  2111.51,1486.45 2111.51,1467.55 
  "/>
<path clip-path="url(#clip290)" d="M418.032 1532.02 L447.708 1532.02 L447.708 1535.95 L418.032 1535.95 L418.032 1532.02 Z" fill="#000000" fill-rule="evenodd" fill-opacity="1" /><path clip-path="url(#clip290)" d="M470.648 1518.36 L458.842 1536.81 L470.648 1536.81 L470.648 1518.36 M469.421 1514.29 L475.301 1514.29 L475.301 1536.81 L480.231 1536.81 L480.231 1540.7 L475.301 1540.7 L475.301 1548.85 L470.648 1548.85 L470.648 1540.7 L455.046 1540.7 L455.046 1536.19 L469.421 1514.29 Z" fill="#000000" fill-rule="evenodd" fill-opacity="1" /><path clip-path="url(#clip290)" d="M497.963 1517.37 Q494.351 1517.37 492.523 1520.93 Q490.717 1524.47 490.717 1531.6 Q490.717 1538.71 492.523 1542.27 Q494.351 1545.82 497.963 1545.82 Q501.597 1545.82 503.402 1542.27 Q505.231 1538.71 505.231 1531.6 Q505.231 1524.47 503.402 1520.93 Q501.597 1517.37 497.963 1517.37 M497.963 1513.66 Q503.773 1513.66 506.828 1518.27 Q509.907 1522.85 509.907 1531.6 Q509.907 1540.33 506.828 1544.94 Q503.773 1549.52 497.963 1549.52 Q492.152 1549.52 489.074 1544.94 Q486.018 1540.33 486.018 1531.6 Q486.018 1522.85 489.074 1518.27 Q492.152 1513.66 497.963 1513.66 Z" fill="#000000" fill-rule="evenodd" fill-opacity="1" /><path clip-path="url(#clip290)" d="M528.124 1517.37 Q524.513 1517.37 522.685 1520.93 Q520.879 1524.47 520.879 1531.6 Q520.879 1538.71 522.685 1542.27 Q524.513 1545.82 528.124 1545.82 Q531.759 1545.82 533.564 1542.27 Q535.393 1538.71 535.393 1531.6 Q535.393 1524.47 533.564 1520.93 Q531.759 1517.37 528.124 1517.37 M528.124 1513.66 Q533.935 1513.66 536.99 1518.27 Q540.069 1522.85 540.069 1531.6 Q540.069 1540.33 536.99 1544.94 Q533.935 1549.52 528.124 1549.52 Q522.314 1549.52 519.236 1544.94 Q516.18 1540.33 516.18 1531.6 Q516.18 1522.85 519.236 1518.27 Q522.314 1513.66 528.124 1513.66 Z" fill="#000000" fill-rule="evenodd" fill-opacity="1" /><path clip-path="url(#clip290)" d="M558.286 1517.37 Q554.675 1517.37 552.846 1520.93 Q551.041 1524.47 551.041 1531.6 Q551.041 1538.71 552.846 1542.27 Q554.675 1545.82 558.286 1545.82 Q561.921 1545.82 563.726 1542.27 Q565.555 1538.71 565.555 1531.6 Q565.555 1524.47 563.726 1520.93 Q561.921 1517.37 558.286 1517.37 M558.286 1513.66 Q564.096 1513.66 567.152 1518.27 Q570.231 1522.85 570.231 1531.6 Q570.231 1540.33 567.152 1544.94 Q564.096 1549.52 558.286 1549.52 Q552.476 1549.52 549.397 1544.94 Q546.342 1540.33 546.342 1531.6 Q546.342 1522.85 549.397 1518.27 Q552.476 1513.66 558.286 1513.66 Z" fill="#000000" fill-rule="evenodd" fill-opacity="1" /><path clip-path="url(#clip290)" d="M822.377 1532.02 L852.052 1532.02 L852.052 1535.95 L822.377 1535.95 L822.377 1532.02 Z" fill="#000000" fill-rule="evenodd" fill-opacity="1" /><path clip-path="url(#clip290)" d="M876.311 1530.21 Q879.668 1530.93 881.543 1533.2 Q883.441 1535.47 883.441 1538.8 Q883.441 1543.92 879.923 1546.72 Q876.404 1549.52 869.923 1549.52 Q867.747 1549.52 865.432 1549.08 Q863.14 1548.66 860.686 1547.81 L860.686 1543.29 Q862.631 1544.43 864.946 1545.01 Q867.261 1545.58 869.784 1545.58 Q874.182 1545.58 876.473 1543.85 Q878.788 1542.11 878.788 1538.8 Q878.788 1535.75 876.635 1534.03 Q874.506 1532.3 870.686 1532.3 L866.659 1532.3 L866.659 1528.45 L870.872 1528.45 Q874.321 1528.45 876.149 1527.09 Q877.978 1525.7 877.978 1523.11 Q877.978 1520.45 876.08 1519.03 Q874.205 1517.6 870.686 1517.6 Q868.765 1517.6 866.566 1518.01 Q864.367 1518.43 861.728 1519.31 L861.728 1515.14 Q864.39 1514.4 866.705 1514.03 Q869.043 1513.66 871.103 1513.66 Q876.427 1513.66 879.529 1516.09 Q882.631 1518.5 882.631 1522.62 Q882.631 1525.49 880.987 1527.48 Q879.344 1529.45 876.311 1530.21 Z" fill="#000000" fill-rule="evenodd" fill-opacity="1" /><path clip-path="url(#clip290)" d="M892.353 1514.29 L910.709 1514.29 L910.709 1518.22 L896.635 1518.22 L896.635 1526.7 Q897.654 1526.35 898.672 1526.19 Q899.691 1526 900.709 1526 Q906.496 1526 909.876 1529.17 Q913.256 1532.34 913.256 1537.76 Q913.256 1543.34 909.783 1546.44 Q906.311 1549.52 899.992 1549.52 Q897.816 1549.52 895.547 1549.15 Q893.302 1548.78 890.895 1548.04 L890.895 1543.34 Q892.978 1544.47 895.2 1545.03 Q897.422 1545.58 899.899 1545.58 Q903.904 1545.58 906.242 1543.48 Q908.58 1541.37 908.58 1537.76 Q908.58 1534.15 906.242 1532.04 Q903.904 1529.94 899.899 1529.94 Q898.024 1529.94 896.149 1530.35 Q894.297 1530.77 892.353 1531.65 L892.353 1514.29 Z" fill="#000000" fill-rule="evenodd" fill-opacity="1" /><path clip-path="url(#clip290)" d="M932.469 1517.37 Q928.857 1517.37 927.029 1520.93 Q925.223 1524.47 925.223 1531.6 Q925.223 1538.71 927.029 1542.27 Q928.857 1545.82 932.469 1545.82 Q936.103 1545.82 937.908 1542.27 Q939.737 1538.71 939.737 1531.6 Q939.737 1524.47 937.908 1520.93 Q936.103 1517.37 932.469 1517.37 M932.469 1513.66 Q938.279 1513.66 941.334 1518.27 Q944.413 1522.85 944.413 1531.6 Q944.413 1540.33 941.334 1544.94 Q938.279 1549.52 932.469 1549.52 Q926.658 1549.52 923.58 1544.94 Q920.524 1540.33 920.524 1531.6 Q920.524 1522.85 923.58 1518.27 Q926.658 1513.66 932.469 1513.66 Z" fill="#000000" fill-rule="evenodd" fill-opacity="1" /><path clip-path="url(#clip290)" d="M962.63 1517.37 Q959.019 1517.37 957.191 1520.93 Q955.385 1524.47 955.385 1531.6 Q955.385 1538.71 957.191 1542.27 Q959.019 1545.82 962.63 1545.82 Q966.265 1545.82 968.07 1542.27 Q969.899 1538.71 969.899 1531.6 Q969.899 1524.47 968.07 1520.93 Q966.265 1517.37 962.63 1517.37 M962.63 1513.66 Q968.441 1513.66 971.496 1518.27 Q974.575 1522.85 974.575 1531.6 Q974.575 1540.33 971.496 1544.94 Q968.441 1549.52 962.63 1549.52 Q956.82 1549.52 953.742 1544.94 Q950.686 1540.33 950.686 1531.6 Q950.686 1522.85 953.742 1518.27 Q956.82 1513.66 962.63 1513.66 Z" fill="#000000" fill-rule="evenodd" fill-opacity="1" /><path clip-path="url(#clip290)" d="M1226.72 1532.02 L1256.4 1532.02 L1256.4 1535.95 L1226.72 1535.95 L1226.72 1532.02 Z" fill="#000000" fill-rule="evenodd" fill-opacity="1" /><path clip-path="url(#clip290)" d="M1280.66 1530.21 Q1284.01 1530.93 1285.89 1533.2 Q1287.79 1535.47 1287.79 1538.8 Q1287.79 1543.92 1284.27 1546.72 Q1280.75 1549.52 1274.27 1549.52 Q1272.09 1549.52 1269.78 1549.08 Q1267.48 1548.66 1265.03 1547.81 L1265.03 1543.29 Q1266.98 1544.43 1269.29 1545.01 Q1271.6 1545.58 1274.13 1545.58 Q1278.53 1545.58 1280.82 1543.85 Q1283.13 1542.11 1283.13 1538.8 Q1283.13 1535.75 1280.98 1534.03 Q1278.85 1532.3 1275.03 1532.3 L1271 1532.3 L1271 1528.45 L1275.22 1528.45 Q1278.66 1528.45 1280.49 1527.09 Q1282.32 1525.7 1282.32 1523.11 Q1282.32 1520.45 1280.42 1519.03 Q1278.55 1517.6 1275.03 1517.6 Q1273.11 1517.6 1270.91 1518.01 Q1268.71 1518.43 1266.07 1519.31 L1266.07 1515.14 Q1268.73 1514.4 1271.05 1514.03 Q1273.39 1513.66 1275.45 1513.66 Q1280.77 1513.66 1283.87 1516.09 Q1286.97 1518.5 1286.97 1522.62 Q1286.97 1525.49 1285.33 1527.48 Q1283.69 1529.45 1280.66 1530.21 Z" fill="#000000" fill-rule="evenodd" fill-opacity="1" /><path clip-path="url(#clip290)" d="M1306.65 1517.37 Q1303.04 1517.37 1301.21 1520.93 Q1299.41 1524.47 1299.41 1531.6 Q1299.41 1538.71 1301.21 1542.27 Q1303.04 1545.82 1306.65 1545.82 Q1310.29 1545.82 1312.09 1542.27 Q1313.92 1538.71 1313.92 1531.6 Q1313.92 1524.47 1312.09 1520.93 Q1310.29 1517.37 1306.65 1517.37 M1306.65 1513.66 Q1312.46 1513.66 1315.52 1518.27 Q1318.6 1522.85 1318.6 1531.6 Q1318.6 1540.33 1315.52 1544.94 Q1312.46 1549.52 1306.65 1549.52 Q1300.84 1549.52 1297.76 1544.94 Q1294.71 1540.33 1294.71 1531.6 Q1294.71 1522.85 1297.76 1518.27 Q1300.84 1513.66 1306.65 1513.66 Z" fill="#000000" fill-rule="evenodd" fill-opacity="1" /><path clip-path="url(#clip290)" d="M1336.81 1517.37 Q1333.2 1517.37 1331.37 1520.93 Q1329.57 1524.47 1329.57 1531.6 Q1329.57 1538.71 1331.37 1542.27 Q1333.2 1545.82 1336.81 1545.82 Q1340.45 1545.82 1342.25 1542.27 Q1344.08 1538.71 1344.08 1531.6 Q1344.08 1524.47 1342.25 1520.93 Q1340.45 1517.37 1336.81 1517.37 M1336.81 1513.66 Q1342.62 1513.66 1345.68 1518.27 Q1348.76 1522.85 1348.76 1531.6 Q1348.76 1540.33 1345.68 1544.94 Q1342.62 1549.52 1336.81 1549.52 Q1331 1549.52 1327.92 1544.94 Q1324.87 1540.33 1324.87 1531.6 Q1324.87 1522.85 1327.92 1518.27 Q1331 1513.66 1336.81 1513.66 Z" fill="#000000" fill-rule="evenodd" fill-opacity="1" /><path clip-path="url(#clip290)" d="M1366.97 1517.37 Q1363.36 1517.37 1361.53 1520.93 Q1359.73 1524.47 1359.73 1531.6 Q1359.73 1538.71 1361.53 1542.27 Q1363.36 1545.82 1366.97 1545.82 Q1370.61 1545.82 1372.41 1542.27 Q1374.24 1538.71 1374.24 1531.6 Q1374.24 1524.47 1372.41 1520.93 Q1370.61 1517.37 1366.97 1517.37 M1366.97 1513.66 Q1372.78 1513.66 1375.84 1518.27 Q1378.92 1522.85 1378.92 1531.6 Q1378.92 1540.33 1375.84 1544.94 Q1372.78 1549.52 1366.97 1549.52 Q1361.16 1549.52 1358.09 1544.94 Q1355.03 1540.33 1355.03 1531.6 Q1355.03 1522.85 1358.09 1518.27 Q1361.16 1513.66 1366.97 1513.66 Z" fill="#000000" fill-rule="evenodd" fill-opacity="1" /><path clip-path="url(#clip290)" d="M1631.06 1532.02 L1660.74 1532.02 L1660.74 1535.95 L1631.06 1535.95 L1631.06 1532.02 Z" fill="#000000" fill-rule="evenodd" fill-opacity="1" /><path clip-path="url(#clip290)" d="M1674.86 1544.91 L1691.18 1544.91 L1691.18 1548.85 L1669.24 1548.85 L1669.24 1544.91 Q1671.9 1542.16 1676.48 1537.53 Q1681.09 1532.88 1682.27 1531.53 Q1684.51 1529.01 1685.39 1527.27 Q1686.3 1525.51 1686.3 1523.82 Q1686.3 1521.07 1684.35 1519.33 Q1682.43 1517.6 1679.33 1517.6 Q1677.13 1517.6 1674.68 1518.36 Q1672.25 1519.13 1669.47 1520.68 L1669.47 1515.95 Q1672.29 1514.82 1674.75 1514.24 Q1677.2 1513.66 1679.24 1513.66 Q1684.61 1513.66 1687.8 1516.35 Q1691 1519.03 1691 1523.52 Q1691 1525.65 1690.18 1527.57 Q1689.4 1529.47 1687.29 1532.07 Q1686.71 1532.74 1683.61 1535.95 Q1680.51 1539.15 1674.86 1544.91 Z" fill="#000000" fill-rule="evenodd" fill-opacity="1" /><path clip-path="url(#clip290)" d="M1701.04 1514.29 L1719.4 1514.29 L1719.4 1518.22 L1705.32 1518.22 L1705.32 1526.7 Q1706.34 1526.35 1707.36 1526.19 Q1708.38 1526 1709.4 1526 Q1715.18 1526 1718.56 1529.17 Q1721.94 1532.34 1721.94 1537.76 Q1721.94 1543.34 1718.47 1546.44 Q1715 1549.52 1708.68 1549.52 Q1706.5 1549.52 1704.24 1549.15 Q1701.99 1548.78 1699.58 1548.04 L1699.58 1543.34 Q1701.67 1544.47 1703.89 1545.03 Q1706.11 1545.58 1708.59 1545.58 Q1712.59 1545.58 1714.93 1543.48 Q1717.27 1541.37 1717.27 1537.76 Q1717.27 1534.15 1714.93 1532.04 Q1712.59 1529.94 1708.59 1529.94 Q1706.71 1529.94 1704.84 1530.35 Q1702.99 1530.77 1701.04 1531.65 L1701.04 1514.29 Z" fill="#000000" fill-rule="evenodd" fill-opacity="1" /><path clip-path="url(#clip290)" d="M1741.16 1517.37 Q1737.55 1517.37 1735.72 1520.93 Q1733.91 1524.47 1733.91 1531.6 Q1733.91 1538.71 1735.72 1542.27 Q1737.55 1545.82 1741.16 1545.82 Q1744.79 1545.82 1746.6 1542.27 Q1748.43 1538.71 1748.43 1531.6 Q1748.43 1524.47 1746.6 1520.93 Q1744.79 1517.37 1741.16 1517.37 M1741.16 1513.66 Q1746.97 1513.66 1750.02 1518.27 Q1753.1 1522.85 1753.1 1531.6 Q1753.1 1540.33 1750.02 1544.94 Q1746.97 1549.52 1741.16 1549.52 Q1735.35 1549.52 1732.27 1544.94 Q1729.21 1540.33 1729.21 1531.6 Q1729.21 1522.85 1732.27 1518.27 Q1735.35 1513.66 1741.16 1513.66 Z" fill="#000000" fill-rule="evenodd" fill-opacity="1" /><path clip-path="url(#clip290)" d="M1771.32 1517.37 Q1767.71 1517.37 1765.88 1520.93 Q1764.07 1524.47 1764.07 1531.6 Q1764.07 1538.71 1765.88 1542.27 Q1767.71 1545.82 1771.32 1545.82 Q1774.95 1545.82 1776.76 1542.27 Q1778.59 1538.71 1778.59 1531.6 Q1778.59 1524.47 1776.76 1520.93 Q1774.95 1517.37 1771.32 1517.37 M1771.32 1513.66 Q1777.13 1513.66 1780.18 1518.27 Q1783.26 1522.85 1783.26 1531.6 Q1783.26 1540.33 1780.18 1544.94 Q1777.13 1549.52 1771.32 1549.52 Q1765.51 1549.52 1762.43 1544.94 Q1759.37 1540.33 1759.37 1531.6 Q1759.37 1522.85 1762.43 1518.27 Q1765.51 1513.66 1771.32 1513.66 Z" fill="#000000" fill-rule="evenodd" fill-opacity="1" /><path clip-path="url(#clip290)" d="M2035.41 1532.02 L2065.08 1532.02 L2065.08 1535.95 L2035.41 1535.95 L2035.41 1532.02 Z" fill="#000000" fill-rule="evenodd" fill-opacity="1" /><path clip-path="url(#clip290)" d="M2079.2 1544.91 L2095.52 1544.91 L2095.52 1548.85 L2073.58 1548.85 L2073.58 1544.91 Q2076.24 1542.16 2080.83 1537.53 Q2085.43 1532.88 2086.61 1531.53 Q2088.86 1529.01 2089.74 1527.27 Q2090.64 1525.51 2090.64 1523.82 Q2090.64 1521.07 2088.7 1519.33 Q2086.77 1517.6 2083.67 1517.6 Q2081.47 1517.6 2079.02 1518.36 Q2076.59 1519.13 2073.81 1520.68 L2073.81 1515.95 Q2076.64 1514.82 2079.09 1514.24 Q2081.54 1513.66 2083.58 1513.66 Q2088.95 1513.66 2092.14 1516.35 Q2095.34 1519.03 2095.34 1523.52 Q2095.34 1525.65 2094.53 1527.57 Q2093.74 1529.47 2091.64 1532.07 Q2091.06 1532.74 2087.95 1535.95 Q2084.85 1539.15 2079.2 1544.91 Z" fill="#000000" fill-rule="evenodd" fill-opacity="1" /><path clip-path="url(#clip290)" d="M2115.34 1517.37 Q2111.73 1517.37 2109.9 1520.93 Q2108.09 1524.47 2108.09 1531.6 Q2108.09 1538.71 2109.9 1542.27 Q2111.73 1545.82 2115.34 1545.82 Q2118.97 1545.82 2120.78 1542.27 Q2122.61 1538.71 2122.61 1531.6 Q2122.61 1524.47 2120.78 1520.93 Q2118.97 1517.37 2115.34 1517.37 M2115.34 1513.66 Q2121.15 1513.66 2124.2 1518.27 Q2127.28 1522.85 2127.28 1531.6 Q2127.28 1540.33 2124.2 1544.94 Q2121.15 1549.52 2115.34 1549.52 Q2109.53 1549.52 2106.45 1544.94 Q2103.39 1540.33 2103.39 1531.6 Q2103.39 1522.85 2106.45 1518.27 Q2109.53 1513.66 2115.34 1513.66 Z" fill="#000000" fill-rule="evenodd" fill-opacity="1" /><path clip-path="url(#clip290)" d="M2145.5 1517.37 Q2141.89 1517.37 2140.06 1520.93 Q2138.26 1524.47 2138.26 1531.6 Q2138.26 1538.71 2140.06 1542.27 Q2141.89 1545.82 2145.5 1545.82 Q2149.14 1545.82 2150.94 1542.27 Q2152.77 1538.71 2152.77 1531.6 Q2152.77 1524.47 2150.94 1520.93 Q2149.14 1517.37 2145.5 1517.37 M2145.5 1513.66 Q2151.31 1513.66 2154.37 1518.27 Q2157.45 1522.85 2157.45 1531.6 Q2157.45 1540.33 2154.37 1544.94 Q2151.31 1549.52 2145.5 1549.52 Q2139.69 1549.52 2136.61 1544.94 Q2133.56 1540.33 2133.56 1531.6 Q2133.56 1522.85 2136.61 1518.27 Q2139.69 1513.66 2145.5 1513.66 Z" fill="#000000" fill-rule="evenodd" fill-opacity="1" /><path clip-path="url(#clip290)" d="M2175.66 1517.37 Q2172.05 1517.37 2170.22 1520.93 Q2168.42 1524.47 2168.42 1531.6 Q2168.42 1538.71 2170.22 1542.27 Q2172.05 1545.82 2175.66 1545.82 Q2179.3 1545.82 2181.1 1542.27 Q2182.93 1538.71 2182.93 1531.6 Q2182.93 1524.47 2181.1 1520.93 Q2179.3 1517.37 2175.66 1517.37 M2175.66 1513.66 Q2181.47 1513.66 2184.53 1518.27 Q2187.61 1522.85 2187.61 1531.6 Q2187.61 1540.33 2184.53 1544.94 Q2181.47 1549.52 2175.66 1549.52 Q2169.85 1549.52 2166.77 1544.94 Q2163.72 1540.33 2163.72 1531.6 Q2163.72 1522.85 2166.77 1518.27 Q2169.85 1513.66 2175.66 1513.66 Z" fill="#000000" fill-rule="evenodd" fill-opacity="1" /><polyline clip-path="url(#clip292)" style="stroke:#000000; stroke-linecap:butt; stroke-linejoin:round; stroke-width:2; stroke-opacity:0.1; fill:none" points="
  172.015,1445.72 2352.76,1445.72 
  "/>
<polyline clip-path="url(#clip292)" style="stroke:#000000; stroke-linecap:butt; stroke-linejoin:round; stroke-width:2; stroke-opacity:0.1; fill:none" points="
  172.015,1080.73 2352.76,1080.73 
  "/>
<polyline clip-path="url(#clip292)" style="stroke:#000000; stroke-linecap:butt; stroke-linejoin:round; stroke-width:2; stroke-opacity:0.1; fill:none" points="
  172.015,715.748 2352.76,715.748 
  "/>
<polyline clip-path="url(#clip292)" style="stroke:#000000; stroke-linecap:butt; stroke-linejoin:round; stroke-width:2; stroke-opacity:0.1; fill:none" points="
  172.015,350.765 2352.76,350.765 
  "/>
<polyline clip-path="url(#clip290)" style="stroke:#000000; stroke-linecap:butt; stroke-linejoin:round; stroke-width:4; stroke-opacity:1; fill:none" points="
  172.015,1486.45 172.015,47.2441 
  "/>
<polyline clip-path="url(#clip290)" style="stroke:#000000; stroke-linecap:butt; stroke-linejoin:round; stroke-width:4; stroke-opacity:1; fill:none" points="
  172.015,1445.72 190.912,1445.72 
  "/>
<polyline clip-path="url(#clip290)" style="stroke:#000000; stroke-linecap:butt; stroke-linejoin:round; stroke-width:4; stroke-opacity:1; fill:none" points="
  172.015,1080.73 190.912,1080.73 
  "/>
<polyline clip-path="url(#clip290)" style="stroke:#000000; stroke-linecap:butt; stroke-linejoin:round; stroke-width:4; stroke-opacity:1; fill:none" points="
  172.015,715.748 190.912,715.748 
  "/>
<polyline clip-path="url(#clip290)" style="stroke:#000000; stroke-linecap:butt; stroke-linejoin:round; stroke-width:4; stroke-opacity:1; fill:none" points="
  172.015,350.765 190.912,350.765 
  "/>
<path clip-path="url(#clip290)" d="M124.07 1431.51 Q120.459 1431.51 118.631 1435.08 Q116.825 1438.62 116.825 1445.75 Q116.825 1452.86 118.631 1456.42 Q120.459 1459.96 124.07 1459.96 Q127.705 1459.96 129.51 1456.42 Q131.339 1452.86 131.339 1445.75 Q131.339 1438.62 129.51 1435.08 Q127.705 1431.51 124.07 1431.51 M124.07 1427.81 Q129.881 1427.81 132.936 1432.42 Q136.015 1437 136.015 1445.75 Q136.015 1454.48 132.936 1459.08 Q129.881 1463.67 124.07 1463.67 Q118.26 1463.67 115.182 1459.08 Q112.126 1454.48 112.126 1445.75 Q112.126 1437 115.182 1432.42 Q118.26 1427.81 124.07 1427.81 Z" fill="#000000" fill-rule="evenodd" fill-opacity="1" /><path clip-path="url(#clip290)" d="M57.7745 1094.08 L74.0939 1094.08 L74.0939 1098.01 L52.1495 1098.01 L52.1495 1094.08 Q54.8115 1091.32 59.3949 1086.69 Q64.0013 1082.04 65.1819 1080.7 Q67.4272 1078.17 68.3068 1076.44 Q69.2096 1074.68 69.2096 1072.99 Q69.2096 1070.23 67.2652 1068.5 Q65.3439 1066.76 62.2421 1066.76 Q60.043 1066.76 57.5893 1067.53 Q55.1588 1068.29 52.381 1069.84 L52.381 1065.12 Q55.2051 1063.98 57.6588 1063.41 Q60.1124 1062.83 62.1495 1062.83 Q67.5198 1062.83 70.7142 1065.51 Q73.9087 1068.2 73.9087 1072.69 Q73.9087 1074.82 73.0985 1076.74 Q72.3115 1078.64 70.205 1081.23 Q69.6263 1081.9 66.5245 1085.12 Q63.4226 1088.31 57.7745 1094.08 Z" fill="#000000" fill-rule="evenodd" fill-opacity="1" /><path clip-path="url(#clip290)" d="M93.9086 1066.53 Q90.2975 1066.53 88.4688 1070.1 Q86.6632 1073.64 86.6632 1080.77 Q86.6632 1087.87 88.4688 1091.44 Q90.2975 1094.98 93.9086 1094.98 Q97.5428 1094.98 99.3483 1091.44 Q101.177 1087.87 101.177 1080.77 Q101.177 1073.64 99.3483 1070.1 Q97.5428 1066.53 93.9086 1066.53 M93.9086 1062.83 Q99.7187 1062.83 102.774 1067.43 Q105.853 1072.02 105.853 1080.77 Q105.853 1089.49 102.774 1094.1 Q99.7187 1098.68 93.9086 1098.68 Q88.0984 1098.68 85.0197 1094.1 Q81.9642 1089.49 81.9642 1080.77 Q81.9642 1072.02 85.0197 1067.43 Q88.0984 1062.83 93.9086 1062.83 Z" fill="#000000" fill-rule="evenodd" fill-opacity="1" /><path clip-path="url(#clip290)" d="M124.07 1066.53 Q120.459 1066.53 118.631 1070.1 Q116.825 1073.64 116.825 1080.77 Q116.825 1087.87 118.631 1091.44 Q120.459 1094.98 124.07 1094.98 Q127.705 1094.98 129.51 1091.44 Q131.339 1087.87 131.339 1080.77 Q131.339 1073.64 129.51 1070.1 Q127.705 1066.53 124.07 1066.53 M124.07 1062.83 Q129.881 1062.83 132.936 1067.43 Q136.015 1072.02 136.015 1080.77 Q136.015 1089.49 132.936 1094.1 Q129.881 1098.68 124.07 1098.68 Q118.26 1098.68 115.182 1094.1 Q112.126 1089.49 112.126 1080.77 Q112.126 1072.02 115.182 1067.43 Q118.26 1062.83 124.07 1062.83 Z" fill="#000000" fill-rule="evenodd" fill-opacity="1" /><path clip-path="url(#clip290)" d="M66.5939 702.542 L54.7884 720.991 L66.5939 720.991 L66.5939 702.542 M65.367 698.468 L71.2466 698.468 L71.2466 720.991 L76.1772 720.991 L76.1772 724.88 L71.2466 724.88 L71.2466 733.028 L66.5939 733.028 L66.5939 724.88 L50.9921 724.88 L50.9921 720.366 L65.367 698.468 Z" fill="#000000" fill-rule="evenodd" fill-opacity="1" /><path clip-path="url(#clip290)" d="M93.9086 701.547 Q90.2975 701.547 88.4688 705.112 Q86.6632 708.653 86.6632 715.783 Q86.6632 722.889 88.4688 726.454 Q90.2975 729.996 93.9086 729.996 Q97.5428 729.996 99.3483 726.454 Q101.177 722.889 101.177 715.783 Q101.177 708.653 99.3483 705.112 Q97.5428 701.547 93.9086 701.547 M93.9086 697.843 Q99.7187 697.843 102.774 702.45 Q105.853 707.033 105.853 715.783 Q105.853 724.51 102.774 729.116 Q99.7187 733.7 93.9086 733.7 Q88.0984 733.7 85.0197 729.116 Q81.9642 724.51 81.9642 715.783 Q81.9642 707.033 85.0197 702.45 Q88.0984 697.843 93.9086 697.843 Z" fill="#000000" fill-rule="evenodd" fill-opacity="1" /><path clip-path="url(#clip290)" d="M124.07 701.547 Q120.459 701.547 118.631 705.112 Q116.825 708.653 116.825 715.783 Q116.825 722.889 118.631 726.454 Q120.459 729.996 124.07 729.996 Q127.705 729.996 129.51 726.454 Q131.339 722.889 131.339 715.783 Q131.339 708.653 129.51 705.112 Q127.705 701.547 124.07 701.547 M124.07 697.843 Q129.881 697.843 132.936 702.45 Q136.015 707.033 136.015 715.783 Q136.015 724.51 132.936 729.116 Q129.881 733.7 124.07 733.7 Q118.26 733.7 115.182 729.116 Q112.126 724.51 112.126 715.783 Q112.126 707.033 115.182 702.45 Q118.26 697.843 124.07 697.843 Z" fill="#000000" fill-rule="evenodd" fill-opacity="1" /><path clip-path="url(#clip290)" d="M64.3254 348.901 Q61.1773 348.901 59.3254 351.054 Q57.4967 353.207 57.4967 356.957 Q57.4967 360.683 59.3254 362.859 Q61.1773 365.012 64.3254 365.012 Q67.4735 365.012 69.3022 362.859 Q71.1541 360.683 71.1541 356.957 Q71.1541 353.207 69.3022 351.054 Q67.4735 348.901 64.3254 348.901 M73.6077 334.248 L73.6077 338.508 Q71.8485 337.674 70.0429 337.235 Q68.2606 336.795 66.5013 336.795 Q61.8717 336.795 59.418 339.92 Q56.9875 343.045 56.6402 349.364 Q58.006 347.35 60.0662 346.285 Q62.1263 345.197 64.6032 345.197 Q69.8115 345.197 72.8207 348.369 Q75.8531 351.517 75.8531 356.957 Q75.8531 362.281 72.705 365.498 Q69.5568 368.716 64.3254 368.716 Q58.33 368.716 55.1588 364.133 Q51.9875 359.526 51.9875 350.799 Q51.9875 342.605 55.8764 337.744 Q59.7652 332.86 66.3161 332.86 Q68.0754 332.86 69.8578 333.207 Q71.6633 333.554 73.6077 334.248 Z" fill="#000000" fill-rule="evenodd" fill-opacity="1" /><path clip-path="url(#clip290)" d="M93.9086 336.563 Q90.2975 336.563 88.4688 340.128 Q86.6632 343.67 86.6632 350.799 Q86.6632 357.906 88.4688 361.471 Q90.2975 365.012 93.9086 365.012 Q97.5428 365.012 99.3483 361.471 Q101.177 357.906 101.177 350.799 Q101.177 343.67 99.3483 340.128 Q97.5428 336.563 93.9086 336.563 M93.9086 332.86 Q99.7187 332.86 102.774 337.466 Q105.853 342.049 105.853 350.799 Q105.853 359.526 102.774 364.133 Q99.7187 368.716 93.9086 368.716 Q88.0984 368.716 85.0197 364.133 Q81.9642 359.526 81.9642 350.799 Q81.9642 342.049 85.0197 337.466 Q88.0984 332.86 93.9086 332.86 Z" fill="#000000" fill-rule="evenodd" fill-opacity="1" /><path clip-path="url(#clip290)" d="M124.07 336.563 Q120.459 336.563 118.631 340.128 Q116.825 343.67 116.825 350.799 Q116.825 357.906 118.631 361.471 Q120.459 365.012 124.07 365.012 Q127.705 365.012 129.51 361.471 Q131.339 357.906 131.339 350.799 Q131.339 343.67 129.51 340.128 Q127.705 336.563 124.07 336.563 M124.07 332.86 Q129.881 332.86 132.936 337.466 Q136.015 342.049 136.015 350.799 Q136.015 359.526 132.936 364.133 Q129.881 368.716 124.07 368.716 Q118.26 368.716 115.182 364.133 Q112.126 359.526 112.126 350.799 Q112.126 342.049 115.182 337.466 Q118.26 332.86 124.07 332.86 Z" fill="#000000" fill-rule="evenodd" fill-opacity="1" /><path clip-path="url(#clip292)" d="
M291.959 1443.89 L291.959 1445.72 L332.394 1445.72 L332.394 1443.89 L291.959 1443.89 L291.959 1443.89  Z
  " fill="#009af9" fill-rule="evenodd" fill-opacity="1"/>
<polyline clip-path="url(#clip292)" style="stroke:#000000; stroke-linecap:butt; stroke-linejoin:round; stroke-width:4; stroke-opacity:1; fill:none" points="
  291.959,1443.89 291.959,1445.72 332.394,1445.72 332.394,1443.89 291.959,1443.89 
  "/>
<path clip-path="url(#clip292)" d="
M332.394 1438.42 L332.394 1445.72 L372.828 1445.72 L372.828 1438.42 L332.394 1438.42 L332.394 1438.42  Z
  " fill="#009af9" fill-rule="evenodd" fill-opacity="1"/>
<polyline clip-path="url(#clip292)" style="stroke:#000000; stroke-linecap:butt; stroke-linejoin:round; stroke-width:4; stroke-opacity:1; fill:none" points="
  332.394,1438.42 332.394,1445.72 372.828,1445.72 372.828,1438.42 332.394,1438.42 
  "/>
<path clip-path="url(#clip292)" d="
M372.828 1436.59 L372.828 1445.72 L413.263 1445.72 L413.263 1436.59 L372.828 1436.59 L372.828 1436.59  Z
  " fill="#009af9" fill-rule="evenodd" fill-opacity="1"/>
<polyline clip-path="url(#clip292)" style="stroke:#000000; stroke-linecap:butt; stroke-linejoin:round; stroke-width:4; stroke-opacity:1; fill:none" points="
  372.828,1436.59 372.828,1445.72 413.263,1445.72 413.263,1436.59 372.828,1436.59 
  "/>
<path clip-path="url(#clip292)" d="
M413.263 1416.52 L413.263 1445.72 L453.697 1445.72 L453.697 1416.52 L413.263 1416.52 L413.263 1416.52  Z
  " fill="#009af9" fill-rule="evenodd" fill-opacity="1"/>
<polyline clip-path="url(#clip292)" style="stroke:#000000; stroke-linecap:butt; stroke-linejoin:round; stroke-width:4; stroke-opacity:1; fill:none" points="
  413.263,1416.52 413.263,1445.72 453.697,1445.72 453.697,1416.52 413.263,1416.52 
  "/>
<path clip-path="url(#clip292)" d="
M453.697 1394.62 L453.697 1445.72 L494.132 1445.72 L494.132 1394.62 L453.697 1394.62 L453.697 1394.62  Z
  " fill="#009af9" fill-rule="evenodd" fill-opacity="1"/>
<polyline clip-path="url(#clip292)" style="stroke:#000000; stroke-linecap:butt; stroke-linejoin:round; stroke-width:4; stroke-opacity:1; fill:none" points="
  453.697,1394.62 453.697,1445.72 494.132,1445.72 494.132,1394.62 453.697,1394.62 
  "/>
<path clip-path="url(#clip292)" d="
M494.132 1349 L494.132 1445.72 L534.566 1445.72 L534.566 1349 L494.132 1349 L494.132 1349  Z
  " fill="#009af9" fill-rule="evenodd" fill-opacity="1"/>
<polyline clip-path="url(#clip292)" style="stroke:#000000; stroke-linecap:butt; stroke-linejoin:round; stroke-width:4; stroke-opacity:1; fill:none" points="
  494.132,1349 494.132,1445.72 534.566,1445.72 534.566,1349 494.132,1349 
  "/>
<path clip-path="url(#clip292)" d="
M534.566 1255.92 L534.566 1445.72 L575 1445.72 L575 1255.92 L534.566 1255.92 L534.566 1255.92  Z
  " fill="#009af9" fill-rule="evenodd" fill-opacity="1"/>
<polyline clip-path="url(#clip292)" style="stroke:#000000; stroke-linecap:butt; stroke-linejoin:round; stroke-width:4; stroke-opacity:1; fill:none" points="
  534.566,1255.92 534.566,1445.72 575,1445.72 575,1255.92 534.566,1255.92 
  "/>
<path clip-path="url(#clip292)" d="
M575 1173.8 L575 1445.72 L615.435 1445.72 L615.435 1173.8 L575 1173.8 L575 1173.8  Z
  " fill="#009af9" fill-rule="evenodd" fill-opacity="1"/>
<polyline clip-path="url(#clip292)" style="stroke:#000000; stroke-linecap:butt; stroke-linejoin:round; stroke-width:4; stroke-opacity:1; fill:none" points="
  575,1173.8 575,1445.72 615.435,1445.72 615.435,1173.8 575,1173.8 
  "/>
<path clip-path="url(#clip292)" d="
M615.435 1078.91 L615.435 1445.72 L655.869 1445.72 L655.869 1078.91 L615.435 1078.91 L615.435 1078.91  Z
  " fill="#009af9" fill-rule="evenodd" fill-opacity="1"/>
<polyline clip-path="url(#clip292)" style="stroke:#000000; stroke-linecap:butt; stroke-linejoin:round; stroke-width:4; stroke-opacity:1; fill:none" points="
  615.435,1078.91 615.435,1445.72 655.869,1445.72 655.869,1078.91 615.435,1078.91 
  "/>
<path clip-path="url(#clip292)" d="
M655.869 848.967 L655.869 1445.72 L696.304 1445.72 L696.304 848.967 L655.869 848.967 L655.869 848.967  Z
  " fill="#009af9" fill-rule="evenodd" fill-opacity="1"/>
<polyline clip-path="url(#clip292)" style="stroke:#000000; stroke-linecap:butt; stroke-linejoin:round; stroke-width:4; stroke-opacity:1; fill:none" points="
  655.869,848.967 655.869,1445.72 696.304,1445.72 696.304,848.967 655.869,848.967 
  "/>
<path clip-path="url(#clip292)" d="
M696.304 770.496 L696.304 1445.72 L736.738 1445.72 L736.738 770.496 L696.304 770.496 L696.304 770.496  Z
  " fill="#009af9" fill-rule="evenodd" fill-opacity="1"/>
<polyline clip-path="url(#clip292)" style="stroke:#000000; stroke-linecap:butt; stroke-linejoin:round; stroke-width:4; stroke-opacity:1; fill:none" points="
  696.304,770.496 696.304,1445.72 736.738,1445.72 736.738,770.496 696.304,770.496 
  "/>
<path clip-path="url(#clip292)" d="
M736.738 542.381 L736.738 1445.72 L777.172 1445.72 L777.172 542.381 L736.738 542.381 L736.738 542.381  Z
  " fill="#009af9" fill-rule="evenodd" fill-opacity="1"/>
<polyline clip-path="url(#clip292)" style="stroke:#000000; stroke-linecap:butt; stroke-linejoin:round; stroke-width:4; stroke-opacity:1; fill:none" points="
  736.738,542.381 736.738,1445.72 777.172,1445.72 777.172,542.381 736.738,542.381 
  "/>
<path clip-path="url(#clip292)" d="
M777.172 443.835 L777.172 1445.72 L817.607 1445.72 L817.607 443.835 L777.172 443.835 L777.172 443.835  Z
  " fill="#009af9" fill-rule="evenodd" fill-opacity="1"/>
<polyline clip-path="url(#clip292)" style="stroke:#000000; stroke-linecap:butt; stroke-linejoin:round; stroke-width:4; stroke-opacity:1; fill:none" points="
  777.172,443.835 777.172,1445.72 817.607,1445.72 817.607,443.835 777.172,443.835 
  "/>
<path clip-path="url(#clip292)" d="
M817.607 296.017 L817.607 1445.72 L858.041 1445.72 L858.041 296.017 L817.607 296.017 L817.607 296.017  Z
  " fill="#009af9" fill-rule="evenodd" fill-opacity="1"/>
<polyline clip-path="url(#clip292)" style="stroke:#000000; stroke-linecap:butt; stroke-linejoin:round; stroke-width:4; stroke-opacity:1; fill:none" points="
  817.607,296.017 817.607,1445.72 858.041,1445.72 858.041,296.017 817.607,296.017 
  "/>
<path clip-path="url(#clip292)" d="
M858.041 177.397 L858.041 1445.72 L898.476 1445.72 L898.476 177.397 L858.041 177.397 L858.041 177.397  Z
  " fill="#009af9" fill-rule="evenodd" fill-opacity="1"/>
<polyline clip-path="url(#clip292)" style="stroke:#000000; stroke-linecap:butt; stroke-linejoin:round; stroke-width:4; stroke-opacity:1; fill:none" points="
  858.041,177.397 858.041,1445.72 898.476,1445.72 898.476,177.397 858.041,177.397 
  "/>
<path clip-path="url(#clip292)" d="
M898.476 97.1009 L898.476 1445.72 L938.91 1445.72 L938.91 97.1009 L898.476 97.1009 L898.476 97.1009  Z
  " fill="#009af9" fill-rule="evenodd" fill-opacity="1"/>
<polyline clip-path="url(#clip292)" style="stroke:#000000; stroke-linecap:butt; stroke-linejoin:round; stroke-width:4; stroke-opacity:1; fill:none" points="
  898.476,97.1009 898.476,1445.72 938.91,1445.72 938.91,97.1009 898.476,97.1009 
  "/>
<path clip-path="url(#clip292)" d="
M938.91 129.949 L938.91 1445.72 L979.344 1445.72 L979.344 129.949 L938.91 129.949 L938.91 129.949  Z
  " fill="#009af9" fill-rule="evenodd" fill-opacity="1"/>
<polyline clip-path="url(#clip292)" style="stroke:#000000; stroke-linecap:butt; stroke-linejoin:round; stroke-width:4; stroke-opacity:1; fill:none" points="
  938.91,129.949 938.91,1445.72 979.344,1445.72 979.344,129.949 938.91,129.949 
  "/>
<path clip-path="url(#clip292)" d="
M979.344 87.9763 L979.344 1445.72 L1019.78 1445.72 L1019.78 87.9763 L979.344 87.9763 L979.344 87.9763  Z
  " fill="#009af9" fill-rule="evenodd" fill-opacity="1"/>
<polyline clip-path="url(#clip292)" style="stroke:#000000; stroke-linecap:butt; stroke-linejoin:round; stroke-width:4; stroke-opacity:1; fill:none" points="
  979.344,87.9763 979.344,1445.72 1019.78,1445.72 1019.78,87.9763 979.344,87.9763 
  "/>
<path clip-path="url(#clip292)" d="
M1019.78 239.445 L1019.78 1445.72 L1060.21 1445.72 L1060.21 239.445 L1019.78 239.445 L1019.78 239.445  Z
  " fill="#009af9" fill-rule="evenodd" fill-opacity="1"/>
<polyline clip-path="url(#clip292)" style="stroke:#000000; stroke-linecap:butt; stroke-linejoin:round; stroke-width:4; stroke-opacity:1; fill:none" points="
  1019.78,239.445 1019.78,1445.72 1060.21,1445.72 1060.21,239.445 1019.78,239.445 
  "/>
<path clip-path="url(#clip292)" d="
M1060.21 356.239 L1060.21 1445.72 L1100.65 1445.72 L1100.65 356.239 L1060.21 356.239 L1060.21 356.239  Z
  " fill="#009af9" fill-rule="evenodd" fill-opacity="1"/>
<polyline clip-path="url(#clip292)" style="stroke:#000000; stroke-linecap:butt; stroke-linejoin:round; stroke-width:4; stroke-opacity:1; fill:none" points="
  1060.21,356.239 1060.21,1445.72 1100.65,1445.72 1100.65,356.239 1060.21,356.239 
  "/>
<path clip-path="url(#clip292)" d="
M1100.65 458.435 L1100.65 1445.72 L1141.08 1445.72 L1141.08 458.435 L1100.65 458.435 L1100.65 458.435  Z
  " fill="#009af9" fill-rule="evenodd" fill-opacity="1"/>
<polyline clip-path="url(#clip292)" style="stroke:#000000; stroke-linecap:butt; stroke-linejoin:round; stroke-width:4; stroke-opacity:1; fill:none" points="
  1100.65,458.435 1100.65,1445.72 1141.08,1445.72 1141.08,458.435 1100.65,458.435 
  "/>
<path clip-path="url(#clip292)" d="
M1141.08 606.253 L1141.08 1445.72 L1181.52 1445.72 L1181.52 606.253 L1141.08 606.253 L1141.08 606.253  Z
  " fill="#009af9" fill-rule="evenodd" fill-opacity="1"/>
<polyline clip-path="url(#clip292)" style="stroke:#000000; stroke-linecap:butt; stroke-linejoin:round; stroke-width:4; stroke-opacity:1; fill:none" points="
  1141.08,606.253 1141.08,1445.72 1181.52,1445.72 1181.52,606.253 1141.08,606.253 
  "/>
<path clip-path="url(#clip292)" d="
M1181.52 699.324 L1181.52 1445.72 L1221.95 1445.72 L1221.95 699.324 L1181.52 699.324 L1181.52 699.324  Z
  " fill="#009af9" fill-rule="evenodd" fill-opacity="1"/>
<polyline clip-path="url(#clip292)" style="stroke:#000000; stroke-linecap:butt; stroke-linejoin:round; stroke-width:4; stroke-opacity:1; fill:none" points="
  1181.52,699.324 1181.52,1445.72 1221.95,1445.72 1221.95,699.324 1181.52,699.324 
  "/>
<path clip-path="url(#clip292)" d="
M1221.95 889.116 L1221.95 1445.72 L1262.39 1445.72 L1262.39 889.116 L1221.95 889.116 L1221.95 889.116  Z
  " fill="#009af9" fill-rule="evenodd" fill-opacity="1"/>
<polyline clip-path="url(#clip292)" style="stroke:#000000; stroke-linecap:butt; stroke-linejoin:round; stroke-width:4; stroke-opacity:1; fill:none" points="
  1221.95,889.116 1221.95,1445.72 1262.39,1445.72 1262.39,889.116 1221.95,889.116 
  "/>
<path clip-path="url(#clip292)" d="
M1262.39 973.062 L1262.39 1445.72 L1302.82 1445.72 L1302.82 973.062 L1262.39 973.062 L1262.39 973.062  Z
  " fill="#009af9" fill-rule="evenodd" fill-opacity="1"/>
<polyline clip-path="url(#clip292)" style="stroke:#000000; stroke-linecap:butt; stroke-linejoin:round; stroke-width:4; stroke-opacity:1; fill:none" points="
  1262.39,973.062 1262.39,1445.72 1302.82,1445.72 1302.82,973.062 1262.39,973.062 
  "/>
<path clip-path="url(#clip292)" d="
M1302.82 1058.83 L1302.82 1445.72 L1343.25 1445.72 L1343.25 1058.83 L1302.82 1058.83 L1302.82 1058.83  Z
  " fill="#009af9" fill-rule="evenodd" fill-opacity="1"/>
<polyline clip-path="url(#clip292)" style="stroke:#000000; stroke-linecap:butt; stroke-linejoin:round; stroke-width:4; stroke-opacity:1; fill:none" points="
  1302.82,1058.83 1302.82,1445.72 1343.25,1445.72 1343.25,1058.83 1302.82,1058.83 
  "/>
<path clip-path="url(#clip292)" d="
M1343.25 1161.03 L1343.25 1445.72 L1383.69 1445.72 L1383.69 1161.03 L1343.25 1161.03 L1343.25 1161.03  Z
  " fill="#009af9" fill-rule="evenodd" fill-opacity="1"/>
<polyline clip-path="url(#clip292)" style="stroke:#000000; stroke-linecap:butt; stroke-linejoin:round; stroke-width:4; stroke-opacity:1; fill:none" points="
  1343.25,1161.03 1343.25,1445.72 1383.69,1445.72 1383.69,1161.03 1343.25,1161.03 
  "/>
<path clip-path="url(#clip292)" d="
M1383.69 1171.98 L1383.69 1445.72 L1424.12 1445.72 L1424.12 1171.98 L1383.69 1171.98 L1383.69 1171.98  Z
  " fill="#009af9" fill-rule="evenodd" fill-opacity="1"/>
<polyline clip-path="url(#clip292)" style="stroke:#000000; stroke-linecap:butt; stroke-linejoin:round; stroke-width:4; stroke-opacity:1; fill:none" points="
  1383.69,1171.98 1383.69,1445.72 1424.12,1445.72 1424.12,1171.98 1383.69,1171.98 
  "/>
<path clip-path="url(#clip292)" d="
M1424.12 1252.27 L1424.12 1445.72 L1464.56 1445.72 L1464.56 1252.27 L1424.12 1252.27 L1424.12 1252.27  Z
  " fill="#009af9" fill-rule="evenodd" fill-opacity="1"/>
<polyline clip-path="url(#clip292)" style="stroke:#000000; stroke-linecap:butt; stroke-linejoin:round; stroke-width:4; stroke-opacity:1; fill:none" points="
  1424.12,1252.27 1424.12,1445.72 1464.56,1445.72 1464.56,1252.27 1424.12,1252.27 
  "/>
<path clip-path="url(#clip292)" d="
M1464.56 1299.72 L1464.56 1445.72 L1504.99 1445.72 L1504.99 1299.72 L1464.56 1299.72 L1464.56 1299.72  Z
  " fill="#009af9" fill-rule="evenodd" fill-opacity="1"/>
<polyline clip-path="url(#clip292)" style="stroke:#000000; stroke-linecap:butt; stroke-linejoin:round; stroke-width:4; stroke-opacity:1; fill:none" points="
  1464.56,1299.72 1464.56,1445.72 1504.99,1445.72 1504.99,1299.72 1464.56,1299.72 
  "/>
<path clip-path="url(#clip292)" d="
M1504.99 1358.12 L1504.99 1445.72 L1545.43 1445.72 L1545.43 1358.12 L1504.99 1358.12 L1504.99 1358.12  Z
  " fill="#009af9" fill-rule="evenodd" fill-opacity="1"/>
<polyline clip-path="url(#clip292)" style="stroke:#000000; stroke-linecap:butt; stroke-linejoin:round; stroke-width:4; stroke-opacity:1; fill:none" points="
  1504.99,1358.12 1504.99,1445.72 1545.43,1445.72 1545.43,1358.12 1504.99,1358.12 
  "/>
<path clip-path="url(#clip292)" d="
M1545.43 1365.42 L1545.43 1445.72 L1585.86 1445.72 L1585.86 1365.42 L1545.43 1365.42 L1545.43 1365.42  Z
  " fill="#009af9" fill-rule="evenodd" fill-opacity="1"/>
<polyline clip-path="url(#clip292)" style="stroke:#000000; stroke-linecap:butt; stroke-linejoin:round; stroke-width:4; stroke-opacity:1; fill:none" points="
  1545.43,1365.42 1545.43,1445.72 1585.86,1445.72 1585.86,1365.42 1545.43,1365.42 
  "/>
<path clip-path="url(#clip292)" d="
M1585.86 1385.49 L1585.86 1445.72 L1626.3 1445.72 L1626.3 1385.49 L1585.86 1385.49 L1585.86 1385.49  Z
  " fill="#009af9" fill-rule="evenodd" fill-opacity="1"/>
<polyline clip-path="url(#clip292)" style="stroke:#000000; stroke-linecap:butt; stroke-linejoin:round; stroke-width:4; stroke-opacity:1; fill:none" points="
  1585.86,1385.49 1585.86,1445.72 1626.3,1445.72 1626.3,1385.49 1585.86,1385.49 
  "/>
<path clip-path="url(#clip292)" d="
M1626.3 1390.97 L1626.3 1445.72 L1666.73 1445.72 L1666.73 1390.97 L1626.3 1390.97 L1626.3 1390.97  Z
  " fill="#009af9" fill-rule="evenodd" fill-opacity="1"/>
<polyline clip-path="url(#clip292)" style="stroke:#000000; stroke-linecap:butt; stroke-linejoin:round; stroke-width:4; stroke-opacity:1; fill:none" points="
  1626.3,1390.97 1626.3,1445.72 1666.73,1445.72 1666.73,1390.97 1626.3,1390.97 
  "/>
<path clip-path="url(#clip292)" d="
M1666.73 1409.22 L1666.73 1445.72 L1707.16 1445.72 L1707.16 1409.22 L1666.73 1409.22 L1666.73 1409.22  Z
  " fill="#009af9" fill-rule="evenodd" fill-opacity="1"/>
<polyline clip-path="url(#clip292)" style="stroke:#000000; stroke-linecap:butt; stroke-linejoin:round; stroke-width:4; stroke-opacity:1; fill:none" points="
  1666.73,1409.22 1666.73,1445.72 1707.16,1445.72 1707.16,1409.22 1666.73,1409.22 
  "/>
<path clip-path="url(#clip292)" d="
M1707.16 1416.52 L1707.16 1445.72 L1747.6 1445.72 L1747.6 1416.52 L1707.16 1416.52 L1707.16 1416.52  Z
  " fill="#009af9" fill-rule="evenodd" fill-opacity="1"/>
<polyline clip-path="url(#clip292)" style="stroke:#000000; stroke-linecap:butt; stroke-linejoin:round; stroke-width:4; stroke-opacity:1; fill:none" points="
  1707.16,1416.52 1707.16,1445.72 1747.6,1445.72 1747.6,1416.52 1707.16,1416.52 
  "/>
<path clip-path="url(#clip292)" d="
M1747.6 1421.99 L1747.6 1445.72 L1788.03 1445.72 L1788.03 1421.99 L1747.6 1421.99 L1747.6 1421.99  Z
  " fill="#009af9" fill-rule="evenodd" fill-opacity="1"/>
<polyline clip-path="url(#clip292)" style="stroke:#000000; stroke-linecap:butt; stroke-linejoin:round; stroke-width:4; stroke-opacity:1; fill:none" points="
  1747.6,1421.99 1747.6,1445.72 1788.03,1445.72 1788.03,1421.99 1747.6,1421.99 
  "/>
<path clip-path="url(#clip292)" d="
M1788.03 1436.59 L1788.03 1445.72 L1828.47 1445.72 L1828.47 1436.59 L1788.03 1436.59 L1788.03 1436.59  Z
  " fill="#009af9" fill-rule="evenodd" fill-opacity="1"/>
<polyline clip-path="url(#clip292)" style="stroke:#000000; stroke-linecap:butt; stroke-linejoin:round; stroke-width:4; stroke-opacity:1; fill:none" points="
  1788.03,1436.59 1788.03,1445.72 1828.47,1445.72 1828.47,1436.59 1788.03,1436.59 
  "/>
<path clip-path="url(#clip292)" d="
M1828.47 1427.47 L1828.47 1445.72 L1868.9 1445.72 L1868.9 1427.47 L1828.47 1427.47 L1828.47 1427.47  Z
  " fill="#009af9" fill-rule="evenodd" fill-opacity="1"/>
<polyline clip-path="url(#clip292)" style="stroke:#000000; stroke-linecap:butt; stroke-linejoin:round; stroke-width:4; stroke-opacity:1; fill:none" points="
  1828.47,1427.47 1828.47,1445.72 1868.9,1445.72 1868.9,1427.47 1828.47,1427.47 
  "/>
<path clip-path="url(#clip292)" d="
M1868.9 1438.42 L1868.9 1445.72 L1909.34 1445.72 L1909.34 1438.42 L1868.9 1438.42 L1868.9 1438.42  Z
  " fill="#009af9" fill-rule="evenodd" fill-opacity="1"/>
<polyline clip-path="url(#clip292)" style="stroke:#000000; stroke-linecap:butt; stroke-linejoin:round; stroke-width:4; stroke-opacity:1; fill:none" points="
  1868.9,1438.42 1868.9,1445.72 1909.34,1445.72 1909.34,1438.42 1868.9,1438.42 
  "/>
<path clip-path="url(#clip292)" d="
M1909.34 1434.77 L1909.34 1445.72 L1949.77 1445.72 L1949.77 1434.77 L1909.34 1434.77 L1909.34 1434.77  Z
  " fill="#009af9" fill-rule="evenodd" fill-opacity="1"/>
<polyline clip-path="url(#clip292)" style="stroke:#000000; stroke-linecap:butt; stroke-linejoin:round; stroke-width:4; stroke-opacity:1; fill:none" points="
  1909.34,1434.77 1909.34,1445.72 1949.77,1445.72 1949.77,1434.77 1909.34,1434.77 
  "/>
<path clip-path="url(#clip292)" d="
M1949.77 1443.89 L1949.77 1445.72 L1990.2 1445.72 L1990.2 1443.89 L1949.77 1443.89 L1949.77 1443.89  Z
  " fill="#009af9" fill-rule="evenodd" fill-opacity="1"/>
<polyline clip-path="url(#clip292)" style="stroke:#000000; stroke-linecap:butt; stroke-linejoin:round; stroke-width:4; stroke-opacity:1; fill:none" points="
  1949.77,1443.89 1949.77,1445.72 1990.2,1445.72 1990.2,1443.89 1949.77,1443.89 
  "/>
<path clip-path="url(#clip292)" d="
M1990.2 1442.07 L1990.2 1445.72 L2030.64 1445.72 L2030.64 1442.07 L1990.2 1442.07 L1990.2 1442.07  Z
  " fill="#009af9" fill-rule="evenodd" fill-opacity="1"/>
<polyline clip-path="url(#clip292)" style="stroke:#000000; stroke-linecap:butt; stroke-linejoin:round; stroke-width:4; stroke-opacity:1; fill:none" points="
  1990.2,1442.07 1990.2,1445.72 2030.64,1445.72 2030.64,1442.07 1990.2,1442.07 
  "/>
<path clip-path="url(#clip292)" d="
M2030.64 1445.72 L2030.64 1445.72 L2071.07 1445.72 L2071.07 1445.72 L2030.64 1445.72 L2030.64 1445.72  Z
  " fill="#009af9" fill-rule="evenodd" fill-opacity="1"/>
<polyline clip-path="url(#clip292)" style="stroke:#000000; stroke-linecap:butt; stroke-linejoin:round; stroke-width:4; stroke-opacity:1; fill:none" points="
  2030.64,1445.72 2030.64,1445.72 2071.07,1445.72 2030.64,1445.72 
  "/>
<path clip-path="url(#clip292)" d="
M2071.07 1445.72 L2071.07 1445.72 L2111.51 1445.72 L2111.51 1445.72 L2071.07 1445.72 L2071.07 1445.72  Z
  " fill="#009af9" fill-rule="evenodd" fill-opacity="1"/>
<polyline clip-path="url(#clip292)" style="stroke:#000000; stroke-linecap:butt; stroke-linejoin:round; stroke-width:4; stroke-opacity:1; fill:none" points="
  2071.07,1445.72 2071.07,1445.72 2111.51,1445.72 2071.07,1445.72 
  "/>
<path clip-path="url(#clip292)" d="
M2111.51 1445.72 L2111.51 1445.72 L2151.94 1445.72 L2151.94 1445.72 L2111.51 1445.72 L2111.51 1445.72  Z
  " fill="#009af9" fill-rule="evenodd" fill-opacity="1"/>
<polyline clip-path="url(#clip292)" style="stroke:#000000; stroke-linecap:butt; stroke-linejoin:round; stroke-width:4; stroke-opacity:1; fill:none" points="
  2111.51,1445.72 2111.51,1445.72 2151.94,1445.72 2111.51,1445.72 
  "/>
<path clip-path="url(#clip292)" d="
M2151.94 1445.72 L2151.94 1445.72 L2192.38 1445.72 L2192.38 1445.72 L2151.94 1445.72 L2151.94 1445.72  Z
  " fill="#009af9" fill-rule="evenodd" fill-opacity="1"/>
<polyline clip-path="url(#clip292)" style="stroke:#000000; stroke-linecap:butt; stroke-linejoin:round; stroke-width:4; stroke-opacity:1; fill:none" points="
  2151.94,1445.72 2151.94,1445.72 2192.38,1445.72 2151.94,1445.72 
  "/>
<path clip-path="url(#clip292)" d="
M2192.38 1443.89 L2192.38 1445.72 L2232.81 1445.72 L2232.81 1443.89 L2192.38 1443.89 L2192.38 1443.89  Z
  " fill="#009af9" fill-rule="evenodd" fill-opacity="1"/>
<polyline clip-path="url(#clip292)" style="stroke:#000000; stroke-linecap:butt; stroke-linejoin:round; stroke-width:4; stroke-opacity:1; fill:none" points="
  2192.38,1443.89 2192.38,1445.72 2232.81,1445.72 2232.81,1443.89 2192.38,1443.89 
  "/>
<circle clip-path="url(#clip292)" style="fill:#009af9; stroke:none; fill-opacity:0" cx="312.177" cy="1443.89" r="2"/>
<circle clip-path="url(#clip292)" style="fill:#009af9; stroke:none; fill-opacity:0" cx="352.611" cy="1438.42" r="2"/>
<circle clip-path="url(#clip292)" style="fill:#009af9; stroke:none; fill-opacity:0" cx="393.045" cy="1436.59" r="2"/>
<circle clip-path="url(#clip292)" style="fill:#009af9; stroke:none; fill-opacity:0" cx="433.48" cy="1416.52" r="2"/>
<circle clip-path="url(#clip292)" style="fill:#009af9; stroke:none; fill-opacity:0" cx="473.914" cy="1394.62" r="2"/>
<circle clip-path="url(#clip292)" style="fill:#009af9; stroke:none; fill-opacity:0" cx="514.349" cy="1349" r="2"/>
<circle clip-path="url(#clip292)" style="fill:#009af9; stroke:none; fill-opacity:0" cx="554.783" cy="1255.92" r="2"/>
<circle clip-path="url(#clip292)" style="fill:#009af9; stroke:none; fill-opacity:0" cx="595.218" cy="1173.8" r="2"/>
<circle clip-path="url(#clip292)" style="fill:#009af9; stroke:none; fill-opacity:0" cx="635.652" cy="1078.91" r="2"/>
<circle clip-path="url(#clip292)" style="fill:#009af9; stroke:none; fill-opacity:0" cx="676.086" cy="848.967" r="2"/>
<circle clip-path="url(#clip292)" style="fill:#009af9; stroke:none; fill-opacity:0" cx="716.521" cy="770.496" r="2"/>
<circle clip-path="url(#clip292)" style="fill:#009af9; stroke:none; fill-opacity:0" cx="756.955" cy="542.381" r="2"/>
<circle clip-path="url(#clip292)" style="fill:#009af9; stroke:none; fill-opacity:0" cx="797.39" cy="443.835" r="2"/>
<circle clip-path="url(#clip292)" style="fill:#009af9; stroke:none; fill-opacity:0" cx="837.824" cy="296.017" r="2"/>
<circle clip-path="url(#clip292)" style="fill:#009af9; stroke:none; fill-opacity:0" cx="878.258" cy="177.397" r="2"/>
<circle clip-path="url(#clip292)" style="fill:#009af9; stroke:none; fill-opacity:0" cx="918.693" cy="97.1009" r="2"/>
<circle clip-path="url(#clip292)" style="fill:#009af9; stroke:none; fill-opacity:0" cx="959.127" cy="129.949" r="2"/>
<circle clip-path="url(#clip292)" style="fill:#009af9; stroke:none; fill-opacity:0" cx="999.562" cy="87.9763" r="2"/>
<circle clip-path="url(#clip292)" style="fill:#009af9; stroke:none; fill-opacity:0" cx="1040" cy="239.445" r="2"/>
<circle clip-path="url(#clip292)" style="fill:#009af9; stroke:none; fill-opacity:0" cx="1080.43" cy="356.239" r="2"/>
<circle clip-path="url(#clip292)" style="fill:#009af9; stroke:none; fill-opacity:0" cx="1120.86" cy="458.435" r="2"/>
<circle clip-path="url(#clip292)" style="fill:#009af9; stroke:none; fill-opacity:0" cx="1161.3" cy="606.253" r="2"/>
<circle clip-path="url(#clip292)" style="fill:#009af9; stroke:none; fill-opacity:0" cx="1201.73" cy="699.324" r="2"/>
<circle clip-path="url(#clip292)" style="fill:#009af9; stroke:none; fill-opacity:0" cx="1242.17" cy="889.116" r="2"/>
<circle clip-path="url(#clip292)" style="fill:#009af9; stroke:none; fill-opacity:0" cx="1282.6" cy="973.062" r="2"/>
<circle clip-path="url(#clip292)" style="fill:#009af9; stroke:none; fill-opacity:0" cx="1323.04" cy="1058.83" r="2"/>
<circle clip-path="url(#clip292)" style="fill:#009af9; stroke:none; fill-opacity:0" cx="1363.47" cy="1161.03" r="2"/>
<circle clip-path="url(#clip292)" style="fill:#009af9; stroke:none; fill-opacity:0" cx="1403.91" cy="1171.98" r="2"/>
<circle clip-path="url(#clip292)" style="fill:#009af9; stroke:none; fill-opacity:0" cx="1444.34" cy="1252.27" r="2"/>
<circle clip-path="url(#clip292)" style="fill:#009af9; stroke:none; fill-opacity:0" cx="1484.77" cy="1299.72" r="2"/>
<circle clip-path="url(#clip292)" style="fill:#009af9; stroke:none; fill-opacity:0" cx="1525.21" cy="1358.12" r="2"/>
<circle clip-path="url(#clip292)" style="fill:#009af9; stroke:none; fill-opacity:0" cx="1565.64" cy="1365.42" r="2"/>
<circle clip-path="url(#clip292)" style="fill:#009af9; stroke:none; fill-opacity:0" cx="1606.08" cy="1385.49" r="2"/>
<circle clip-path="url(#clip292)" style="fill:#009af9; stroke:none; fill-opacity:0" cx="1646.51" cy="1390.97" r="2"/>
<circle clip-path="url(#clip292)" style="fill:#009af9; stroke:none; fill-opacity:0" cx="1686.95" cy="1409.22" r="2"/>
<circle clip-path="url(#clip292)" style="fill:#009af9; stroke:none; fill-opacity:0" cx="1727.38" cy="1416.52" r="2"/>
<circle clip-path="url(#clip292)" style="fill:#009af9; stroke:none; fill-opacity:0" cx="1767.82" cy="1421.99" r="2"/>
<circle clip-path="url(#clip292)" style="fill:#009af9; stroke:none; fill-opacity:0" cx="1808.25" cy="1436.59" r="2"/>
<circle clip-path="url(#clip292)" style="fill:#009af9; stroke:none; fill-opacity:0" cx="1848.68" cy="1427.47" r="2"/>
<circle clip-path="url(#clip292)" style="fill:#009af9; stroke:none; fill-opacity:0" cx="1889.12" cy="1438.42" r="2"/>
<circle clip-path="url(#clip292)" style="fill:#009af9; stroke:none; fill-opacity:0" cx="1929.55" cy="1434.77" r="2"/>
<circle clip-path="url(#clip292)" style="fill:#009af9; stroke:none; fill-opacity:0" cx="1969.99" cy="1443.89" r="2"/>
<circle clip-path="url(#clip292)" style="fill:#009af9; stroke:none; fill-opacity:0" cx="2010.42" cy="1442.07" r="2"/>
<circle clip-path="url(#clip292)" style="fill:#009af9; stroke:none; fill-opacity:0" cx="2050.86" cy="1445.72" r="2"/>
<circle clip-path="url(#clip292)" style="fill:#009af9; stroke:none; fill-opacity:0" cx="2091.29" cy="1445.72" r="2"/>
<circle clip-path="url(#clip292)" style="fill:#009af9; stroke:none; fill-opacity:0" cx="2131.73" cy="1445.72" r="2"/>
<circle clip-path="url(#clip292)" style="fill:#009af9; stroke:none; fill-opacity:0" cx="2172.16" cy="1445.72" r="2"/>
<circle clip-path="url(#clip292)" style="fill:#009af9; stroke:none; fill-opacity:0" cx="2212.59" cy="1443.89" r="2"/>
<path clip-path="url(#clip290)" d="
M1985.33 198.898 L2280.06 198.898 L2280.06 95.2176 L1985.33 95.2176  Z
  " fill="#ffffff" fill-rule="evenodd" fill-opacity="1"/>
<polyline clip-path="url(#clip290)" style="stroke:#000000; stroke-linecap:butt; stroke-linejoin:round; stroke-width:4; stroke-opacity:1; fill:none" points="
  1985.33,198.898 2280.06,198.898 2280.06,95.2176 1985.33,95.2176 1985.33,198.898 
  "/>
<path clip-path="url(#clip290)" d="
M2009.56 167.794 L2154.94 167.794 L2154.94 126.322 L2009.56 126.322 L2009.56 167.794  Z
  " fill="#009af9" fill-rule="evenodd" fill-opacity="1"/>
<polyline clip-path="url(#clip290)" style="stroke:#000000; stroke-linecap:butt; stroke-linejoin:round; stroke-width:4; stroke-opacity:1; fill:none" points="
  2009.56,167.794 2154.94,167.794 2154.94,126.322 2009.56,126.322 2009.56,167.794 
  "/>
<path clip-path="url(#clip290)" d="M2193.02 166.745 Q2191.21 171.375 2189.5 172.787 Q2187.78 174.199 2184.91 174.199 L2181.51 174.199 L2181.51 170.634 L2184.01 170.634 Q2185.77 170.634 2186.74 169.8 Q2187.71 168.967 2188.9 165.865 L2189.66 163.921 L2179.17 138.412 L2183.69 138.412 L2191.79 158.689 L2199.89 138.412 L2204.4 138.412 L2193.02 166.745 Z" fill="#000000" fill-rule="evenodd" fill-opacity="1" /><path clip-path="url(#clip290)" d="M2211.7 160.402 L2219.34 160.402 L2219.34 134.037 L2211.03 135.703 L2211.03 131.444 L2219.29 129.778 L2223.96 129.778 L2223.96 160.402 L2231.6 160.402 L2231.6 164.338 L2211.7 164.338 L2211.7 160.402 Z" fill="#000000" fill-rule="evenodd" fill-opacity="1" /></svg>
