<?xml version="1.0" encoding="utf-8"?>
<svg xmlns="http://www.w3.org/2000/svg" xmlns:xlink="http://www.w3.org/1999/xlink" width="600" height="400" viewBox="0 0 2400 1600">
<defs>
  <clipPath id="clip370">
    <rect x="0" y="0" width="2400" height="1600"/>
  </clipPath>
</defs>
<path clip-path="url(#clip370)" d="
M0 1600 L2400 1600 L2400 0 L0 0  Z
  " fill="#ffffff" fill-rule="evenodd" fill-opacity="1"/>
<defs>
  <clipPath id="clip371">
    <rect x="480" y="0" width="1681" height="1600"/>
  </clipPath>
</defs>
<path clip-path="url(#clip370)" d="
M172.015 1486.45 L2352.76 1486.45 L2352.76 47.2441 L172.015 47.2441  Z
  " fill="#ffffff" fill-rule="evenodd" fill-opacity="1"/>
<defs>
  <clipPath id="clip372">
    <rect x="172" y="47" width="2182" height="1440"/>
  </clipPath>
</defs>
<polyline clip-path="url(#clip372)" style="stroke:#000000; stroke-linecap:butt; stroke-linejoin:round; stroke-width:2; stroke-opacity:0.1; fill:none" points="
  491.021,1486.45 491.021,47.2441 
  "/>
<polyline clip-path="url(#clip372)" style="stroke:#000000; stroke-linecap:butt; stroke-linejoin:round; stroke-width:2; stroke-opacity:0.1; fill:none" points="
  988.675,1486.45 988.675,47.2441 
  "/>
<polyline clip-path="url(#clip372)" style="stroke:#000000; stroke-linecap:butt; stroke-linejoin:round; stroke-width:2; stroke-opacity:0.1; fill:none" points="
  1486.33,1486.45 1486.33,47.2441 
  "/>
<polyline clip-path="url(#clip372)" style="stroke:#000000; stroke-linecap:butt; stroke-linejoin:round; stroke-width:2; stroke-opacity:0.1; fill:none" points="
  1983.98,1486.45 1983.98,47.2441 
  "/>
<polyline clip-path="url(#clip370)" style="stroke:#000000; stroke-linecap:butt; stroke-linejoin:round; stroke-width:4; stroke-opacity:1; fill:none" points="
  172.015,1486.45 2352.76,1486.45 
  "/>
<polyline clip-path="url(#clip370)" style="stroke:#000000; stroke-linecap:butt; stroke-linejoin:round; stroke-width:4; stroke-opacity:1; fill:none" points="
  491.021,1486.45 491.021,1467.55 
  "/>
<polyline clip-path="url(#clip370)" style="stroke:#000000; stroke-linecap:butt; stroke-linejoin:round; stroke-width:4; stroke-opacity:1; fill:none" points="
  988.675,1486.45 988.675,1467.55 
  "/>
<polyline clip-path="url(#clip370)" style="stroke:#000000; stroke-linecap:butt; stroke-linejoin:round; stroke-width:4; stroke-opacity:1; fill:none" points="
  1486.33,1486.45 1486.33,1467.55 
  "/>
<polyline clip-path="url(#clip370)" style="stroke:#000000; stroke-linecap:butt; stroke-linejoin:round; stroke-width:4; stroke-opacity:1; fill:none" points="
  1983.98,1486.45 1983.98,1467.55 
  "/>
<path clip-path="url(#clip370)" d="M439.633 1544.91 L455.952 1544.91 L455.952 1548.85 L434.008 1548.85 L434.008 1544.91 Q436.67 1542.16 441.253 1537.53 Q445.859 1532.88 447.04 1531.53 Q449.285 1529.01 450.165 1527.27 Q451.068 1525.51 451.068 1523.82 Q451.068 1521.07 449.123 1519.33 Q447.202 1517.6 444.1 1517.6 Q441.901 1517.6 439.447 1518.36 Q437.017 1519.13 434.239 1520.68 L434.239 1515.95 Q437.063 1514.82 439.517 1514.24 Q441.971 1513.66 444.008 1513.66 Q449.378 1513.66 452.572 1516.35 Q455.767 1519.03 455.767 1523.52 Q455.767 1525.65 454.957 1527.57 Q454.17 1529.47 452.063 1532.07 Q451.484 1532.74 448.383 1535.95 Q445.281 1539.15 439.633 1544.91 Z" fill="#000000" fill-rule="evenodd" fill-opacity="1" /><path clip-path="url(#clip370)" d="M465.813 1514.29 L484.169 1514.29 L484.169 1518.22 L470.095 1518.22 L470.095 1526.7 Q471.114 1526.35 472.132 1526.19 Q473.151 1526 474.169 1526 Q479.956 1526 483.336 1529.17 Q486.716 1532.34 486.716 1537.76 Q486.716 1543.34 483.243 1546.44 Q479.771 1549.52 473.452 1549.52 Q471.276 1549.52 469.007 1549.15 Q466.762 1548.78 464.355 1548.04 L464.355 1543.34 Q466.438 1544.47 468.66 1545.03 Q470.882 1545.58 473.359 1545.58 Q477.364 1545.58 479.702 1543.48 Q482.04 1541.37 482.04 1537.76 Q482.04 1534.15 479.702 1532.04 Q477.364 1529.94 473.359 1529.94 Q471.484 1529.94 469.609 1530.35 Q467.757 1530.77 465.813 1531.65 L465.813 1514.29 Z" fill="#000000" fill-rule="evenodd" fill-opacity="1" /><path clip-path="url(#clip370)" d="M505.929 1517.37 Q502.317 1517.37 500.489 1520.93 Q498.683 1524.47 498.683 1531.6 Q498.683 1538.71 500.489 1542.27 Q502.317 1545.82 505.929 1545.82 Q509.563 1545.82 511.368 1542.27 Q513.197 1538.71 513.197 1531.6 Q513.197 1524.47 511.368 1520.93 Q509.563 1517.37 505.929 1517.37 M505.929 1513.66 Q511.739 1513.66 514.794 1518.27 Q517.873 1522.85 517.873 1531.6 Q517.873 1540.33 514.794 1544.94 Q511.739 1549.52 505.929 1549.52 Q500.118 1549.52 497.04 1544.94 Q493.984 1540.33 493.984 1531.6 Q493.984 1522.85 497.04 1518.27 Q500.118 1513.66 505.929 1513.66 Z" fill="#000000" fill-rule="evenodd" fill-opacity="1" /><path clip-path="url(#clip370)" d="M536.09 1517.37 Q532.479 1517.37 530.651 1520.93 Q528.845 1524.47 528.845 1531.6 Q528.845 1538.71 530.651 1542.27 Q532.479 1545.82 536.09 1545.82 Q539.725 1545.82 541.53 1542.27 Q543.359 1538.71 543.359 1531.6 Q543.359 1524.47 541.53 1520.93 Q539.725 1517.37 536.09 1517.37 M536.09 1513.66 Q541.901 1513.66 544.956 1518.27 Q548.035 1522.85 548.035 1531.6 Q548.035 1540.33 544.956 1544.94 Q541.901 1549.52 536.09 1549.52 Q530.28 1549.52 527.202 1544.94 Q524.146 1540.33 524.146 1531.6 Q524.146 1522.85 527.202 1518.27 Q530.28 1513.66 536.09 1513.66 Z" fill="#000000" fill-rule="evenodd" fill-opacity="1" /><path clip-path="url(#clip370)" d="M947.356 1530.21 Q950.713 1530.93 952.588 1533.2 Q954.486 1535.47 954.486 1538.8 Q954.486 1543.92 950.967 1546.72 Q947.449 1549.52 940.967 1549.52 Q938.792 1549.52 936.477 1549.08 Q934.185 1548.66 931.731 1547.81 L931.731 1543.29 Q933.676 1544.43 935.991 1545.01 Q938.305 1545.58 940.829 1545.58 Q945.227 1545.58 947.518 1543.85 Q949.833 1542.11 949.833 1538.8 Q949.833 1535.75 947.68 1534.03 Q945.551 1532.3 941.731 1532.3 L937.704 1532.3 L937.704 1528.45 L941.916 1528.45 Q945.366 1528.45 947.194 1527.09 Q949.023 1525.7 949.023 1523.11 Q949.023 1520.45 947.125 1519.03 Q945.25 1517.6 941.731 1517.6 Q939.81 1517.6 937.611 1518.01 Q935.412 1518.43 932.773 1519.31 L932.773 1515.14 Q935.435 1514.4 937.75 1514.03 Q940.088 1513.66 942.148 1513.66 Q947.472 1513.66 950.574 1516.09 Q953.676 1518.5 953.676 1522.62 Q953.676 1525.49 952.032 1527.48 Q950.389 1529.45 947.356 1530.21 Z" fill="#000000" fill-rule="evenodd" fill-opacity="1" /><path clip-path="url(#clip370)" d="M973.352 1517.37 Q969.74 1517.37 967.912 1520.93 Q966.106 1524.47 966.106 1531.6 Q966.106 1538.71 967.912 1542.27 Q969.74 1545.82 973.352 1545.82 Q976.986 1545.82 978.791 1542.27 Q980.62 1538.71 980.62 1531.6 Q980.62 1524.47 978.791 1520.93 Q976.986 1517.37 973.352 1517.37 M973.352 1513.66 Q979.162 1513.66 982.217 1518.27 Q985.296 1522.85 985.296 1531.6 Q985.296 1540.33 982.217 1544.94 Q979.162 1549.52 973.352 1549.52 Q967.541 1549.52 964.463 1544.94 Q961.407 1540.33 961.407 1531.6 Q961.407 1522.85 964.463 1518.27 Q967.541 1513.66 973.352 1513.66 Z" fill="#000000" fill-rule="evenodd" fill-opacity="1" /><path clip-path="url(#clip370)" d="M1003.51 1517.37 Q999.902 1517.37 998.074 1520.93 Q996.268 1524.47 996.268 1531.6 Q996.268 1538.71 998.074 1542.27 Q999.902 1545.82 1003.51 1545.82 Q1007.15 1545.82 1008.95 1542.27 Q1010.78 1538.71 1010.78 1531.6 Q1010.78 1524.47 1008.95 1520.93 Q1007.15 1517.37 1003.51 1517.37 M1003.51 1513.66 Q1009.32 1513.66 1012.38 1518.27 Q1015.46 1522.85 1015.46 1531.6 Q1015.46 1540.33 1012.38 1544.94 Q1009.32 1549.52 1003.51 1549.52 Q997.703 1549.52 994.625 1544.94 Q991.569 1540.33 991.569 1531.6 Q991.569 1522.85 994.625 1518.27 Q997.703 1513.66 1003.51 1513.66 Z" fill="#000000" fill-rule="evenodd" fill-opacity="1" /><path clip-path="url(#clip370)" d="M1033.68 1517.37 Q1030.06 1517.37 1028.24 1520.93 Q1026.43 1524.47 1026.43 1531.6 Q1026.43 1538.71 1028.24 1542.27 Q1030.06 1545.82 1033.68 1545.82 Q1037.31 1545.82 1039.12 1542.27 Q1040.94 1538.71 1040.94 1531.6 Q1040.94 1524.47 1039.12 1520.93 Q1037.31 1517.37 1033.68 1517.37 M1033.68 1513.66 Q1039.49 1513.66 1042.54 1518.27 Q1045.62 1522.85 1045.62 1531.6 Q1045.62 1540.33 1042.54 1544.94 Q1039.49 1549.52 1033.68 1549.52 Q1027.87 1549.52 1024.79 1544.94 Q1021.73 1540.33 1021.73 1531.6 Q1021.73 1522.85 1024.79 1518.27 Q1027.87 1513.66 1033.68 1513.66 Z" fill="#000000" fill-rule="evenodd" fill-opacity="1" /><path clip-path="url(#clip370)" d="M1445.01 1530.21 Q1448.37 1530.93 1450.24 1533.2 Q1452.14 1535.47 1452.14 1538.8 Q1452.14 1543.92 1448.62 1546.72 Q1445.1 1549.52 1438.62 1549.52 Q1436.45 1549.52 1434.13 1549.08 Q1431.84 1548.66 1429.39 1547.81 L1429.39 1543.29 Q1431.33 1544.43 1433.64 1545.01 Q1435.96 1545.58 1438.48 1545.58 Q1442.88 1545.58 1445.17 1543.85 Q1447.49 1542.11 1447.49 1538.8 Q1447.49 1535.75 1445.33 1534.03 Q1443.21 1532.3 1439.39 1532.3 L1435.36 1532.3 L1435.36 1528.45 L1439.57 1528.45 Q1443.02 1528.45 1444.85 1527.09 Q1446.68 1525.7 1446.68 1523.11 Q1446.68 1520.45 1444.78 1519.03 Q1442.9 1517.6 1439.39 1517.6 Q1437.46 1517.6 1435.27 1518.01 Q1433.07 1518.43 1430.43 1519.31 L1430.43 1515.14 Q1433.09 1514.4 1435.4 1514.03 Q1437.74 1513.66 1439.8 1513.66 Q1445.13 1513.66 1448.23 1516.09 Q1451.33 1518.5 1451.33 1522.62 Q1451.33 1525.49 1449.69 1527.48 Q1448.04 1529.45 1445.01 1530.21 Z" fill="#000000" fill-rule="evenodd" fill-opacity="1" /><path clip-path="url(#clip370)" d="M1461.05 1514.29 L1479.41 1514.29 L1479.41 1518.22 L1465.33 1518.22 L1465.33 1526.7 Q1466.35 1526.35 1467.37 1526.19 Q1468.39 1526 1469.41 1526 Q1475.2 1526 1478.58 1529.17 Q1481.95 1532.34 1481.95 1537.76 Q1481.95 1543.34 1478.48 1546.44 Q1475.01 1549.52 1468.69 1549.52 Q1466.52 1549.52 1464.25 1549.15 Q1462 1548.78 1459.59 1548.04 L1459.59 1543.34 Q1461.68 1544.47 1463.9 1545.03 Q1466.12 1545.58 1468.6 1545.58 Q1472.6 1545.58 1474.94 1543.48 Q1477.28 1541.37 1477.28 1537.76 Q1477.28 1534.15 1474.94 1532.04 Q1472.6 1529.94 1468.6 1529.94 Q1466.72 1529.94 1464.85 1530.35 Q1463 1530.77 1461.05 1531.65 L1461.05 1514.29 Z" fill="#000000" fill-rule="evenodd" fill-opacity="1" /><path clip-path="url(#clip370)" d="M1501.17 1517.37 Q1497.56 1517.37 1495.73 1520.93 Q1493.92 1524.47 1493.92 1531.6 Q1493.92 1538.71 1495.73 1542.27 Q1497.56 1545.82 1501.17 1545.82 Q1504.8 1545.82 1506.61 1542.27 Q1508.44 1538.71 1508.44 1531.6 Q1508.44 1524.47 1506.61 1520.93 Q1504.8 1517.37 1501.17 1517.37 M1501.17 1513.66 Q1506.98 1513.66 1510.03 1518.27 Q1513.11 1522.85 1513.11 1531.6 Q1513.11 1540.33 1510.03 1544.94 Q1506.98 1549.52 1501.17 1549.52 Q1495.36 1549.52 1492.28 1544.94 Q1489.22 1540.33 1489.22 1531.6 Q1489.22 1522.85 1492.28 1518.27 Q1495.36 1513.66 1501.17 1513.66 Z" fill="#000000" fill-rule="evenodd" fill-opacity="1" /><path clip-path="url(#clip370)" d="M1531.33 1517.37 Q1527.72 1517.37 1525.89 1520.93 Q1524.08 1524.47 1524.08 1531.6 Q1524.08 1538.71 1525.89 1542.27 Q1527.72 1545.82 1531.33 1545.82 Q1534.96 1545.82 1536.77 1542.27 Q1538.6 1538.71 1538.6 1531.6 Q1538.6 1524.47 1536.77 1520.93 Q1534.96 1517.37 1531.33 1517.37 M1531.33 1513.66 Q1537.14 1513.66 1540.2 1518.27 Q1543.27 1522.85 1543.27 1531.6 Q1543.27 1540.33 1540.2 1544.94 Q1537.14 1549.52 1531.33 1549.52 Q1525.52 1549.52 1522.44 1544.94 Q1519.39 1540.33 1519.39 1531.6 Q1519.39 1522.85 1522.44 1518.27 Q1525.52 1513.66 1531.33 1513.66 Z" fill="#000000" fill-rule="evenodd" fill-opacity="1" /><path clip-path="url(#clip370)" d="M1941.99 1518.36 L1930.19 1536.81 L1941.99 1536.81 L1941.99 1518.36 M1940.77 1514.29 L1946.65 1514.29 L1946.65 1536.81 L1951.58 1536.81 L1951.58 1540.7 L1946.65 1540.7 L1946.65 1548.85 L1941.99 1548.85 L1941.99 1540.7 L1926.39 1540.7 L1926.39 1536.19 L1940.77 1514.29 Z" fill="#000000" fill-rule="evenodd" fill-opacity="1" /><path clip-path="url(#clip370)" d="M1969.31 1517.37 Q1965.7 1517.37 1963.87 1520.93 Q1962.06 1524.47 1962.06 1531.6 Q1962.06 1538.71 1963.87 1542.27 Q1965.7 1545.82 1969.31 1545.82 Q1972.94 1545.82 1974.75 1542.27 Q1976.58 1538.71 1976.58 1531.6 Q1976.58 1524.47 1974.75 1520.93 Q1972.94 1517.37 1969.31 1517.37 M1969.31 1513.66 Q1975.12 1513.66 1978.17 1518.27 Q1981.25 1522.85 1981.25 1531.6 Q1981.25 1540.33 1978.17 1544.94 Q1975.12 1549.52 1969.31 1549.52 Q1963.5 1549.52 1960.42 1544.94 Q1957.36 1540.33 1957.36 1531.6 Q1957.36 1522.85 1960.42 1518.27 Q1963.5 1513.66 1969.31 1513.66 Z" fill="#000000" fill-rule="evenodd" fill-opacity="1" /><path clip-path="url(#clip370)" d="M1999.47 1517.37 Q1995.86 1517.37 1994.03 1520.93 Q1992.22 1524.47 1992.22 1531.6 Q1992.22 1538.71 1994.03 1542.27 Q1995.86 1545.82 1999.47 1545.82 Q2003.1 1545.82 2004.91 1542.27 Q2006.74 1538.71 2006.74 1531.6 Q2006.74 1524.47 2004.91 1520.93 Q2003.1 1517.37 1999.47 1517.37 M1999.47 1513.66 Q2005.28 1513.66 2008.34 1518.27 Q2011.41 1522.85 2011.41 1531.6 Q2011.41 1540.33 2008.34 1544.94 Q2005.28 1549.52 1999.47 1549.52 Q1993.66 1549.52 1990.58 1544.94 Q1987.53 1540.33 1987.53 1531.6 Q1987.53 1522.85 1990.58 1518.27 Q1993.66 1513.66 1999.47 1513.66 Z" fill="#000000" fill-rule="evenodd" fill-opacity="1" /><path clip-path="url(#clip370)" d="M2029.63 1517.37 Q2026.02 1517.37 2024.19 1520.93 Q2022.39 1524.47 2022.39 1531.6 Q2022.39 1538.71 2024.19 1542.27 Q2026.02 1545.82 2029.63 1545.82 Q2033.27 1545.82 2035.07 1542.27 Q2036.9 1538.71 2036.9 1531.6 Q2036.9 1524.47 2035.07 1520.93 Q2033.27 1517.37 2029.63 1517.37 M2029.63 1513.66 Q2035.44 1513.66 2038.5 1518.27 Q2041.58 1522.85 2041.58 1531.6 Q2041.58 1540.33 2038.5 1544.94 Q2035.44 1549.52 2029.63 1549.52 Q2023.82 1549.52 2020.74 1544.94 Q2017.69 1540.33 2017.69 1531.6 Q2017.69 1522.85 2020.74 1518.27 Q2023.82 1513.66 2029.63 1513.66 Z" fill="#000000" fill-rule="evenodd" fill-opacity="1" /><polyline clip-path="url(#clip372)" style="stroke:#000000; stroke-linecap:butt; stroke-linejoin:round; stroke-width:2; stroke-opacity:0.1; fill:none" points="
  172.015,1445.72 2352.76,1445.72 
  "/>
<polyline clip-path="url(#clip372)" style="stroke:#000000; stroke-linecap:butt; stroke-linejoin:round; stroke-width:2; stroke-opacity:0.1; fill:none" points="
  172.015,1156.22 2352.76,1156.22 
  "/>
<polyline clip-path="url(#clip372)" style="stroke:#000000; stroke-linecap:butt; stroke-linejoin:round; stroke-width:2; stroke-opacity:0.1; fill:none" points="
  172.015,866.722 2352.76,866.722 
  "/>
<polyline clip-path="url(#clip372)" style="stroke:#000000; stroke-linecap:butt; stroke-linejoin:round; stroke-width:2; stroke-opacity:0.1; fill:none" points="
  172.015,577.226 2352.76,577.226 
  "/>
<polyline clip-path="url(#clip372)" style="stroke:#000000; stroke-linecap:butt; stroke-linejoin:round; stroke-width:2; stroke-opacity:0.1; fill:none" points="
  172.015,287.729 2352.76,287.729 
  "/>
<polyline clip-path="url(#clip370)" style="stroke:#000000; stroke-linecap:butt; stroke-linejoin:round; stroke-width:4; stroke-opacity:1; fill:none" points="
  172.015,1486.45 172.015,47.2441 
  "/>
<polyline clip-path="url(#clip370)" style="stroke:#000000; stroke-linecap:butt; stroke-linejoin:round; stroke-width:4; stroke-opacity:1; fill:none" points="
  172.015,1445.72 190.912,1445.72 
  "/>
<polyline clip-path="url(#clip370)" style="stroke:#000000; stroke-linecap:butt; stroke-linejoin:round; stroke-width:4; stroke-opacity:1; fill:none" points="
  172.015,1156.22 190.912,1156.22 
  "/>
<polyline clip-path="url(#clip370)" style="stroke:#000000; stroke-linecap:butt; stroke-linejoin:round; stroke-width:4; stroke-opacity:1; fill:none" points="
  172.015,866.722 190.912,866.722 
  "/>
<polyline clip-path="url(#clip370)" style="stroke:#000000; stroke-linecap:butt; stroke-linejoin:round; stroke-width:4; stroke-opacity:1; fill:none" points="
  172.015,577.226 190.912,577.226 
  "/>
<polyline clip-path="url(#clip370)" style="stroke:#000000; stroke-linecap:butt; stroke-linejoin:round; stroke-width:4; stroke-opacity:1; fill:none" points="
  172.015,287.729 190.912,287.729 
  "/>
<path clip-path="url(#clip370)" d="M124.07 1431.51 Q120.459 1431.51 118.631 1435.08 Q116.825 1438.62 116.825 1445.75 Q116.825 1452.86 118.631 1456.42 Q120.459 1459.96 124.07 1459.96 Q127.705 1459.96 129.51 1456.42 Q131.339 1452.86 131.339 1445.75 Q131.339 1438.62 129.51 1435.08 Q127.705 1431.51 124.07 1431.51 M124.07 1427.81 Q129.881 1427.81 132.936 1432.42 Q136.015 1437 136.015 1445.75 Q136.015 1454.48 132.936 1459.08 Q129.881 1463.67 124.07 1463.67 Q118.26 1463.67 115.182 1459.08 Q112.126 1454.48 112.126 1445.75 Q112.126 1437 115.182 1432.42 Q118.26 1427.81 124.07 1427.81 Z" fill="#000000" fill-rule="evenodd" fill-opacity="1" /><path clip-path="url(#clip370)" d="M57.7745 1169.56 L74.0939 1169.56 L74.0939 1173.5 L52.1495 1173.5 L52.1495 1169.56 Q54.8115 1166.81 59.3949 1162.18 Q64.0013 1157.53 65.1819 1156.18 Q67.4272 1153.66 68.3068 1151.93 Q69.2096 1150.17 69.2096 1148.48 Q69.2096 1145.72 67.2652 1143.99 Q65.3439 1142.25 62.2421 1142.25 Q60.043 1142.25 57.5893 1143.01 Q55.1588 1143.78 52.381 1145.33 L52.381 1140.61 Q55.2051 1139.47 57.6588 1138.89 Q60.1124 1138.31 62.1495 1138.31 Q67.5198 1138.31 70.7142 1141 Q73.9087 1143.68 73.9087 1148.18 Q73.9087 1150.3 73.0985 1152.23 Q72.3115 1154.12 70.205 1156.72 Q69.6263 1157.39 66.5245 1160.61 Q63.4226 1163.8 57.7745 1169.56 Z" fill="#000000" fill-rule="evenodd" fill-opacity="1" /><path clip-path="url(#clip370)" d="M93.9086 1142.02 Q90.2975 1142.02 88.4688 1145.58 Q86.6632 1149.12 86.6632 1156.25 Q86.6632 1163.36 88.4688 1166.92 Q90.2975 1170.47 93.9086 1170.47 Q97.5428 1170.47 99.3483 1166.92 Q101.177 1163.36 101.177 1156.25 Q101.177 1149.12 99.3483 1145.58 Q97.5428 1142.02 93.9086 1142.02 M93.9086 1138.31 Q99.7187 1138.31 102.774 1142.92 Q105.853 1147.5 105.853 1156.25 Q105.853 1164.98 102.774 1169.59 Q99.7187 1174.17 93.9086 1174.17 Q88.0984 1174.17 85.0197 1169.59 Q81.9642 1164.98 81.9642 1156.25 Q81.9642 1147.5 85.0197 1142.92 Q88.0984 1138.31 93.9086 1138.31 Z" fill="#000000" fill-rule="evenodd" fill-opacity="1" /><path clip-path="url(#clip370)" d="M124.07 1142.02 Q120.459 1142.02 118.631 1145.58 Q116.825 1149.12 116.825 1156.25 Q116.825 1163.36 118.631 1166.92 Q120.459 1170.47 124.07 1170.47 Q127.705 1170.47 129.51 1166.92 Q131.339 1163.36 131.339 1156.25 Q131.339 1149.12 129.51 1145.58 Q127.705 1142.02 124.07 1142.02 M124.07 1138.31 Q129.881 1138.31 132.936 1142.92 Q136.015 1147.5 136.015 1156.25 Q136.015 1164.98 132.936 1169.59 Q129.881 1174.17 124.07 1174.17 Q118.26 1174.17 115.182 1169.59 Q112.126 1164.98 112.126 1156.25 Q112.126 1147.5 115.182 1142.92 Q118.26 1138.31 124.07 1138.31 Z" fill="#000000" fill-rule="evenodd" fill-opacity="1" /><path clip-path="url(#clip370)" d="M66.5939 853.516 L54.7884 871.965 L66.5939 871.965 L66.5939 853.516 M65.367 849.442 L71.2466 849.442 L71.2466 871.965 L76.1772 871.965 L76.1772 875.854 L71.2466 875.854 L71.2466 884.002 L66.5939 884.002 L66.5939 875.854 L50.9921 875.854 L50.9921 871.34 L65.367 849.442 Z" fill="#000000" fill-rule="evenodd" fill-opacity="1" /><path clip-path="url(#clip370)" d="M93.9086 852.521 Q90.2975 852.521 88.4688 856.086 Q86.6632 859.627 86.6632 866.757 Q86.6632 873.864 88.4688 877.428 Q90.2975 880.97 93.9086 880.97 Q97.5428 880.97 99.3483 877.428 Q101.177 873.864 101.177 866.757 Q101.177 859.627 99.3483 856.086 Q97.5428 852.521 93.9086 852.521 M93.9086 848.817 Q99.7187 848.817 102.774 853.424 Q105.853 858.007 105.853 866.757 Q105.853 875.484 102.774 880.09 Q99.7187 884.674 93.9086 884.674 Q88.0984 884.674 85.0197 880.09 Q81.9642 875.484 81.9642 866.757 Q81.9642 858.007 85.0197 853.424 Q88.0984 848.817 93.9086 848.817 Z" fill="#000000" fill-rule="evenodd" fill-opacity="1" /><path clip-path="url(#clip370)" d="M124.07 852.521 Q120.459 852.521 118.631 856.086 Q116.825 859.627 116.825 866.757 Q116.825 873.864 118.631 877.428 Q120.459 880.97 124.07 880.97 Q127.705 880.97 129.51 877.428 Q131.339 873.864 131.339 866.757 Q131.339 859.627 129.51 856.086 Q127.705 852.521 124.07 852.521 M124.07 848.817 Q129.881 848.817 132.936 853.424 Q136.015 858.007 136.015 866.757 Q136.015 875.484 132.936 880.09 Q129.881 884.674 124.07 884.674 Q118.26 884.674 115.182 880.09 Q112.126 875.484 112.126 866.757 Q112.126 858.007 115.182 853.424 Q118.26 848.817 124.07 848.817 Z" fill="#000000" fill-rule="evenodd" fill-opacity="1" /><path clip-path="url(#clip370)" d="M64.3254 575.362 Q61.1773 575.362 59.3254 577.515 Q57.4967 579.668 57.4967 583.418 Q57.4967 587.145 59.3254 589.321 Q61.1773 591.473 64.3254 591.473 Q67.4735 591.473 69.3022 589.321 Q71.1541 587.145 71.1541 583.418 Q71.1541 579.668 69.3022 577.515 Q67.4735 575.362 64.3254 575.362 M73.6077 560.71 L73.6077 564.969 Q71.8485 564.135 70.0429 563.696 Q68.2606 563.256 66.5013 563.256 Q61.8717 563.256 59.418 566.381 Q56.9875 569.506 56.6402 575.825 Q58.006 573.811 60.0662 572.747 Q62.1263 571.659 64.6032 571.659 Q69.8115 571.659 72.8207 574.83 Q75.8531 577.978 75.8531 583.418 Q75.8531 588.742 72.705 591.959 Q69.5568 595.177 64.3254 595.177 Q58.33 595.177 55.1588 590.594 Q51.9875 585.987 51.9875 577.26 Q51.9875 569.066 55.8764 564.205 Q59.7652 559.321 66.3161 559.321 Q68.0754 559.321 69.8578 559.668 Q71.6633 560.015 73.6077 560.71 Z" fill="#000000" fill-rule="evenodd" fill-opacity="1" /><path clip-path="url(#clip370)" d="M93.9086 563.024 Q90.2975 563.024 88.4688 566.589 Q86.6632 570.131 86.6632 577.26 Q86.6632 584.367 88.4688 587.932 Q90.2975 591.473 93.9086 591.473 Q97.5428 591.473 99.3483 587.932 Q101.177 584.367 101.177 577.26 Q101.177 570.131 99.3483 566.589 Q97.5428 563.024 93.9086 563.024 M93.9086 559.321 Q99.7187 559.321 102.774 563.927 Q105.853 568.51 105.853 577.26 Q105.853 585.987 102.774 590.594 Q99.7187 595.177 93.9086 595.177 Q88.0984 595.177 85.0197 590.594 Q81.9642 585.987 81.9642 577.26 Q81.9642 568.51 85.0197 563.927 Q88.0984 559.321 93.9086 559.321 Z" fill="#000000" fill-rule="evenodd" fill-opacity="1" /><path clip-path="url(#clip370)" d="M124.07 563.024 Q120.459 563.024 118.631 566.589 Q116.825 570.131 116.825 577.26 Q116.825 584.367 118.631 587.932 Q120.459 591.473 124.07 591.473 Q127.705 591.473 129.51 587.932 Q131.339 584.367 131.339 577.26 Q131.339 570.131 129.51 566.589 Q127.705 563.024 124.07 563.024 M124.07 559.321 Q129.881 559.321 132.936 563.927 Q136.015 568.51 136.015 577.26 Q136.015 585.987 132.936 590.594 Q129.881 595.177 124.07 595.177 Q118.26 595.177 115.182 590.594 Q112.126 585.987 112.126 577.26 Q112.126 568.51 115.182 563.927 Q118.26 559.321 124.07 559.321 Z" fill="#000000" fill-rule="evenodd" fill-opacity="1" /><path clip-path="url(#clip370)" d="M63.7467 288.597 Q60.4134 288.597 58.4921 290.379 Q56.5939 292.162 56.5939 295.287 Q56.5939 298.412 58.4921 300.194 Q60.4134 301.977 63.7467 301.977 Q67.08 301.977 69.0013 300.194 Q70.9226 298.389 70.9226 295.287 Q70.9226 292.162 69.0013 290.379 Q67.1032 288.597 63.7467 288.597 M59.0708 286.606 Q56.0615 285.866 54.3717 283.805 Q52.7051 281.745 52.7051 278.782 Q52.7051 274.639 55.6449 272.231 Q58.6078 269.824 63.7467 269.824 Q68.9087 269.824 71.8485 272.231 Q74.7883 274.639 74.7883 278.782 Q74.7883 281.745 73.0985 283.805 Q71.4318 285.866 68.4457 286.606 Q71.8253 287.393 73.7003 289.685 Q75.5985 291.977 75.5985 295.287 Q75.5985 300.31 72.5198 302.995 Q69.4642 305.68 63.7467 305.68 Q58.0291 305.68 54.9504 302.995 Q51.8949 300.31 51.8949 295.287 Q51.8949 291.977 53.793 289.685 Q55.6912 287.393 59.0708 286.606 M57.3578 279.222 Q57.3578 281.907 59.0245 283.412 Q60.7143 284.916 63.7467 284.916 Q66.7559 284.916 68.4457 283.412 Q70.1587 281.907 70.1587 279.222 Q70.1587 276.537 68.4457 275.032 Q66.7559 273.528 63.7467 273.528 Q60.7143 273.528 59.0245 275.032 Q57.3578 276.537 57.3578 279.222 Z" fill="#000000" fill-rule="evenodd" fill-opacity="1" /><path clip-path="url(#clip370)" d="M93.9086 273.528 Q90.2975 273.528 88.4688 277.092 Q86.6632 280.634 86.6632 287.764 Q86.6632 294.87 88.4688 298.435 Q90.2975 301.977 93.9086 301.977 Q97.5428 301.977 99.3483 298.435 Q101.177 294.87 101.177 287.764 Q101.177 280.634 99.3483 277.092 Q97.5428 273.528 93.9086 273.528 M93.9086 269.824 Q99.7187 269.824 102.774 274.43 Q105.853 279.014 105.853 287.764 Q105.853 296.491 102.774 301.097 Q99.7187 305.68 93.9086 305.68 Q88.0984 305.68 85.0197 301.097 Q81.9642 296.491 81.9642 287.764 Q81.9642 279.014 85.0197 274.43 Q88.0984 269.824 93.9086 269.824 Z" fill="#000000" fill-rule="evenodd" fill-opacity="1" /><path clip-path="url(#clip370)" d="M124.07 273.528 Q120.459 273.528 118.631 277.092 Q116.825 280.634 116.825 287.764 Q116.825 294.87 118.631 298.435 Q120.459 301.977 124.07 301.977 Q127.705 301.977 129.51 298.435 Q131.339 294.87 131.339 287.764 Q131.339 280.634 129.51 277.092 Q127.705 273.528 124.07 273.528 M124.07 269.824 Q129.881 269.824 132.936 274.43 Q136.015 279.014 136.015 287.764 Q136.015 296.491 132.936 301.097 Q129.881 305.68 124.07 305.68 Q118.26 305.68 115.182 301.097 Q112.126 296.491 112.126 287.764 Q112.126 279.014 115.182 274.43 Q118.26 269.824 124.07 269.824 Z" fill="#000000" fill-rule="evenodd" fill-opacity="1" /><path clip-path="url(#clip372)" d="
M291.959 1444.27 L291.959 1445.72 L341.725 1445.72 L341.725 1444.27 L291.959 1444.27 L291.959 1444.27  Z
  " fill="#009af9" fill-rule="evenodd" fill-opacity="1"/>
<polyline clip-path="url(#clip372)" style="stroke:#000000; stroke-linecap:butt; stroke-linejoin:round; stroke-width:4; stroke-opacity:1; fill:none" points="
  291.959,1444.27 291.959,1445.72 341.725,1445.72 341.725,1444.27 291.959,1444.27 
  "/>
<path clip-path="url(#clip372)" d="
M341.725 1445.72 L341.725 1445.72 L391.49 1445.72 L391.49 1445.72 L341.725 1445.72 L341.725 1445.72  Z
  " fill="#009af9" fill-rule="evenodd" fill-opacity="1"/>
<polyline clip-path="url(#clip372)" style="stroke:#000000; stroke-linecap:butt; stroke-linejoin:round; stroke-width:4; stroke-opacity:1; fill:none" points="
  341.725,1445.72 341.725,1445.72 391.49,1445.72 341.725,1445.72 
  "/>
<path clip-path="url(#clip372)" d="
M391.49 1445.72 L391.49 1445.72 L441.256 1445.72 L441.256 1445.72 L391.49 1445.72 L391.49 1445.72  Z
  " fill="#009af9" fill-rule="evenodd" fill-opacity="1"/>
<polyline clip-path="url(#clip372)" style="stroke:#000000; stroke-linecap:butt; stroke-linejoin:round; stroke-width:4; stroke-opacity:1; fill:none" points="
  391.49,1445.72 391.49,1445.72 441.256,1445.72 391.49,1445.72 
  "/>
<path clip-path="url(#clip372)" d="
M441.256 1445.72 L441.256 1445.72 L491.021 1445.72 L491.021 1445.72 L441.256 1445.72 L441.256 1445.72  Z
  " fill="#009af9" fill-rule="evenodd" fill-opacity="1"/>
<polyline clip-path="url(#clip372)" style="stroke:#000000; stroke-linecap:butt; stroke-linejoin:round; stroke-width:4; stroke-opacity:1; fill:none" points="
  441.256,1445.72 441.256,1445.72 491.021,1445.72 441.256,1445.72 
  "/>
<path clip-path="url(#clip372)" d="
M491.021 1441.37 L491.021 1445.72 L540.787 1445.72 L540.787 1441.37 L491.021 1441.37 L491.021 1441.37  Z
  " fill="#009af9" fill-rule="evenodd" fill-opacity="1"/>
<polyline clip-path="url(#clip372)" style="stroke:#000000; stroke-linecap:butt; stroke-linejoin:round; stroke-width:4; stroke-opacity:1; fill:none" points="
  491.021,1441.37 491.021,1445.72 540.787,1445.72 540.787,1441.37 491.021,1441.37 
  "/>
<path clip-path="url(#clip372)" d="
M540.787 1441.37 L540.787 1445.72 L590.552 1445.72 L590.552 1441.37 L540.787 1441.37 L540.787 1441.37  Z
  " fill="#009af9" fill-rule="evenodd" fill-opacity="1"/>
<polyline clip-path="url(#clip372)" style="stroke:#000000; stroke-linecap:butt; stroke-linejoin:round; stroke-width:4; stroke-opacity:1; fill:none" points="
  540.787,1441.37 540.787,1445.72 590.552,1445.72 590.552,1441.37 540.787,1441.37 
  "/>
<path clip-path="url(#clip372)" d="
M590.552 1432.69 L590.552 1445.72 L640.317 1445.72 L640.317 1432.69 L590.552 1432.69 L590.552 1432.69  Z
  " fill="#009af9" fill-rule="evenodd" fill-opacity="1"/>
<polyline clip-path="url(#clip372)" style="stroke:#000000; stroke-linecap:butt; stroke-linejoin:round; stroke-width:4; stroke-opacity:1; fill:none" points="
  590.552,1432.69 590.552,1445.72 640.317,1445.72 640.317,1432.69 590.552,1432.69 
  "/>
<path clip-path="url(#clip372)" d="
M640.317 1431.24 L640.317 1445.72 L690.083 1445.72 L690.083 1431.24 L640.317 1431.24 L640.317 1431.24  Z
  " fill="#009af9" fill-rule="evenodd" fill-opacity="1"/>
<polyline clip-path="url(#clip372)" style="stroke:#000000; stroke-linecap:butt; stroke-linejoin:round; stroke-width:4; stroke-opacity:1; fill:none" points="
  640.317,1431.24 640.317,1445.72 690.083,1445.72 690.083,1431.24 640.317,1431.24 
  "/>
<path clip-path="url(#clip372)" d="
M690.083 1438.48 L690.083 1445.72 L739.848 1445.72 L739.848 1438.48 L690.083 1438.48 L690.083 1438.48  Z
  " fill="#009af9" fill-rule="evenodd" fill-opacity="1"/>
<polyline clip-path="url(#clip372)" style="stroke:#000000; stroke-linecap:butt; stroke-linejoin:round; stroke-width:4; stroke-opacity:1; fill:none" points="
  690.083,1438.48 690.083,1445.72 739.848,1445.72 739.848,1438.48 690.083,1438.48 
  "/>
<path clip-path="url(#clip372)" d="
M739.848 1410.98 L739.848 1445.72 L789.614 1445.72 L789.614 1410.98 L739.848 1410.98 L739.848 1410.98  Z
  " fill="#009af9" fill-rule="evenodd" fill-opacity="1"/>
<polyline clip-path="url(#clip372)" style="stroke:#000000; stroke-linecap:butt; stroke-linejoin:round; stroke-width:4; stroke-opacity:1; fill:none" points="
  739.848,1410.98 739.848,1445.72 789.614,1445.72 789.614,1410.98 739.848,1410.98 
  "/>
<path clip-path="url(#clip372)" d="
M789.614 1415.32 L789.614 1445.72 L839.379 1445.72 L839.379 1415.32 L789.614 1415.32 L789.614 1415.32  Z
  " fill="#009af9" fill-rule="evenodd" fill-opacity="1"/>
<polyline clip-path="url(#clip372)" style="stroke:#000000; stroke-linecap:butt; stroke-linejoin:round; stroke-width:4; stroke-opacity:1; fill:none" points="
  789.614,1415.32 789.614,1445.72 839.379,1445.72 839.379,1415.32 789.614,1415.32 
  "/>
<path clip-path="url(#clip372)" d="
M839.379 1392.16 L839.379 1445.72 L889.145 1445.72 L889.145 1392.16 L839.379 1392.16 L839.379 1392.16  Z
  " fill="#009af9" fill-rule="evenodd" fill-opacity="1"/>
<polyline clip-path="url(#clip372)" style="stroke:#000000; stroke-linecap:butt; stroke-linejoin:round; stroke-width:4; stroke-opacity:1; fill:none" points="
  839.379,1392.16 839.379,1445.72 889.145,1445.72 889.145,1392.16 839.379,1392.16 
  "/>
<path clip-path="url(#clip372)" d="
M889.145 1389.26 L889.145 1445.72 L938.91 1445.72 L938.91 1389.26 L889.145 1389.26 L889.145 1389.26  Z
  " fill="#009af9" fill-rule="evenodd" fill-opacity="1"/>
<polyline clip-path="url(#clip372)" style="stroke:#000000; stroke-linecap:butt; stroke-linejoin:round; stroke-width:4; stroke-opacity:1; fill:none" points="
  889.145,1389.26 889.145,1445.72 938.91,1445.72 938.91,1389.26 889.145,1389.26 
  "/>
<path clip-path="url(#clip372)" d="
M938.91 1354.52 L938.91 1445.72 L988.675 1445.72 L988.675 1354.52 L938.91 1354.52 L938.91 1354.52  Z
  " fill="#009af9" fill-rule="evenodd" fill-opacity="1"/>
<polyline clip-path="url(#clip372)" style="stroke:#000000; stroke-linecap:butt; stroke-linejoin:round; stroke-width:4; stroke-opacity:1; fill:none" points="
  938.91,1354.52 938.91,1445.72 988.675,1445.72 988.675,1354.52 938.91,1354.52 
  "/>
<path clip-path="url(#clip372)" d="
M988.675 1322.68 L988.675 1445.72 L1038.44 1445.72 L1038.44 1322.68 L988.675 1322.68 L988.675 1322.68  Z
  " fill="#009af9" fill-rule="evenodd" fill-opacity="1"/>
<polyline clip-path="url(#clip372)" style="stroke:#000000; stroke-linecap:butt; stroke-linejoin:round; stroke-width:4; stroke-opacity:1; fill:none" points="
  988.675,1322.68 988.675,1445.72 1038.44,1445.72 1038.44,1322.68 988.675,1322.68 
  "/>
<path clip-path="url(#clip372)" d="
M1038.44 1258.99 L1038.44 1445.72 L1088.21 1445.72 L1088.21 1258.99 L1038.44 1258.99 L1038.44 1258.99  Z
  " fill="#009af9" fill-rule="evenodd" fill-opacity="1"/>
<polyline clip-path="url(#clip372)" style="stroke:#000000; stroke-linecap:butt; stroke-linejoin:round; stroke-width:4; stroke-opacity:1; fill:none" points="
  1038.44,1258.99 1038.44,1445.72 1088.21,1445.72 1088.21,1258.99 1038.44,1258.99 
  "/>
<path clip-path="url(#clip372)" d="
M1088.21 1157.67 L1088.21 1445.72 L1137.97 1445.72 L1137.97 1157.67 L1088.21 1157.67 L1088.21 1157.67  Z
  " fill="#009af9" fill-rule="evenodd" fill-opacity="1"/>
<polyline clip-path="url(#clip372)" style="stroke:#000000; stroke-linecap:butt; stroke-linejoin:round; stroke-width:4; stroke-opacity:1; fill:none" points="
  1088.21,1157.67 1088.21,1445.72 1137.97,1445.72 1137.97,1157.67 1088.21,1157.67 
  "/>
<path clip-path="url(#clip372)" d="
M1137.97 1115.69 L1137.97 1445.72 L1187.74 1445.72 L1187.74 1115.69 L1137.97 1115.69 L1137.97 1115.69  Z
  " fill="#009af9" fill-rule="evenodd" fill-opacity="1"/>
<polyline clip-path="url(#clip372)" style="stroke:#000000; stroke-linecap:butt; stroke-linejoin:round; stroke-width:4; stroke-opacity:1; fill:none" points="
  1137.97,1115.69 1137.97,1445.72 1187.74,1445.72 1187.74,1115.69 1137.97,1115.69 
  "/>
<path clip-path="url(#clip372)" d="
M1187.74 1012.92 L1187.74 1445.72 L1237.5 1445.72 L1237.5 1012.92 L1187.74 1012.92 L1187.74 1012.92  Z
  " fill="#009af9" fill-rule="evenodd" fill-opacity="1"/>
<polyline clip-path="url(#clip372)" style="stroke:#000000; stroke-linecap:butt; stroke-linejoin:round; stroke-width:4; stroke-opacity:1; fill:none" points="
  1187.74,1012.92 1187.74,1445.72 1237.5,1445.72 1237.5,1012.92 1187.74,1012.92 
  "/>
<path clip-path="url(#clip372)" d="
M1237.5 888.435 L1237.5 1445.72 L1287.27 1445.72 L1287.27 888.435 L1237.5 888.435 L1237.5 888.435  Z
  " fill="#009af9" fill-rule="evenodd" fill-opacity="1"/>
<polyline clip-path="url(#clip372)" style="stroke:#000000; stroke-linecap:butt; stroke-linejoin:round; stroke-width:4; stroke-opacity:1; fill:none" points="
  1237.5,888.435 1237.5,1445.72 1287.27,1445.72 1287.27,888.435 1237.5,888.435 
  "/>
<path clip-path="url(#clip372)" d="
M1287.27 690.129 L1287.27 1445.72 L1337.03 1445.72 L1337.03 690.129 L1287.27 690.129 L1287.27 690.129  Z
  " fill="#009af9" fill-rule="evenodd" fill-opacity="1"/>
<polyline clip-path="url(#clip372)" style="stroke:#000000; stroke-linecap:butt; stroke-linejoin:round; stroke-width:4; stroke-opacity:1; fill:none" points="
  1287.27,690.129 1287.27,1445.72 1337.03,1445.72 1337.03,690.129 1287.27,690.129 
  "/>
<path clip-path="url(#clip372)" d="
M1337.03 545.381 L1337.03 1445.72 L1386.8 1445.72 L1386.8 545.381 L1337.03 545.381 L1337.03 545.381  Z
  " fill="#009af9" fill-rule="evenodd" fill-opacity="1"/>
<polyline clip-path="url(#clip372)" style="stroke:#000000; stroke-linecap:butt; stroke-linejoin:round; stroke-width:4; stroke-opacity:1; fill:none" points="
  1337.03,545.381 1337.03,1445.72 1386.8,1445.72 1386.8,545.381 1337.03,545.381 
  "/>
<path clip-path="url(#clip372)" d="
M1386.8 400.633 L1386.8 1445.72 L1436.56 1445.72 L1436.56 400.633 L1386.8 400.633 L1386.8 400.633  Z
  " fill="#009af9" fill-rule="evenodd" fill-opacity="1"/>
<polyline clip-path="url(#clip372)" style="stroke:#000000; stroke-linecap:butt; stroke-linejoin:round; stroke-width:4; stroke-opacity:1; fill:none" points="
  1386.8,400.633 1386.8,1445.72 1436.56,1445.72 1436.56,400.633 1386.8,400.633 
  "/>
<path clip-path="url(#clip372)" d="
M1436.56 276.149 L1436.56 1445.72 L1486.33 1445.72 L1486.33 276.149 L1436.56 276.149 L1436.56 276.149  Z
  " fill="#009af9" fill-rule="evenodd" fill-opacity="1"/>
<polyline clip-path="url(#clip372)" style="stroke:#000000; stroke-linecap:butt; stroke-linejoin:round; stroke-width:4; stroke-opacity:1; fill:none" points="
  1436.56,276.149 1436.56,1445.72 1486.33,1445.72 1486.33,276.149 1436.56,276.149 
  "/>
<path clip-path="url(#clip372)" d="
M1486.33 108.241 L1486.33 1445.72 L1536.1 1445.72 L1536.1 108.241 L1486.33 108.241 L1486.33 108.241  Z
  " fill="#009af9" fill-rule="evenodd" fill-opacity="1"/>
<polyline clip-path="url(#clip372)" style="stroke:#000000; stroke-linecap:butt; stroke-linejoin:round; stroke-width:4; stroke-opacity:1; fill:none" points="
  1486.33,108.241 1486.33,1445.72 1536.1,1445.72 1536.1,108.241 1486.33,108.241 
  "/>
<path clip-path="url(#clip372)" d="
M1536.1 87.9763 L1536.1 1445.72 L1585.86 1445.72 L1585.86 87.9763 L1536.1 87.9763 L1536.1 87.9763  Z
  " fill="#009af9" fill-rule="evenodd" fill-opacity="1"/>
<polyline clip-path="url(#clip372)" style="stroke:#000000; stroke-linecap:butt; stroke-linejoin:round; stroke-width:4; stroke-opacity:1; fill:none" points="
  1536.1,87.9763 1536.1,1445.72 1585.86,1445.72 1585.86,87.9763 1536.1,87.9763 
  "/>
<path clip-path="url(#clip372)" d="
M1585.86 167.588 L1585.86 1445.72 L1635.63 1445.72 L1635.63 167.588 L1585.86 167.588 L1585.86 167.588  Z
  " fill="#009af9" fill-rule="evenodd" fill-opacity="1"/>
<polyline clip-path="url(#clip372)" style="stroke:#000000; stroke-linecap:butt; stroke-linejoin:round; stroke-width:4; stroke-opacity:1; fill:none" points="
  1585.86,167.588 1585.86,1445.72 1635.63,1445.72 1635.63,167.588 1585.86,167.588 
  "/>
<path clip-path="url(#clip372)" d="
M1635.63 286.282 L1635.63 1445.72 L1685.39 1445.72 L1685.39 286.282 L1635.63 286.282 L1635.63 286.282  Z
  " fill="#009af9" fill-rule="evenodd" fill-opacity="1"/>
<polyline clip-path="url(#clip372)" style="stroke:#000000; stroke-linecap:butt; stroke-linejoin:round; stroke-width:4; stroke-opacity:1; fill:none" points="
  1635.63,286.282 1635.63,1445.72 1685.39,1445.72 1685.39,286.282 1635.63,286.282 
  "/>
<path clip-path="url(#clip372)" d="
M1685.39 459.98 L1685.39 1445.72 L1735.16 1445.72 L1735.16 459.98 L1685.39 459.98 L1685.39 459.98  Z
  " fill="#009af9" fill-rule="evenodd" fill-opacity="1"/>
<polyline clip-path="url(#clip372)" style="stroke:#000000; stroke-linecap:butt; stroke-linejoin:round; stroke-width:4; stroke-opacity:1; fill:none" points="
  1685.39,459.98 1685.39,1445.72 1735.16,1445.72 1735.16,459.98 1685.39,459.98 
  "/>
<path clip-path="url(#clip372)" d="
M1735.16 671.312 L1735.16 1445.72 L1784.92 1445.72 L1784.92 671.312 L1735.16 671.312 L1735.16 671.312  Z
  " fill="#009af9" fill-rule="evenodd" fill-opacity="1"/>
<polyline clip-path="url(#clip372)" style="stroke:#000000; stroke-linecap:butt; stroke-linejoin:round; stroke-width:4; stroke-opacity:1; fill:none" points="
  1735.16,671.312 1735.16,1445.72 1784.92,1445.72 1784.92,671.312 1735.16,671.312 
  "/>
<path clip-path="url(#clip372)" d="
M1784.92 826.193 L1784.92 1445.72 L1834.69 1445.72 L1834.69 826.193 L1784.92 826.193 L1784.92 826.193  Z
  " fill="#009af9" fill-rule="evenodd" fill-opacity="1"/>
<polyline clip-path="url(#clip372)" style="stroke:#000000; stroke-linecap:butt; stroke-linejoin:round; stroke-width:4; stroke-opacity:1; fill:none" points="
  1784.92,826.193 1784.92,1445.72 1834.69,1445.72 1834.69,826.193 1784.92,826.193 
  "/>
<path clip-path="url(#clip372)" d="
M1834.69 1075.16 L1834.69 1445.72 L1884.45 1445.72 L1884.45 1075.16 L1834.69 1075.16 L1834.69 1075.16  Z
  " fill="#009af9" fill-rule="evenodd" fill-opacity="1"/>
<polyline clip-path="url(#clip372)" style="stroke:#000000; stroke-linecap:butt; stroke-linejoin:round; stroke-width:4; stroke-opacity:1; fill:none" points="
  1834.69,1075.16 1834.69,1445.72 1884.45,1445.72 1884.45,1075.16 1834.69,1075.16 
  "/>
<path clip-path="url(#clip372)" d="
M1884.45 1189.51 L1884.45 1445.72 L1934.22 1445.72 L1934.22 1189.51 L1884.45 1189.51 L1884.45 1189.51  Z
  " fill="#009af9" fill-rule="evenodd" fill-opacity="1"/>
<polyline clip-path="url(#clip372)" style="stroke:#000000; stroke-linecap:butt; stroke-linejoin:round; stroke-width:4; stroke-opacity:1; fill:none" points="
  1884.45,1189.51 1884.45,1445.72 1934.22,1445.72 1934.22,1189.51 1884.45,1189.51 
  "/>
<path clip-path="url(#clip372)" d="
M1934.22 1309.65 L1934.22 1445.72 L1983.98 1445.72 L1983.98 1309.65 L1934.22 1309.65 L1934.22 1309.65  Z
  " fill="#009af9" fill-rule="evenodd" fill-opacity="1"/>
<polyline clip-path="url(#clip372)" style="stroke:#000000; stroke-linecap:butt; stroke-linejoin:round; stroke-width:4; stroke-opacity:1; fill:none" points="
  1934.22,1309.65 1934.22,1445.72 1983.98,1445.72 1983.98,1309.65 1934.22,1309.65 
  "/>
<path clip-path="url(#clip372)" d="
M1983.98 1380.58 L1983.98 1445.72 L2033.75 1445.72 L2033.75 1380.58 L1983.98 1380.58 L1983.98 1380.58  Z
  " fill="#009af9" fill-rule="evenodd" fill-opacity="1"/>
<polyline clip-path="url(#clip372)" style="stroke:#000000; stroke-linecap:butt; stroke-linejoin:round; stroke-width:4; stroke-opacity:1; fill:none" points="
  1983.98,1380.58 1983.98,1445.72 2033.75,1445.72 2033.75,1380.58 1983.98,1380.58 
  "/>
<path clip-path="url(#clip372)" d="
M2033.75 1425.45 L2033.75 1445.72 L2083.51 1445.72 L2083.51 1425.45 L2033.75 1425.45 L2033.75 1425.45  Z
  " fill="#009af9" fill-rule="evenodd" fill-opacity="1"/>
<polyline clip-path="url(#clip372)" style="stroke:#000000; stroke-linecap:butt; stroke-linejoin:round; stroke-width:4; stroke-opacity:1; fill:none" points="
  2033.75,1425.45 2033.75,1445.72 2083.51,1445.72 2083.51,1425.45 2033.75,1425.45 
  "/>
<path clip-path="url(#clip372)" d="
M2083.51 1434.14 L2083.51 1445.72 L2133.28 1445.72 L2133.28 1434.14 L2083.51 1434.14 L2083.51 1434.14  Z
  " fill="#009af9" fill-rule="evenodd" fill-opacity="1"/>
<polyline clip-path="url(#clip372)" style="stroke:#000000; stroke-linecap:butt; stroke-linejoin:round; stroke-width:4; stroke-opacity:1; fill:none" points="
  2083.51,1434.14 2083.51,1445.72 2133.28,1445.72 2133.28,1434.14 2083.51,1434.14 
  "/>
<path clip-path="url(#clip372)" d="
M2133.28 1444.27 L2133.28 1445.72 L2183.05 1445.72 L2183.05 1444.27 L2133.28 1444.27 L2133.28 1444.27  Z
  " fill="#009af9" fill-rule="evenodd" fill-opacity="1"/>
<polyline clip-path="url(#clip372)" style="stroke:#000000; stroke-linecap:butt; stroke-linejoin:round; stroke-width:4; stroke-opacity:1; fill:none" points="
  2133.28,1444.27 2133.28,1445.72 2183.05,1445.72 2183.05,1444.27 2133.28,1444.27 
  "/>
<path clip-path="url(#clip372)" d="
M2183.05 1444.27 L2183.05 1445.72 L2232.81 1445.72 L2232.81 1444.27 L2183.05 1444.27 L2183.05 1444.27  Z
  " fill="#009af9" fill-rule="evenodd" fill-opacity="1"/>
<polyline clip-path="url(#clip372)" style="stroke:#000000; stroke-linecap:butt; stroke-linejoin:round; stroke-width:4; stroke-opacity:1; fill:none" points="
  2183.05,1444.27 2183.05,1445.72 2232.81,1445.72 2232.81,1444.27 2183.05,1444.27 
  "/>
<circle clip-path="url(#clip372)" style="fill:#009af9; stroke:none; fill-opacity:0" cx="316.842" cy="1444.27" r="2"/>
<circle clip-path="url(#clip372)" style="fill:#009af9; stroke:none; fill-opacity:0" cx="366.608" cy="1445.72" r="2"/>
<circle clip-path="url(#clip372)" style="fill:#009af9; stroke:none; fill-opacity:0" cx="416.373" cy="1445.72" r="2"/>
<circle clip-path="url(#clip372)" style="fill:#009af9; stroke:none; fill-opacity:0" cx="466.138" cy="1445.72" r="2"/>
<circle clip-path="url(#clip372)" style="fill:#009af9; stroke:none; fill-opacity:0" cx="515.904" cy="1441.37" r="2"/>
<circle clip-path="url(#clip372)" style="fill:#009af9; stroke:none; fill-opacity:0" cx="565.669" cy="1441.37" r="2"/>
<circle clip-path="url(#clip372)" style="fill:#009af9; stroke:none; fill-opacity:0" cx="615.435" cy="1432.69" r="2"/>
<circle clip-path="url(#clip372)" style="fill:#009af9; stroke:none; fill-opacity:0" cx="665.2" cy="1431.24" r="2"/>
<circle clip-path="url(#clip372)" style="fill:#009af9; stroke:none; fill-opacity:0" cx="714.966" cy="1438.48" r="2"/>
<circle clip-path="url(#clip372)" style="fill:#009af9; stroke:none; fill-opacity:0" cx="764.731" cy="1410.98" r="2"/>
<circle clip-path="url(#clip372)" style="fill:#009af9; stroke:none; fill-opacity:0" cx="814.496" cy="1415.32" r="2"/>
<circle clip-path="url(#clip372)" style="fill:#009af9; stroke:none; fill-opacity:0" cx="864.262" cy="1392.16" r="2"/>
<circle clip-path="url(#clip372)" style="fill:#009af9; stroke:none; fill-opacity:0" cx="914.027" cy="1389.26" r="2"/>
<circle clip-path="url(#clip372)" style="fill:#009af9; stroke:none; fill-opacity:0" cx="963.793" cy="1354.52" r="2"/>
<circle clip-path="url(#clip372)" style="fill:#009af9; stroke:none; fill-opacity:0" cx="1013.56" cy="1322.68" r="2"/>
<circle clip-path="url(#clip372)" style="fill:#009af9; stroke:none; fill-opacity:0" cx="1063.32" cy="1258.99" r="2"/>
<circle clip-path="url(#clip372)" style="fill:#009af9; stroke:none; fill-opacity:0" cx="1113.09" cy="1157.67" r="2"/>
<circle clip-path="url(#clip372)" style="fill:#009af9; stroke:none; fill-opacity:0" cx="1162.85" cy="1115.69" r="2"/>
<circle clip-path="url(#clip372)" style="fill:#009af9; stroke:none; fill-opacity:0" cx="1212.62" cy="1012.92" r="2"/>
<circle clip-path="url(#clip372)" style="fill:#009af9; stroke:none; fill-opacity:0" cx="1262.39" cy="888.435" r="2"/>
<circle clip-path="url(#clip372)" style="fill:#009af9; stroke:none; fill-opacity:0" cx="1312.15" cy="690.129" r="2"/>
<circle clip-path="url(#clip372)" style="fill:#009af9; stroke:none; fill-opacity:0" cx="1361.92" cy="545.381" r="2"/>
<circle clip-path="url(#clip372)" style="fill:#009af9; stroke:none; fill-opacity:0" cx="1411.68" cy="400.633" r="2"/>
<circle clip-path="url(#clip372)" style="fill:#009af9; stroke:none; fill-opacity:0" cx="1461.45" cy="276.149" r="2"/>
<circle clip-path="url(#clip372)" style="fill:#009af9; stroke:none; fill-opacity:0" cx="1511.21" cy="108.241" r="2"/>
<circle clip-path="url(#clip372)" style="fill:#009af9; stroke:none; fill-opacity:0" cx="1560.98" cy="87.9763" r="2"/>
<circle clip-path="url(#clip372)" style="fill:#009af9; stroke:none; fill-opacity:0" cx="1610.74" cy="167.588" r="2"/>
<circle clip-path="url(#clip372)" style="fill:#009af9; stroke:none; fill-opacity:0" cx="1660.51" cy="286.282" r="2"/>
<circle clip-path="url(#clip372)" style="fill:#009af9; stroke:none; fill-opacity:0" cx="1710.27" cy="459.98" r="2"/>
<circle clip-path="url(#clip372)" style="fill:#009af9; stroke:none; fill-opacity:0" cx="1760.04" cy="671.312" r="2"/>
<circle clip-path="url(#clip372)" style="fill:#009af9; stroke:none; fill-opacity:0" cx="1809.81" cy="826.193" r="2"/>
<circle clip-path="url(#clip372)" style="fill:#009af9; stroke:none; fill-opacity:0" cx="1859.57" cy="1075.16" r="2"/>
<circle clip-path="url(#clip372)" style="fill:#009af9; stroke:none; fill-opacity:0" cx="1909.34" cy="1189.51" r="2"/>
<circle clip-path="url(#clip372)" style="fill:#009af9; stroke:none; fill-opacity:0" cx="1959.1" cy="1309.65" r="2"/>
<circle clip-path="url(#clip372)" style="fill:#009af9; stroke:none; fill-opacity:0" cx="2008.87" cy="1380.58" r="2"/>
<circle clip-path="url(#clip372)" style="fill:#009af9; stroke:none; fill-opacity:0" cx="2058.63" cy="1425.45" r="2"/>
<circle clip-path="url(#clip372)" style="fill:#009af9; stroke:none; fill-opacity:0" cx="2108.4" cy="1434.14" r="2"/>
<circle clip-path="url(#clip372)" style="fill:#009af9; stroke:none; fill-opacity:0" cx="2158.16" cy="1444.27" r="2"/>
<circle clip-path="url(#clip372)" style="fill:#009af9; stroke:none; fill-opacity:0" cx="2207.93" cy="1444.27" r="2"/>
<path clip-path="url(#clip370)" d="
M1985.33 198.898 L2280.06 198.898 L2280.06 95.2176 L1985.33 95.2176  Z
  " fill="#ffffff" fill-rule="evenodd" fill-opacity="1"/>
<polyline clip-path="url(#clip370)" style="stroke:#000000; stroke-linecap:butt; stroke-linejoin:round; stroke-width:4; stroke-opacity:1; fill:none" points="
  1985.33,198.898 2280.06,198.898 2280.06,95.2176 1985.33,95.2176 1985.33,198.898 
  "/>
<path clip-path="url(#clip370)" d="
M2009.56 167.794 L2154.94 167.794 L2154.94 126.322 L2009.56 126.322 L2009.56 167.794  Z
  " fill="#009af9" fill-rule="evenodd" fill-opacity="1"/>
<polyline clip-path="url(#clip370)" style="stroke:#000000; stroke-linecap:butt; stroke-linejoin:round; stroke-width:4; stroke-opacity:1; fill:none" points="
  2009.56,167.794 2154.94,167.794 2154.94,126.322 2009.56,126.322 2009.56,167.794 
  "/>
<path clip-path="url(#clip370)" d="M2193.02 166.745 Q2191.21 171.375 2189.5 172.787 Q2187.78 174.199 2184.91 174.199 L2181.51 174.199 L2181.51 170.634 L2184.01 170.634 Q2185.77 170.634 2186.74 169.8 Q2187.71 168.967 2188.9 165.865 L2189.66 163.921 L2179.17 138.412 L2183.69 138.412 L2191.79 158.689 L2199.89 138.412 L2204.4 138.412 L2193.02 166.745 Z" fill="#000000" fill-rule="evenodd" fill-opacity="1" /><path clip-path="url(#clip370)" d="M2211.7 160.402 L2219.34 160.402 L2219.34 134.037 L2211.03 135.703 L2211.03 131.444 L2219.29 129.778 L2223.96 129.778 L2223.96 160.402 L2231.6 160.402 L2231.6 164.338 L2211.7 164.338 L2211.7 160.402 Z" fill="#000000" fill-rule="evenodd" fill-opacity="1" /></svg>
